<svg width="50" height="50" fill="none" xmlns="http://www.w3.org/2000/svg"><path d="M45.596 19.256c-1.54-4.229-4.138-6.867-7.316-7.427-2.56-.457-5.04.563-7.067 2.16a10.05 10.05 0 01-4.75 2.034 13.12 13.12 0 00-.753-4.304h5.15c5.653 0 10.253-4.6 10.253-10.254 0-.81-.656-1.465-1.465-1.465h-5.86c-4.922 0-9.045 3.487-10.03 8.121-2.41-3.153-6.21-5.191-10.477-5.191a1.465 1.465 0 000 2.93c5.623 0 10.204 4.55 10.253 10.162a10.05 10.05 0 01-4.748-2.034c-2.036-1.602-4.514-2.614-7.064-2.16-3.18.561-5.78 3.2-7.318 7.428-1.436 3.946-1.761 8.76-.916 13.556.792 4.488 2.55 8.715 4.953 11.9C11.012 48.122 14.083 50 17.087 50a7.157 7.157 0 003.433-.876A9.443 9.443 0 0125 47.976a9.46 9.46 0 014.48 1.147 7.145 7.145 0 003.432.877c3.004 0 6.075-1.878 8.647-5.288 2.402-3.186 4.16-7.413 4.952-11.901.846-4.795.52-9.61-.915-13.555zM33.789 2.92h4.247c-.68 3.339-3.64 5.869-7.177 5.869h-4.247c.68-3.339 3.64-5.87 7.177-5.87zm9.837 29.382c-.713 4.042-2.277 7.823-4.406 10.646-2.005 2.658-4.245 4.122-6.308 4.122a4.22 4.22 0 01-2.036-.523 12.403 12.403 0 00-5.876-1.5c-2.03 0-4.061.518-5.874 1.5a4.23 4.23 0 01-2.038.523c-2.063 0-4.303-1.464-6.308-4.122-2.13-2.823-3.694-6.603-4.406-10.645-.747-4.235-.462-8.625.783-12.045 1.149-3.158 2.998-5.179 5.076-5.545 1.697-.303 3.392.515 4.74 1.577a13.002 13.002 0 006.562 2.687v2.929a13.17 13.17 0 01-3.803-1.03 1.465 1.465 0 10-1.183 2.68c2.02.893 4.25 1.365 6.45 1.365h.002c2.2 0 4.43-.472 6.45-1.365a1.465 1.465 0 10-1.184-2.68 13.162 13.162 0 01-3.802 1.03v-2.929a13 13 0 006.56-2.687c1.358-1.068 3.05-1.879 4.744-1.577 2.075.367 3.925 2.387 5.074 5.545 1.244 3.42 1.53 7.81.783 12.044z" fill="#1B1A1F"/></svg>