<svg width="50" height="50" fill="none" xmlns="http://www.w3.org/2000/svg"><path d="M43.585 26.974A32.975 32.975 0 0041.815 25a32.975 32.975 0 001.77-1.974c3.218-3.912 4.343-7.438 3.212-10.006a4.4 4.4 0 00-4.226-5.598 4.396 4.396 0 00-3.781 2.16c-1.636.075-3.448.365-5.375.849a33.34 33.34 0 00-.834-2.564C30.689 2.794 27.995 0 24.993 0c-3 0-5.695 2.794-7.587 7.867a33.4 33.4 0 00-.834 2.564c-1.927-.483-3.74-.774-5.375-.85a4.396 4.396 0 00-3.782-2.16A4.4 4.4 0 003.19 13.02c-1.13 2.569-.006 6.095 3.212 10.006.54.657 1.133 1.317 1.77 1.974a32.939 32.939 0 00-1.77 1.974C2.982 31.13 1.926 34.85 3.428 37.45c1.895 3.283 6.833 3.283 10.56 2.663.837-.14 1.7-.322 2.585-.543.253.895.531 1.752.833 2.562C19.298 47.206 21.992 50 24.994 50c3 0 5.695-2.794 7.587-7.867.302-.81.58-1.668.834-2.564 1.927.484 3.739.774 5.375.85a4.396 4.396 0 003.782 2.16 4.4 4.4 0 004.225-5.599c1.13-2.569.006-6.094-3.212-10.006zM7.415 10.352c.808 0 1.465.657 1.465 1.464 0 .808-.657 1.465-1.465 1.465a1.466 1.466 0 01-1.464-1.465c0-.807.657-1.464 1.464-1.464zm-1.663 5.53a4.346 4.346 0 001.663.329 4.4 4.4 0 004.332-3.657c1.265.108 2.655.355 4.13.728a53.072 53.072 0 00-.877 5.95 52.671 52.671 0 00-4.716 3.74 30.176 30.176 0 01-1.62-1.807c-1.65-2.008-2.653-3.85-2.912-5.282zm9.018 11.073A46.992 46.992 0 0112.41 25a47.047 47.047 0 012.36-1.955 64.01 64.01 0 000 3.91zm-1.262 10.269c-3.901.649-6.721.186-7.543-1.238-.822-1.423.187-4.097 2.7-7.151a30.21 30.21 0 011.62-1.807A52.653 52.653 0 0015 30.768c.191 2.081.486 4.082.878 5.958-.812.203-1.604.37-2.37.498zm18.293-20.1a63.004 63.004 0 00-3.376-1.948c.971-.395 1.93-.75 2.868-1.064.197.97.366 1.976.508 3.012zM20.15 8.89c1.392-3.732 3.202-5.96 4.843-5.96 1.64 0 3.45 2.228 4.842 5.96.277.744.533 1.533.766 2.357a53.025 53.025 0 00-5.609 2.218 53.052 53.052 0 00-5.608-2.217c.233-.825.489-1.614.766-2.358zm-1.457 5.223a47.67 47.67 0 012.867 1.064 62.533 62.533 0 00-3.375 1.948 47.42 47.42 0 01.508-3.012zm-.508 18.763a62.908 62.908 0 003.39 1.955c-.974.397-1.936.754-2.88 1.069a47.37 47.37 0 01-.51-3.024zm11.65 8.234c-1.392 3.732-3.202 5.96-4.842 5.96-1.641 0-3.451-2.228-4.843-5.96a30.668 30.668 0 01-.765-2.354 52.676 52.676 0 005.61-2.22 52.967 52.967 0 005.606 2.217 30.677 30.677 0 01-.766 2.357zm1.457-5.222a48.36 48.36 0 01-2.867-1.064 63.957 63.957 0 003.375-1.948 47.495 47.495 0 01-.508 3.012zm.885-6.74A61.557 61.557 0 0125 33.293a60.522 60.522 0 01-7.19-4.145 61.741 61.741 0 010-8.296 60.519 60.519 0 017.184-4.142 60.421 60.421 0 017.185 4.142 61.57 61.57 0 010 8.296zm10.394-18.796c.807 0 1.464.657 1.464 1.464 0 .808-.657 1.465-1.464 1.465a1.467 1.467 0 01-1.465-1.465c0-.807.657-1.464 1.465-1.464zm-4.332 2.2a4.4 4.4 0 004.332 3.659 4.37 4.37 0 001.663-.328c-.26 1.432-1.261 3.275-2.913 5.282a30.2 30.2 0 01-1.62 1.807 52.682 52.682 0 00-4.715-3.74 53.11 53.11 0 00-.876-5.951c1.474-.373 2.864-.62 4.129-.729zm-3.022 10.493A47.693 47.693 0 0137.577 25a47.092 47.092 0 01-2.36 1.955c.038-1.284.04-2.553 0-3.91zm7.354 16.603a1.467 1.467 0 01-1.465-1.464c0-.808.657-1.465 1.465-1.465.807 0 1.464.657 1.464 1.465 0 .807-.657 1.464-1.464 1.464zm0-5.859a4.4 4.4 0 00-4.332 3.659c-1.265-.109-2.655-.356-4.13-.729.392-1.874.686-3.872.877-5.95a52.7 52.7 0 004.716-3.741 30.277 30.277 0 011.62 1.807c1.65 2.007 2.652 3.85 2.912 5.282a4.37 4.37 0 00-1.663-.328z" fill="#1B1A1F"/><path d="M25 20.605A4.4 4.4 0 0020.605 25 4.4 4.4 0 0025 29.395 4.4 4.4 0 0029.395 25 4.4 4.4 0 0025 20.605zm0 5.86A1.466 1.466 0 0123.535 25c0-.808.657-1.465 1.465-1.465s1.465.657 1.465 1.465-.657 1.465-1.465 1.465z" fill="#1B1A1F"/></svg>