<svg width="50" height="50" fill="none" xmlns="http://www.w3.org/2000/svg"><path d="M25.035 50c-4.308 0-7.812-3.504-7.812-7.813a1.563 1.563 0 013.125 0 4.692 4.692 0 004.687 4.688 4.692 4.692 0 004.688-4.688 1.563 1.563 0 013.125 0c0 4.309-3.505 7.813-7.813 7.813z" fill="#1B1A1F"/><path d="M42.22 43.75H7.845a3.65 3.65 0 01-3.646-3.646c0-1.067.465-2.077 1.275-2.77a13.961 13.961 0 004.975-10.692v-5.809c0-8.041 6.542-14.583 14.583-14.583 8.042 0 14.584 6.542 14.584 14.583v5.809c0 4.123 1.806 8.014 4.954 10.677a3.646 3.646 0 011.296 2.785 3.65 3.65 0 01-3.646 3.646zM25.032 9.375c-6.318 0-11.458 5.14-11.458 11.458v5.809c0 5.043-2.21 9.806-6.062 13.062a.519.519 0 00-.188.4c0 .283.238.521.52.521H42.22a.527.527 0 00.521-.52.514.514 0 00-.184-.397 17.08 17.08 0 01-6.066-13.066v-5.809c0-6.318-5.14-11.458-11.459-11.458z" fill="#1B1A1F"/><path d="M25.035 9.375c-.862 0-1.562-.7-1.562-1.563v-6.25a1.563 1.563 0 013.125 0v6.25c0 .863-.7 1.563-1.563 1.563z" fill="#1B1A1F"/></svg>