<svg width="50" height="50" fill="none" xmlns="http://www.w3.org/2000/svg"><g clip-path="url(#clip0)" fill="#1B1A1F"><path d="M48.58 11.929a93.607 93.607 0 00-4.86-.006V6.111a1.47 1.47 0 00-1.592-1.465c-5.652.472-12.843 2.97-17.128 7.525-4.285-4.556-11.476-7.053-17.128-7.525A1.471 1.471 0 006.28 6.11v5.97c-1.61-.061-3.134-.104-4.765-.152A1.471 1.471 0 000 13.399V40.18c0 .774.6 1.415 1.372 1.467 5.85.394 15.649.438 23.051 3.596.66.281 1.252-.042 1.154 0 7.402-3.158 17.2-3.202 23.051-3.596A1.47 1.47 0 0050 40.18V13.399a1.47 1.47 0 00-1.42-1.47zm-7.8-4.164V32.97c-4.241.949-9.616 2.973-14.31 7.265V14.957c3.218-4.015 9.312-6.435 14.31-7.192zm-31.56 0c4.998.757 11.092 3.177 14.31 7.192v25.278c-4.696-4.292-10.07-6.315-14.31-7.265V7.765zM2.941 38.796V14.913c1.053.031 2.18.066 3.338.11V34.17a1.47 1.47 0 001.2 1.445c3.357.63 7.724 1.998 11.794 4.944-5.806-1.302-11.884-1.512-16.332-1.762zm44.118 0c-4.44.25-10.523.459-16.332 1.762 4.07-2.946 8.437-4.314 11.795-4.944a1.47 1.47 0 001.199-1.445V14.865c1.353-.03 2.506-.03 3.338-.023v23.954z"/><path d="M19.716 18.345c-1.14-.794-3.103-1.768-5.199-2.122a1.47 1.47 0 10-.49 2.9c1.618.273 3.17 1.051 4.007 1.635a1.47 1.47 0 001.682-2.413zm-.148 8.281c-1.048-.64-3.097-1.763-5.05-2.093a1.47 1.47 0 10-.49 2.9c1.521.257 3.31 1.276 4.007 1.703a1.47 1.47 0 001.533-2.51zm12.397-5.868c.838-.584 2.39-1.362 4.007-1.635a1.47 1.47 0 00-.49-2.9c-2.095.354-4.059 1.328-5.198 2.122a1.47 1.47 0 101.681 2.413zm3.517 3.775c-1.954.33-4.003 1.453-5.051 2.093a1.47 1.47 0 001.533 2.51c.698-.427 2.486-1.446 4.008-1.703a1.47 1.47 0 00-.49-2.9z"/></g><defs><clipPath id="clip0"><path fill="#fff" d="M0 0h50v50H0z"/></clipPath></defs></svg>