<svg xmlns="http://www.w3.org/2000/svg" viewBox="0 0 50 50"><path d="M49.7 18.7l-5.1-8.4c-.2-.4-.6-.6-1-.8L25.8 3.2c-.4-.1-.9-.1-1.3 0L6.3 9.5c-.4.1-.8.4-1 .8L.2 18.7c-.3.5-.3 1-.1 1.5.2.5.6.9 1.1 1.1l3.9 1.4v16.1c0 .8.5 1.4 1.3 1.7l18 6.2c.2.1.5.2.8.2.2 0 .4 0 .6-.1L44 40.5c.8-.3 1.3-.9 1.3-1.7V22.6l3.5-1.3c.5-.2.9-.6 1.1-1.1.2-.5.1-1-.2-1.5zm-28.3 8.5l1.8-3v18.3l-14.3-5V24.2L19.1 28c.2.1.5.1.7.1.6 0 1.3-.4 1.6-.9zm1-8.8L19 24 4.6 18.7l3.2-5.3 14.6 5zm15.1-7.2l-12.4 4.4-12.6-4.4 12.6-4.3 12.4 4.3zM30.9 28l10.5-4v13.5l-14.4 5v-18l1.5 2.6c.5.8 1.5 1.2 2.4.9zm11.3-14.6l3.2 5.3L31.1 24l-3.2-5.6 14.3-5z" fill="#1b1a1f"/></svg>