<svg width="25" height="16" fill="none" xmlns="http://www.w3.org/2000/svg"><path fill-rule="evenodd" clip-rule="evenodd" d="M0 1.263C0 .566.56 0 1.25 0h22.5C24.44 0 25 .566 25 1.263c0 .698-.56 1.263-1.25 1.263H1.25C.56 2.526 0 1.961 0 1.263zM0 8c0-.697.56-1.263 1.25-1.263h22.5c.69 0 1.25.566 1.25 1.263 0 .698-.56 1.264-1.25 1.264H1.25C.56 9.264 0 8.698 0 8zm0 6.737c0-.698.56-1.263 1.25-1.263h22.5c.69 0 1.25.565 1.25 1.263 0 .697-.56 1.263-1.25 1.263H1.25C.56 16 0 15.434 0 14.737z" fill="#38424C"/></svg>