<svg width="50" height="50" fill="none" xmlns="http://www.w3.org/2000/svg"><path d="M44.643 5.357h-5.357V1.786a1.786 1.786 0 10-3.572 0v3.571H14.286V1.786a1.786 1.786 0 10-3.572 0v3.571H5.357A5.357 5.357 0 000 10.714v33.929A5.357 5.357 0 005.357 50h39.286A5.357 5.357 0 0050 44.643V10.714a5.357 5.357 0 00-5.357-5.357zm1.785 39.286c0 .986-.799 1.786-1.785 1.786H5.357c-.986 0-1.786-.8-1.786-1.786V21.429H46.43v23.214zm0-26.786H3.572v-7.143c0-.986.8-1.785 1.786-1.785h5.357v3.57a1.786 1.786 0 103.572 0V8.93h21.428v3.57a1.786 1.786 0 103.572 0V8.93h5.357c.986 0 1.786.799 1.786 1.785v7.143z" fill="#1B1A1F"/><path d="M14.287 25h-3.572a1.786 1.786 0 000 3.572h3.572a1.786 1.786 0 100-3.572zm12.497 0h-3.572a1.786 1.786 0 000 3.572h3.572a1.786 1.786 0 100-3.572zm12.501 0h-3.571a1.786 1.786 0 100 3.572h3.57a1.786 1.786 0 000-3.572zm-24.998 7.143h-3.572a1.786 1.786 0 000 3.571h3.572a1.786 1.786 0 100-3.571zm12.497 0h-3.572a1.786 1.786 0 000 3.571h3.572a1.786 1.786 0 100-3.571zm12.501 0h-3.571a1.786 1.786 0 100 3.571h3.57a1.786 1.786 0 000-3.571zm-24.998 7.143h-3.572a1.786 1.786 0 000 3.572h3.572a1.786 1.786 0 100-3.572zm12.497 0h-3.572a1.786 1.786 0 000 3.572h3.572a1.786 1.786 0 100-3.572zm12.501 0h-3.571a1.786 1.786 0 100 3.572h3.57a1.786 1.786 0 000-3.572z" fill="#1B1A1F"/></svg>