<svg width="50" height="50" fill="none" xmlns="http://www.w3.org/2000/svg"><g clip-path="url(#clip0)" fill="#1B1A1F"><path d="M20.313 39.063a4.693 4.693 0 00-4.688 4.687 4.693 4.693 0 004.688 4.688A4.693 4.693 0 0025 43.75a4.693 4.693 0 00-4.687-4.688zm0 6.25a1.563 1.563 0 110-3.127 1.563 1.563 0 010 3.127zm18.751-6.25a4.693 4.693 0 00-4.688 4.687 4.693 4.693 0 004.688 4.688 4.693 4.693 0 004.687-4.688 4.693 4.693 0 00-4.687-4.688zm0 6.25a1.563 1.563 0 110-3.127 1.563 1.563 0 010 3.127zM49.637 8.375a1.553 1.553 0 00-1.197-.562H11.713l-1.36-5.091a1.559 1.559 0 00-1.509-1.16H1.563a1.563 1.563 0 000 3.126h6.081L15.68 34.78c.181.684.8 1.16 1.51 1.16h25a1.563 1.563 0 000-3.126h-23.8l-.916-3.431 27.91-1.257a1.562 1.562 0 001.466-1.281l3.125-17.188a1.559 1.559 0 00-.337-1.282zm-5.635 16.686l-27.358 1.23-4.096-15.353h34.02L44.002 25.06z"/><path d="M39.063 14.063c-.862 0-1.562.7-1.562 1.562v6.25a1.563 1.563 0 003.125 0v-6.25c0-.863-.7-1.563-1.563-1.563zm-9.374 0c-.863 0-1.563.7-1.563 1.562v6.25a1.563 1.563 0 003.125 0v-6.25c0-.863-.7-1.563-1.563-1.563zm-9.376 0c-.863 0-1.563.7-1.563 1.562v6.25a1.563 1.563 0 003.125 0v-6.25c0-.863-.7-1.563-1.562-1.563z"/></g><defs><clipPath id="clip0"><path fill="#fff" d="M0 0h50v50H0z"/></clipPath></defs></svg>