<svg width="50" height="50" fill="none" xmlns="http://www.w3.org/2000/svg"><path d="M45.605 20.605h-1.562V7.422a4.4 4.4 0 00-4.395-4.395H4.395A4.4 4.4 0 000 7.422v23.437a4.4 4.4 0 004.395 4.395h1.464v7.324a1.465 1.465 0 002.501 1.036l8.36-8.36h6.815v1.465a4.4 4.4 0 004.395 4.394h8.182l5.43 5.43a1.465 1.465 0 002.501-1.035v-4.395h1.563A4.4 4.4 0 0050 36.72V25a4.4 4.4 0 00-4.395-4.395zm-29.492 11.72c-.388 0-.76.153-1.035.428l-6.289 6.289v-5.253c0-.809-.656-1.465-1.465-1.465h-2.93A1.466 1.466 0 012.93 30.86V7.422c0-.808.657-1.465 1.465-1.465h35.253c.808 0 1.465.657 1.465 1.465v13.183H27.93A4.4 4.4 0 0023.535 25v7.324h-7.422zm30.957 4.394c0 .807-.657 1.465-1.465 1.465h-3.027c-.809 0-1.465.656-1.465 1.464v2.323l-3.358-3.358a1.464 1.464 0 00-1.036-.43h-8.79a1.467 1.467 0 01-1.464-1.464V25c0-.808.657-1.465 1.465-1.465h17.675c.808 0 1.465.657 1.465 1.465v11.719z" fill="#1B1A1F"/><path d="M38.61 28.359l-3.358 3.358-1.162-1.161a1.465 1.465 0 10-2.071 2.072l2.197 2.197a1.46 1.46 0 002.072-.001l4.394-4.394a1.465 1.465 0 00-2.071-2.071zm-19.47-4.824h-8.886a1.465 1.465 0 100 2.93h8.887a1.465 1.465 0 100-2.93zm2.93-5.859H10.254a1.465 1.465 0 100 2.93H22.07a1.465 1.465 0 000-2.93zm-11.816-2.93h23.535a1.465 1.465 0 000-2.93H10.254a1.465 1.465 0 000 2.93z" fill="#1B1A1F"/></svg>