<svg width="50" height="50" fill="none" xmlns="http://www.w3.org/2000/svg"><g clip-path="url(#clip0)" fill="#1B1A1F"><path d="M12.444 13.26a1.465 1.465 0 001.195-1.692c-.78-4.52 2.707-8.638 7.265-8.638 4.544 0 8.037 4.098 7.268 8.62a1.465 1.465 0 002.888.491C32.13 5.747 27.273 0 20.904 0 14.542 0 9.66 5.746 10.752 12.066c.137.8.898 1.332 1.692 1.194z"/><path d="M36.49 23.5a4.393 4.393 0 00-5.859-1.952 4.392 4.392 0 00-5.355-2.164v-8.972c0-2.39-1.92-4.388-4.283-4.453a4.398 4.398 0 00-4.527 4.393v22.566l-1.72-1.802c-1.652-1.729-4.418-1.85-6.166-.27a4.391 4.391 0 00-.238 6.291l9.89 10.549A7.352 7.352 0 0023.575 50h11.928c4.039 0 7.324-3.285 7.324-7.324V27.442c0-3.245-3.423-5.383-6.336-3.941zm3.407 19.176a4.4 4.4 0 01-4.394 4.395H23.575a4.41 4.41 0 01-3.206-1.39L10.465 35.12a1.464 1.464 0 01.079-2.1c.582-.526 1.516-.472 2.082.12l4.245 4.446c.91.954 2.524.307 2.524-1.011V10.352a1.47 1.47 0 011.518-1.465c.79.022 1.434.706 1.434 1.525 0 16.12-.028 8.813-.028 17.518 0 .811.661 1.472 1.479 1.464a1.464 1.464 0 001.479-1.464v-4.673a1.466 1.466 0 011.437-1.186c.808 0 1.465.657 1.465 1.464v4.395a1.465 1.465 0 102.93 0v-2.441c0-.808.657-1.465 1.464-1.465.808 0 1.465.657 1.465 1.465v2.441a1.465 1.465 0 102.93 0v-.488c0-.808.657-1.465 1.465-1.465.807 0 1.465.657 1.465 1.465v15.234z"/></g><defs><clipPath id="clip0"><path fill="#fff" d="M0 0h50v50H0z"/></clipPath></defs></svg>