<svg width="50" height="50" fill="none" xmlns="http://www.w3.org/2000/svg"><path d="M41.15 6.55h-4.99V4.528c0-.654-.787-.952-1.51-.952h-3.873c-.92-2.38-3.218-3.571-5.844-3.571-2.597-.089-4.96 1.355-5.843 3.571h-3.808c-.723 0-1.445.298-1.445.952v2.024h-4.99c-2.957.029-5.376 2.143-5.515 4.821v34.105C3.332 48.095 5.958 50 8.847 50H41.15c2.89 0 5.515-1.905 5.515-4.523V11.372c-.139-2.678-2.558-4.792-5.515-4.821zm-24.687-.594h3.611c.63-.07 1.137-.505 1.248-1.072.389-1.535 1.874-2.636 3.611-2.678 1.72.047 3.184 1.153 3.546 2.678.117.587.657 1.027 1.313 1.072h3.742v4.761h-17.07V5.956zm27.576 39.52c0 1.31-1.444 2.143-2.889 2.143H8.847c-1.444 0-2.889-.833-2.889-2.142V11.372c.134-1.363 1.38-2.415 2.89-2.44h4.99v3.035c.069.667.706 1.166 1.444 1.131H34.65c.752.037 1.409-.455 1.51-1.13V8.931h4.99c1.51.025 2.755 1.077 2.889 2.44v34.105z" fill="#1B1A1F"/><path d="M20.41 26.608a1.19 1.19 0 00-1.666-.06l-3.81 3.632-1.606-1.667a1.19 1.19 0 00-1.667-.06 1.25 1.25 0 000 1.727l2.44 2.5c.212.236.517.367.834.356a1.19 1.19 0 00.833-.357l4.642-4.404a1.13 1.13 0 000-1.667zm17.087 2.56h-13.69a1.19 1.19 0 100 2.38h13.69a1.19 1.19 0 100-2.38zM20.41 17.084a1.19 1.19 0 00-1.666-.06l-3.81 3.631-1.606-1.666a1.19 1.19 0 00-1.667-.06 1.25 1.25 0 000 1.726l2.44 2.5c.212.236.517.367.834.357a1.19 1.19 0 00.833-.357l4.642-4.404a1.13 1.13 0 000-1.667zm17.087 2.564h-13.69a1.19 1.19 0 100 2.381h13.69a1.19 1.19 0 100-2.38zM20.41 36.133a1.19 1.19 0 00-1.666-.06l-3.81 3.631-1.606-1.667a1.19 1.19 0 00-1.667-.06 1.25 1.25 0 000 1.727l2.44 2.5c.212.236.517.367.834.357a1.19 1.19 0 00.833-.357l4.642-4.405a1.13 1.13 0 000-1.666zm17.087 2.558h-13.69a1.19 1.19 0 100 2.381h13.69a1.19 1.19 0 000-2.38z" fill="#1B1A1F"/></svg>