<svg width="50" height="50" fill="none" xmlns="http://www.w3.org/2000/svg"><path d="M38.889 0h-6.945C29.108 0 26.585 1.384 25 3.521 23.415 1.384 20.892 0 18.056 0H11.11c-.959 0-1.736.787-1.736 1.758v21.094c0 .97.777 1.757 1.736 1.757h10.417a1.75 1.75 0 011.736 1.758c0 .971.777 1.758 1.736 1.758s1.736-.787 1.736-1.758c0-.97.779-1.758 1.736-1.758H38.89c.959 0 1.736-.787 1.736-1.757V1.758A1.748 1.748 0 0038.889 0zM23.264 21.395a5.128 5.128 0 00-1.736-.301h-8.68V3.516h5.208c2.871 0 5.208 2.365 5.208 5.273v12.606zm13.889-.301h-8.68a5.15 5.15 0 00-1.737.3V8.79c0-2.908 2.337-5.273 5.208-5.273h5.209v17.578zm-23.09 25.067l2.861-4.687h4.991l-2.861 4.687h10.634l-1.603-4.687h4.99l1.604 4.687h3.084c1.233 0 2.862.601 2.862 1.896 0 1.294-1 1.943-2.232 1.943H11.607c-1.233 0-2.232-.649-2.232-1.943 0-1.295.37-1.896 1.603-1.896h3.085z" fill="#1B1A1F"/><path fill-rule="evenodd" clip-rule="evenodd" d="M6.251 9.688a2.05 2.05 0 00-2.05 2.05v24.2a4.375 4.375 0 004.375 4.375h32.05a4.375 4.375 0 004.375-4.375v-25c0-.69-.56-1.25-1.25-1.25a1.875 1.875 0 110-3.75 5 5 0 015 5v25a8.125 8.125 0 01-8.125 8.125H8.576a8.125 8.125 0 01-8.125-8.125v-24.2a5.8 5.8 0 015.8-5.8 1.875 1.875 0 110 3.75z" fill="#1B1A1F"/></svg>