<svg width="50" height="50" fill="none" xmlns="http://www.w3.org/2000/svg"><path fill-rule="evenodd" clip-rule="evenodd" d="M18.378 18.38a1.786 1.786 0 012.526 0l4.094 4.095 4.095-4.095a1.786 1.786 0 012.525 2.526L27.524 25l4.094 4.095a1.786 1.786 0 01-2.525 2.525l-4.095-4.094-4.094 4.094a1.786 1.786 0 11-2.526-2.525L22.473 25l-4.095-4.094a1.786 1.786 0 010-2.526z" fill="#1B1A1F"/><path fill-rule="evenodd" clip-rule="evenodd" d="M25 46.429c11.835 0 21.429-9.594 21.429-21.429 0-11.835-9.594-21.429-21.429-21.429C13.165 3.571 3.571 13.165 3.571 25c0 11.835 9.594 21.429 21.429 21.429zM25 50c13.807 0 25-11.193 25-25S38.807 0 25 0 0 11.193 0 25s11.193 25 25 25z" fill="#1B1A1F"/></svg>