<svg width="50" height="50" fill="none" xmlns="http://www.w3.org/2000/svg"><g clip-path="url(#clip0)" fill="#1B1A1F"><path d="M4.271 49.758c.564.348-2.152.219 39.87.219A5.865 5.865 0 0050 44.12v-4.393c0-.808-.656-1.464-1.465-1.464h-3.418V6.121A6.13 6.13 0 0038.993 0H1.465C.655 0 0 .656 0 1.464V44.12a5.82 5.82 0 001.716 4.141 5.836 5.836 0 002.555 1.496zm42.8-5.638a2.932 2.932 0 01-2.93 2.928H10.932a5.82 5.82 0 00.787-2.928v-2.928H47.07v2.928zM2.93 2.928h36.063a3.198 3.198 0 013.194 3.194v32.141H10.255c-.81 0-1.465.656-1.465 1.465v4.317c0 2.657-3.155 3.992-5.001 2.146a2.909 2.909 0 01-.858-2.071V2.928z"/><path d="M10.611 11.81h23.896a1.465 1.465 0 100-2.93H10.61a1.465 1.465 0 100 2.93zm0 6.834h23.896a1.465 1.465 0 100-2.928H10.61a1.465 1.465 0 100 2.928zm0 6.83h23.896a1.465 1.465 0 100-2.928H10.61a1.465 1.465 0 100 2.928zm0 6.836h23.896a1.465 1.465 0 100-2.93H10.61a1.464 1.464 0 100 2.93z"/></g><defs><clipPath id="clip0"><path fill="#fff" d="M0 0h50v50H0z"/></clipPath></defs></svg>