<svg width="19" height="19" fill="none" xmlns="http://www.w3.org/2000/svg"><g clip-path="url(#clip0)"><path d="M18.485 3.428L15.572.515a1.755 1.755 0 00-2.484 0L1.652 11.951a.626.626 0 00-.165.293l-1.468 5.98a.627.627 0 00.758.758l5.979-1.468a.626.626 0 00.293-.166L18.485 5.912a1.755 1.755 0 000-2.484zM1.483 17.518l.06-.244.183.184-.243.06zm1.667-.41l-1.258-1.257.547-2.227 2.938 2.937-2.227.547zm3.456-1.09l-3.624-3.624 9.36-9.36 3.623 3.625-9.359 9.36zM17.6 5.026l-.724.724-3.624-3.625.723-.723a.503.503 0 01.711 0L17.6 4.315a.503.503 0 010 .71z" fill="#fff"/></g><defs><clipPath id="clip0"><path fill="#fff" d="M0 0h19v19H0z"/></clipPath></defs></svg>