<svg width="50" height="50" fill="none" xmlns="http://www.w3.org/2000/svg"><g clip-path="url(#clip0)"><path d="M37.496.01L31.013 0C23.728 0 19.02 4.83 19.02 12.305v5.673H12.5a1.02 1.02 0 00-1.019 1.02v8.22c0 .564.457 1.02 1.02 1.02h6.519V48.98c0 .563.456 1.02 1.02 1.02h8.505a1.02 1.02 0 001.02-1.02V28.238h7.622a1.02 1.02 0 001.02-1.02l.003-8.22a1.021 1.021 0 00-1.02-1.02h-7.625v-4.81c0-2.31.55-3.484 3.562-3.484l4.367-.002a1.02 1.02 0 001.02-1.02V1.03A1.02 1.02 0 0037.495.01z" fill="#1B1A1F"/></g><defs><clipPath id="clip0"><path fill="#fff" d="M0 0h49.999v49.999H0z"/></clipPath></defs></svg>