<svg width="50" height="50" fill="none" xmlns="http://www.w3.org/2000/svg"><path d="M41.113 7.324C41.113 3.286 37.828 0 33.79 0s-7.324 3.286-7.324 7.324c0 4.039 3.285 7.324 7.324 7.324s7.324-3.285 7.324-7.324zM33.79 11.72a4.4 4.4 0 01-4.395-4.395A4.4 4.4 0 0133.79 2.93a4.4 4.4 0 014.395 4.394 4.4 4.4 0 01-4.395 4.395z" fill="#1B1A1F"/><path d="M5.957 48.535c0 .81.656 1.465 1.465 1.465h35.156c.81 0 1.465-.656 1.465-1.465V35.147a14.573 14.573 0 002.93-8.78c0-6.462-5.257-11.719-11.72-11.719H27.93A4.377 4.377 0 0025 15.77a4.377 4.377 0 00-2.93-1.122h-7.324c-6.462 0-11.719 5.258-11.719 11.72 0 3.29 1.091 6.33 2.93 8.779v13.388zm2.93-10.456a14.572 14.572 0 008.789 2.937v6.054h-8.79v-8.992zm14.648-1.458a4.4 4.4 0 00-2.5-3.965 1.46 1.46 0 011.035-.43h5.86c.404 0 .77.165 1.035.43a4.4 4.4 0 00-2.5 3.965 4.402 4.402 0 002.93 4.143v6.306h-8.79v-6.306a4.402 4.402 0 002.93-4.143zm8.79 10.45v-6.055c3.294 0 6.338-1.094 8.788-2.938v8.992h-8.789zM25 20.507a2.933 2.933 0 012.93 2.93 2.933 2.933 0 01-2.93 2.93 2.933 2.933 0 01-2.93-2.93 2.933 2.933 0 012.93-2.93zm-10.254-2.93h7.324c.36 0 .69.131.945.347a5.869 5.869 0 00-3.874 5.512A5.866 5.866 0 0025 29.296c3.23 0 5.86-2.629 5.86-5.86a5.869 5.869 0 00-3.875-5.512 1.46 1.46 0 01.945-.347h7.324c4.846 0 8.789 3.943 8.789 8.79 0 6.46-5.257 11.718-11.719 11.718H30.86a1.467 1.467 0 01-1.465-1.465c0-.808.658-1.465 1.465-1.465h1.465c4.846 0 8.79-3.942 8.79-8.789a1.465 1.465 0 00-2.93 0 5.867 5.867 0 01-5.86 5.86h-.252a4.401 4.401 0 00-4.142-2.93h-5.86a4.401 4.401 0 00-4.142 2.93h-.252a5.866 5.866 0 01-5.86-5.86 1.465 1.465 0 00-2.93 0c0 4.846 3.944 8.79 8.79 8.79h1.465c.807 0 1.465.656 1.465 1.464 0 .808-.658 1.465-1.465 1.465h-1.465c-6.462 0-11.719-5.257-11.719-11.719 0-4.846 3.943-8.789 8.79-8.789z" fill="#1B1A1F"/><path d="M23.535 7.324C23.535 3.286 20.25 0 16.211 0S8.887 3.286 8.887 7.324c0 4.039 3.285 7.324 7.324 7.324s7.324-3.285 7.324-7.324zm-7.324 4.395a4.4 4.4 0 01-4.395-4.395 4.4 4.4 0 014.395-4.394 4.4 4.4 0 014.395 4.394 4.4 4.4 0 01-4.395 4.395z" fill="#1B1A1F"/></svg>