<svg width="50" height="50" fill="none" xmlns="http://www.w3.org/2000/svg"><path d="M16.923 50c-5.558-18.315 6.186-25.003 6.186-25.003-.822 9.773 4.732 17.387 4.732 17.387 2.043-.616 5.941-3.496 5.941-3.496 0 3.496-2.057 11.107-2.057 11.107s7.201-5.568 9.468-14.817c2.264-9.248-4.312-18.533-4.312-18.533a24.8 24.8 0 01-6.157 17.902c.217-.25.4-.528.54-.83.779-1.559 2.03-5.61 1.297-14.993C31.53 5.554 19.596 0 19.596 0c1.029 8.025-2.055 9.873-9.28 25.105C3.09 40.335 16.923 50 16.923 50z" fill="#1B1A1F"/></svg>