<svg width="50" height="50" fill="none" xmlns="http://www.w3.org/2000/svg"><path d="M44.147 30.289a4.402 4.402 0 00-5.001-.858l-.226-.226c5.274-6.324 4.945-15.771-.988-21.705-5.934-5.934-15.381-6.262-21.706-.988L16 6.286a4.402 4.402 0 00-.857-5.001 4.4 4.4 0 00-6.215 0 4.401 4.401 0 00-.652 5.383 21.975 21.975 0 0012.236 33.358c-2.545 1.95-4.23 5.07-4.23 8.509 0 .809.657 1.465 1.466 1.465h17.579c.809 0 1.465-.656 1.465-1.465 0-3.439-1.684-6.558-4.228-8.508a21.887 21.887 0 006.2-2.871 4.4 4.4 0 005.383-.652 4.4 4.4 0 000-6.215zm-9.38-21.695l-3.075 3.074c-2.545-2.316-5.755-4.437-9.054-5.365 4.08-1.256 8.647-.494 12.128 2.29zm-11.31 15.453l3.08-3.081 7.948 7.948c-1.005.215-2.32.078-3.822-.423-2.36-.786-4.879-2.345-7.207-4.444zm6.983 7.438c-4.08 1.257-8.653.493-12.132-2.29l3.075-3.074c2.554 2.324 5.757 4.437 9.057 5.364zm-1.831-12.59l3.08-3.082c3.807 4.217 5.393 8.564 4.867 11.028l-7.947-7.947zm-9.025-10.12c3.418 0 7.503 2.684 10.034 4.967l-3.08 3.08-7.95-7.948c.305-.066.637-.1.996-.1zm-3.065 2.173l7.946 7.946-3.08 3.081c-3.807-4.217-5.393-8.564-4.866-11.027zm2.792 13.1l-3.074 3.075c-2.783-3.478-3.547-8.05-2.291-12.128.929 3.304 3.055 6.515 5.365 9.054zm-8.312-20.69a1.464 1.464 0 112.074 2.072A1.464 1.464 0 0111 3.356zM33.721 47.07H19.353c.674-3.484 3.69-6.202 7.184-6.202s6.51 2.718 7.184 6.202zm3.18-12.195c-7.44 4.83-17.473 3.843-23.83-2.515-6.357-6.357-7.345-16.39-2.514-23.83a4.409 4.409 0 003.372-.173l.226.226c-5.274 6.325-4.946 15.772.988 21.705 5.925 5.925 15.37 6.272 21.705.989l.226.225a4.416 4.416 0 00-.173 3.373zm-3.138-21.136l3.075-3.074c2.783 3.479 3.546 8.05 2.29 12.129-.929-3.305-3.054-6.516-5.365-9.055zm8.312 20.693A1.464 1.464 0 1140 32.36a1.464 1.464 0 012.074 2.072z" fill="#1B1A1F"/></svg>