<svg width="20" height="20" fill="none" xmlns="http://www.w3.org/2000/svg"><g clip-path="url(#clip0)" fill="#572FFF"><path d="M19.243 8.261h-8.158a.652.652 0 00-.652.652v2.606c0 .36.292.652.652.652h4.594a6.133 6.133 0 01-2.64 3.094l1.96 3.39c3.141-1.816 5-5.005 5-8.575 0-.508-.038-.871-.113-1.28a.655.655 0 00-.643-.539z"/><path d="M10 16.087a6.086 6.086 0 01-5.265-3.046l-3.391 1.954A9.987 9.987 0 0015 18.66v-.005l-1.96-3.39a6.041 6.041 0 01-3.04.822z"/><path d="M15 18.66v-.004l-1.959-3.391a6.042 6.042 0 01-3.041.822V20a9.983 9.983 0 005-1.34zM3.913 10c0-1.108.302-2.145.822-3.041l-3.39-1.955A9.896 9.896 0 000 10c0 1.818.488 3.525 1.344 4.995l3.391-1.954A6.041 6.041 0 013.913 10z"/><path d="M10 3.913c1.466 0 2.812.521 3.864 1.388a.65.65 0 00.874-.04l1.847-1.846a.657.657 0 00-.038-.961A9.97 9.97 0 0010 0a9.987 9.987 0 00-8.656 5.005l3.39 1.954A6.086 6.086 0 0110 3.913z"/><path d="M13.864 5.3a.65.65 0 00.875-.039l1.846-1.846a.657.657 0 00-.037-.961A9.97 9.97 0 0010 0v3.913c1.466 0 2.813.521 3.864 1.388z"/></g><defs><clipPath id="clip0"><path fill="#fff" d="M0 0h20v20H0z"/></clipPath></defs></svg>