<svg width="50" height="50" fill="none" xmlns="http://www.w3.org/2000/svg"><g clip-path="url(#clip0)"><path d="M49.06 17.315L25.622 7.158a1.562 1.562 0 00-1.242 0L.939 17.315c-1.252.543-1.252 2.325 0 2.868l8.435 3.654v9.757c0 5.257 6.864 9.375 15.626 9.375s15.626-4.118 15.626-9.375v-9.757l1.563-.677v16.684a1.563 1.563 0 003.125 0V21.806l3.747-1.623c1.252-.543 1.252-2.325 0-2.868zM25 10.295l19.51 8.454-1.548.67-17.768-2.22a1.563 1.563 0 00-.388 3.1l12.515 1.565L25 27.203c-11.022-4.776-8.674-3.76-19.51-8.454L25 10.295zm12.5 23.299c0 1.472-1.207 2.988-3.314 4.158-5.018 2.788-13.339 2.796-18.371 0-2.107-1.17-3.316-2.686-3.316-4.158v-8.402l11.88 5.148c.395.171.845.172 1.242 0l11.88-5.148v8.402z" fill="#1B1A1F"/></g><defs><clipPath id="clip0"><path fill="#fff" d="M0 0h50v50H0z"/></clipPath></defs></svg>