<svg width="50" height="50" fill="none" xmlns="http://www.w3.org/2000/svg"><path d="M46.094 22.666v-1.572a20.956 20.956 0 00-6.178-14.916A20.956 20.956 0 0025 0a20.956 20.956 0 00-14.915 6.178 20.956 20.956 0 00-6.179 14.916v1.572A5.38 5.38 0 000 27.832v7.813a5.377 5.377 0 005.371 5.37h5.86c.809 0 1.464-.655 1.464-1.464V21.094c0-6.785 5.52-12.305 12.305-12.305s12.305 5.52 12.305 12.305V39.55c0 .809.656 1.465 1.465 1.465h2.44v1.66c0 .807-.656 1.465-1.464 1.465H30.12a4.401 4.401 0 00-4.142-2.93h-1.954a4.4 4.4 0 00-4.394 4.395A4.4 4.4 0 0024.023 50h1.954a4.401 4.401 0 004.142-2.93h9.627a4.4 4.4 0 004.395-4.394v-1.66h.488A5.377 5.377 0 0050 35.645v-7.813a5.38 5.38 0 00-3.906-5.166zM25.977 47.07h-1.954a1.466 1.466 0 01-1.464-1.465c0-.807.657-1.464 1.464-1.464h1.954c.807 0 1.464.657 1.464 1.465 0 .807-.657 1.464-1.464 1.464zM9.766 38.086H5.37a2.444 2.444 0 01-2.441-2.441v-7.813a2.444 2.444 0 012.441-2.441h4.395v12.695zM25 5.859c-8.4 0-15.234 6.835-15.234 15.235v1.367h-2.93v-1.367C6.836 11.078 14.984 2.93 25 2.93c10.016 0 18.164 8.148 18.164 18.164v1.367h-2.93v-1.367c0-8.4-6.834-15.235-15.234-15.235zm22.07 29.785a2.444 2.444 0 01-2.441 2.442h-4.395V25.39h4.395a2.444 2.444 0 012.441 2.441v7.813z" fill="#1B1A1F"/><path d="M27.97 36.77a1.464 1.464 0 002.402-1.126v-3.417h.488a3.422 3.422 0 003.418-3.418v-7.813a3.422 3.422 0 00-3.418-3.418H19.142a3.422 3.422 0 00-3.418 3.418v7.813a3.422 3.422 0 003.418 3.418h3.375l5.452 4.543zm-9.317-7.961v-7.813c0-.27.22-.488.489-.488H30.86c.27 0 .489.219.489.488v7.813a.49.49 0 01-.489.488h-1.953c-.809 0-1.465.656-1.465 1.465v1.755l-3.456-2.88a1.465 1.465 0 00-.938-.34h-3.906a.489.489 0 01-.489-.488z" fill="#1B1A1F"/><path d="M26.954 26.367a1.465 1.465 0 000-2.93h-3.906a1.465 1.465 0 000 2.93h3.906z" fill="#1B1A1F"/></svg>