<svg width="50" height="50" fill="none" xmlns="http://www.w3.org/2000/svg"><path d="M50 33.838c0-7.288-4.91-13.656-11.836-15.574C37.73 8.119 29.341 0 19.092 0 8.564 0 0 8.564 0 19.092c0 3.43.913 6.771 2.647 9.704L.07 38.113l9.318-2.577a19.021 19.021 0 008.875 2.628C20.182 45.089 26.55 50 33.838 50c2.909 0 5.738-.775 8.224-2.247l7.867 2.176-2.176-7.867A16.104 16.104 0 0050 33.838zm-40.15-1.47l-5.578 1.543 1.543-5.577-.352-.55a16.108 16.108 0 01-2.533-8.692c0-8.912 7.25-16.162 16.162-16.162 8.912 0 16.162 7.25 16.162 16.162 0 8.912-7.25 16.162-16.162 16.162-3.093 0-6.098-.876-8.692-2.534l-.55-.352zm35.878 13.36l-4.139-1.145-.553.36a13.181 13.181 0 01-7.198 2.127c-5.728 0-10.762-3.703-12.545-9.014 8.771-1.011 15.752-7.992 16.763-16.763 5.31 1.783 9.014 6.817 9.014 12.545 0 2.566-.736 5.056-2.127 7.198l-.36.553 1.145 4.139z" fill="#1B1A1F"/><path d="M17.629 26.465h2.93v2.93h-2.93v-2.93zm4.391-11.817a2.9 2.9 0 01-.954 2.163l-3.441 3.15v3.574h2.93V21.25l2.489-2.278a5.876 5.876 0 001.905-4.324 5.866 5.866 0 00-5.86-5.859 5.866 5.866 0 00-5.858 5.86h2.93a2.933 2.933 0 012.929-2.93 2.933 2.933 0 012.93 2.93z" fill="#1B1A1F"/></svg>