<svg width="50" height="50" fill="none" xmlns="http://www.w3.org/2000/svg"><path d="M24.999 5.86a1.465 1.465 0 000 2.93c4.847 0 8.79 3.942 8.79 8.788a1.465 1.465 0 002.93 0C36.72 11.116 31.462 5.86 25 5.86z" fill="#1B1A1F"/><path d="M21.223.392C14.605 1.775 9.24 7.09 7.827 13.75c-1.192 5.624.277 11.27 4.03 15.49 1.836 2.062 2.888 4.785 2.888 7.478v2.93a4.401 4.401 0 003.037 4.178c.578 3.42 3.547 6.173 7.217 6.173 3.669 0 6.638-2.752 7.218-6.173a4.402 4.402 0 003.036-4.179v-2.93c0-2.697 1.056-5.388 2.973-7.575a17.539 17.539 0 004.351-11.565c0-11.09-10.151-19.524-21.354-17.184zM25 47.068c-1.883 0-3.534-1.295-4.144-3.037h8.288c-.61 1.742-2.26 3.037-4.144 3.037zm7.324-7.422c0 .808-.657 1.465-1.465 1.465H19.14a1.467 1.467 0 01-1.465-1.465v-1.465h14.648v1.465zm3.7-12.436c-2.043 2.331-3.3 5.142-3.62 8.042H17.596a14.477 14.477 0 00-3.548-7.96c-3.129-3.518-4.351-8.232-3.354-12.935 1.164-5.49 5.636-9.949 11.13-11.097C31.2 1.3 39.648 8.343 39.648 17.576c0 3.546-1.288 6.968-3.625 9.634zM4.395 17.578h-2.93a1.465 1.465 0 000 2.93h2.93a1.465 1.465 0 100-2.93zm.607-7.328L2.93 8.18a1.465 1.465 0 10-2.07 2.071l2.071 2.071a1.465 1.465 0 102.072-2.071zm0 15.507a1.465 1.465 0 00-2.072 0L.86 27.83a1.465 1.465 0 102.07 2.07l2.072-2.071c.572-.572.572-1.5 0-2.072zm43.533-8.179h-2.93a1.465 1.465 0 000 2.93h2.93a1.465 1.465 0 000-2.93zm.608-9.398a1.465 1.465 0 00-2.072 0l-2.072 2.07a1.465 1.465 0 102.072 2.072l2.072-2.071c.572-.572.572-1.5 0-2.072zm0 19.649l-2.072-2.072a1.465 1.465 0 10-2.072 2.072l2.072 2.071a1.465 1.465 0 002.072-2.071z" fill="#1B1A1F"/></svg>