<svg width="50" height="50" fill="none" xmlns="http://www.w3.org/2000/svg"><g clip-path="url(#clip0)" fill="#1B1A1F"><path d="M1.465 46.429h15.543a5.046 5.046 0 004.82 3.572h6.345a5.046 5.046 0 004.819-3.572h15.543a1.465 1.465 0 000-2.93h-.886v-5.108c0-.946-.884-1.644-1.803-1.426-2.343.557-3.897.834-5.895.808-3.416-.045-4.876-.728-8.936-1.041-2.609-.201-4.725 1.004-6.073 2.717-1.348-1.713-3.465-2.918-6.073-2.717-4.05.312-5.526.996-8.936 1.04-1.997.026-3.552-.25-5.895-.807a1.466 1.466 0 00-1.803 1.426v5.108h-.77a1.465 1.465 0 000 2.93zm3.7-6.21c1.493.303 3.01.507 4.807.483 3.697-.049 5.234-.75 9.123-1.05 1.411-.108 3.757.702 4.426 3.38v.002c.365 1.443 2.463 1.501 2.842 0v-.002c.67-2.678 3.014-3.488 4.427-3.38 3.889.3 5.424 1.001 9.122 1.05 1.797.024 3.314-.18 4.807-.483v3.28H31.745c-.809 0-1.465.656-1.465 1.465a2.11 2.11 0 01-2.107 2.107h-6.346a2.11 2.11 0 01-2.107-2.107c0-.81-.656-1.465-1.465-1.465H5.165v-3.28zm18.314-6.365h3.016c2.33 0 4.238-1.832 4.254-4.083l.023-3.073c.42-2.636 1.473-5.088 3.13-7.287a11.04 11.04 0 002.237-6.697c0-6.27-5.131-11.227-11.298-11.139-6.003.084-10.893 4.966-10.98 10.972a11.036 11.036 0 002.26 6.896 16.02 16.02 0 013.104 7.236v3.062c0 2.268 1.908 4.113 4.254 4.113zm4.34-4.105c-.005.648-.598 1.176-1.324 1.176h-3.017c-.73 0-1.323-.531-1.323-1.184v-1.746h5.677l-.013 1.754zm-11.03-17.16c.065-4.396 3.695-8.023 8.093-8.084a8.206 8.206 0 018.327 8.209c0 1.798-.57 3.504-1.648 4.934-1.7 2.259-2.861 4.749-3.459 7.417h-1.638v-8.493a1.465 1.465 0 00-2.93 0v8.493H21.9a18.935 18.935 0 00-3.446-7.393 8.134 8.134 0 01-1.664-5.082zm-5.761-1.321c0-.81-.655-1.465-1.465-1.465H4.68a1.465 1.465 0 000 2.93h4.883c.81 0 1.465-.656 1.465-1.465zm28.028 8.583l4.208 2.48a1.465 1.465 0 001.487-2.525l-4.207-2.479a1.465 1.465 0 10-1.488 2.524zm-32.324 2.48l4.208-2.479a1.465 1.465 0 10-1.487-2.524l-4.208 2.479a1.465 1.465 0 101.487 2.524zM40.545 5.206l4.207-2.479A1.465 1.465 0 1043.265.203l-4.208 2.479a1.465 1.465 0 101.488 2.524zM10.94 2.682L6.732.203a1.465 1.465 0 00-1.487 2.524l4.208 2.48a1.465 1.465 0 101.487-2.525zm35.85 8.586c0-.81-.656-1.465-1.465-1.465h-4.884a1.465 1.465 0 000 2.93h4.884c.81 0 1.465-.656 1.465-1.465z"/></g><defs><clipPath id="clip0"><path fill="#fff" d="M0 0h50v50H0z"/></clipPath></defs></svg>