<svg width="50" height="50" fill="none" xmlns="http://www.w3.org/2000/svg"><path d="M25 17.848c-1.242 0-2.125.524-2.125 1.297V29.66c0 .662.883 1.325 2.125 1.325 1.187 0 2.153-.663 2.153-1.325V19.145c0-.773-.966-1.297-2.153-1.297zm.001-6.483c-1.27 0-2.263.911-2.263 1.96s.994 1.987 2.263 1.987c1.242 0 2.236-.938 2.236-1.987 0-1.049-.994-1.96-2.236-1.96z" fill="#1B1A1F"/><path d="M25 0C13.125 0 3.516 9.604 3.516 21.472c0 9.69 6.38 17.737 14.982 20.47l4.886 7.202a1.953 1.953 0 003.232 0l4.886-7.202c8.606-2.734 14.982-10.784 14.982-20.47C46.484 9.597 36.867 0 25 0zm4.75 38.389a1.953 1.953 0 00-1.09.784L25 44.568l-3.66-5.395a1.953 1.953 0 00-1.09-.784C12.927 36.34 7.422 29.607 7.422 21.472c0-9.686 7.885-17.566 17.578-17.566s17.578 7.88 17.578 17.566c0 8.144-5.514 14.872-12.828 16.917z" fill="#1B1A1F"/></svg>