<svg width="50" height="50" fill="none" xmlns="http://www.w3.org/2000/svg"><g clip-path="url(#clip0)" fill="#1B1A1F"><path d="M36.465 0h-22.93C6.07 0 0 6.071 0 13.534v22.931C0 43.928 6.071 50 13.534 50h22.931C43.928 50 50 43.928 50 36.465v-22.93C50 6.07 43.928 0 36.465 0zM25 38.67c-7.539 0-13.672-6.132-13.672-13.67 0-7.539 6.133-13.672 13.672-13.672 7.538 0 13.67 6.133 13.67 13.672 0 7.538-6.132 13.67-13.67 13.67zm13.998-24.118a4.044 4.044 0 01-4.04-4.04 4.044 4.044 0 014.04-4.04 4.045 4.045 0 014.04 4.04 4.044 4.044 0 01-4.04 4.04z"/><path d="M24.998 14.259c-5.922 0-10.74 4.818-10.74 10.74 0 5.922 4.818 10.74 10.74 10.74 5.922 0 10.74-4.818 10.74-10.74 0-5.922-4.818-10.74-10.74-10.74zM39 9.404a1.11 1.11 0 00-1.11 1.109 1.11 1.11 0 002.218 0A1.11 1.11 0 0039 9.404z"/></g><defs><clipPath id="clip0"><path fill="#fff" d="M0 0h49.999v49.999H0z"/></clipPath></defs></svg>