<svg width="50" height="50" fill="none" xmlns="http://www.w3.org/2000/svg"><g clip-path="url(#clip0)"><path d="M49.783 41.702c-.025-.064.355.76-5.35-11.556V6.936a2.933 2.933 0 00-2.93-2.93H8.5a2.933 2.933 0 00-2.93 2.93v23.21L.253 41.615c-.393.851-.35 2.055.3 3.006a3.149 3.149 0 002.6 1.372h43.695c2.21 0 3.74-2.225 2.936-4.292zM8.5 6.936h33.004v22.068H8.5V6.936zm11.463 36.129l1.038-3.32h8.001l1.038 3.32H19.964zm26.884 0H33.109l-1.632-5.222a1.465 1.465 0 00-1.398-1.028H19.924c-.64 0-1.207.417-1.398 1.028l-1.631 5.222H3.152a.22.22 0 01-.214-.276l5.033-10.856h34.062l5.028 10.855a.22.22 0 01-.214.277z" fill="#1B1A1F"/></g><defs><clipPath id="clip0"><path fill="#fff" d="M0 0h50v50H0z"/></clipPath></defs></svg>