<svg width="18" height="18" fill="none" xmlns="http://www.w3.org/2000/svg"><g clip-path="url(#clip0)" fill="#1B1A1F"><path d="M17.437 8.437h-7.125a.563.563 0 010-1.124h7.125a.563.563 0 010 1.124z"/><path d="M14.625 11.25a.563.563 0 01-.398-.96l2.415-2.415-2.415-2.415a.563.563 0 11.796-.796l2.813 2.812c.22.22.22.576 0 .796l-2.813 2.812a.559.559 0 01-.398.166zM6 18c-.16 0-.313-.022-.465-.07L1.02 16.428A1.514 1.514 0 010 15V1.5C0 .673.673 0 1.5 0c.16 0 .313.022.465.07l4.513 1.503A1.514 1.514 0 017.5 3.001v13.5c0 .827-.673 1.5-1.5 1.5zM1.5 1.126a.376.376 0 00-.375.375v13.5c0 .16.107.308.26.361l4.492 1.497c.033.01.075.016.123.016a.376.376 0 00.375-.375V3a.39.39 0 00-.26-.36L1.622 1.141a.407.407 0 00-.122-.016z"/><path d="M11.437 6a.563.563 0 01-.562-.562V2.063a.939.939 0 00-.938-.937H1.5A.563.563 0 011.5 0h8.437A2.066 2.066 0 0112 2.063v3.375c0 .31-.252.563-.563.563zm-1.5 9.75h-3a.563.563 0 010-1.125h3c.516 0 .937-.42.937-.938v-3.374a.563.563 0 011.125 0v3.374a2.064 2.064 0 01-2.063 2.063z"/></g><defs><clipPath id="clip0"><path fill="#fff" d="M0 0h18v18H0z"/></clipPath></defs></svg>