<svg width="50" height="50" fill="none" xmlns="http://www.w3.org/2000/svg"><path d="M34.282 14.1H21.864a1.981 1.981 0 100 3.963h12.418a1.98 1.98 0 100-3.963zm4.755 9.582H21.864a1.981 1.981 0 100 3.963h17.173a1.981 1.981 0 100-3.963z" fill="#1B1A1F"/><path d="M48.019 1.685H12.946a1.981 1.981 0 00-1.982 1.981v18.692h-3.5C3.348 22.358 0 25.707 0 29.822v11.03c0 4.116 3.348 7.464 7.464 7.464.336 0 .668-.023.992-.066H41.15c4.88 0 8.851-3.97 8.851-8.85V3.665a1.981 1.981 0 00-1.981-1.981zM10.964 40.852a3.507 3.507 0 01-2.823 3.435h-.677v.066c-1.93 0-3.5-1.57-3.5-3.5V29.821c0-1.93 1.57-3.5 3.5-3.5h3.5v14.53zM46.037 39.4c0 2.65-2.238 4.888-4.888 4.888H14.09a7.415 7.415 0 00.838-3.435V5.648h31.11v33.751z" fill="#1B1A1F"/><path d="M34.282 32.66H21.864a1.981 1.981 0 100 3.963h12.418a1.98 1.98 0 100-3.963z" fill="#1B1A1F"/></svg>