<svg width="50" height="50" fill="none" xmlns="http://www.w3.org/2000/svg"><g clip-path="url(#clip0)"><path d="M50 36.719a4.401 4.401 0 00-2.93-4.143V13.184c0-2.008-1.27-3.88-3.316-4.888L29.607 1.379c-3.78-1.86-8.455-1.816-12.14-.002L3.313 8.297C1.269 9.303 0 11.176 0 13.184c0 2.008 1.27 3.88 3.317 4.888l5.57 2.723v10.064c0 2.18 1.68 4.126 4.731 5.482 2.673 1.188 6.195 1.843 9.917 1.843 3.722 0 7.244-.655 9.917-1.843 3.051-1.356 4.732-3.303 4.732-5.482V20.795l5.573-2.725c.132-.064.26-.133.384-.204v14.71a4.401 4.401 0 00-2.93 4.143c0 1.124.425 2.151 1.123 2.93a4.377 4.377 0 00-1.123 2.93v5.956c0 .81.656 1.465 1.465 1.465h5.86c.808 0 1.464-.656 1.464-1.465v-5.957a4.376 4.376 0 00-1.123-2.93A4.376 4.376 0 0050 36.718zm-14.746-5.86c0 .91-1.146 1.985-2.992 2.805-2.306 1.025-5.406 1.59-8.727 1.59-3.32 0-6.42-.565-8.727-1.59-1.845-.82-2.992-1.895-2.992-2.805v-8.632l5.647 2.761c1.833.902 3.932 1.38 6.072 1.38s4.24-.478 6.068-1.378l5.65-2.763v8.632zm7.213-15.429l-14.154 6.93c-1.432.705-3.084 1.078-4.778 1.078-1.693 0-3.346-.373-4.781-1.08L4.607 15.441c-1.05-.517-1.677-1.36-1.677-2.257s.627-1.741 1.673-2.256l14.154-6.92c2.91-1.433 6.626-1.443 9.56.001l14.147 6.917a3.51 3.51 0 011.072.793H29.072c-.788-1.723-2.94-2.93-5.537-2.93-3.285 0-5.86 1.93-5.86 4.395 0 2.464 2.575 4.394 5.86 4.394 2.598 0 4.749-1.216 5.537-2.94h14.464a3.504 3.504 0 01-1.07.792zm-16.002-2.246c0 .597-1.142 1.464-2.93 1.464-1.788 0-2.93-.867-2.93-1.464 0-.598 1.142-1.465 2.93-1.465 1.788 0 2.93.867 2.93 1.465zM47.07 47.07h-2.93v-4.492c0-.808.658-1.465 1.465-1.465.808 0 1.465.657 1.465 1.465v4.492zm-1.465-8.886a1.467 1.467 0 01-1.464-1.465c0-.808.657-1.465 1.465-1.465a1.466 1.466 0 01-.001 2.93z" fill="#1B1A1F"/></g><defs><clipPath id="clip0"><path fill="#fff" d="M0 0h50v50H0z"/></clipPath></defs></svg>