<svg width="50" height="50" fill="none" xmlns="http://www.w3.org/2000/svg"><path d="M48.535 11.816H37.402V3.125c0-.809-.656-1.465-1.465-1.465H1.465C.655 1.66 0 2.316 0 3.125v37.89c0 4.04 3.286 7.325 7.324 7.325h35.352c4.038 0 7.324-3.286 7.324-7.324V13.28c0-.809-.656-1.465-1.465-1.465zM7.325 45.41a4.4 4.4 0 01-4.395-4.394V4.59h31.543c0 38.717-.019 36.565.033 37.117a7.302 7.302 0 001.435 3.703H7.324zm39.745-4.394a4.4 4.4 0 01-4.394 4.394h-.88a4.4 4.4 0 01-4.394-4.394v-26.27h9.668v26.27z" fill="#1B1A1F"/><path d="M29.688 8.691H7.813a1.465 1.465 0 000 2.93h21.875a1.465 1.465 0 000-2.93zm0 6.25H7.813a1.465 1.465 0 000 2.93h21.875a1.465 1.465 0 000-2.93zm0 23.438H7.813a1.465 1.465 0 000 2.93h21.875a1.465 1.465 0 000-2.93zm0-17.188H18.75c-.809 0-1.465.656-1.465 1.465v10.938c0 .809.656 1.465 1.465 1.465h10.938c.809 0 1.464-.656 1.464-1.465V22.656c0-.809-.655-1.465-1.465-1.465zM28.223 32.13h-8.008v-8.01h8.008v8.008zm-20.41-5.665H12.5a1.465 1.465 0 100-2.93H7.812a1.465 1.465 0 100 2.93zm0 6.25H12.5a1.465 1.465 0 100-2.93H7.812a1.465 1.465 0 100 2.93z" fill="#1B1A1F"/></svg>