<svg width="50" height="50" fill="none" xmlns="http://www.w3.org/2000/svg"><path d="M46 37.625v-4.813c0-1.266-.619-2.487-1.697-3.35-.024-.02-.05-.038-.074-.057.619-.782.99-1.77.99-2.843a4.597 4.597 0 00-3.125-4.348V4.394A4.4 4.4 0 0037.699 0H12.31a4.4 4.4 0 00-4.395 4.395v17.819a4.597 4.597 0 00-3.125 4.349c0 1.074.372 2.062.992 2.845-1.088.84-1.773 2.055-1.773 3.404v4.813a4.4 4.4 0 00-3.906 4.367v3.614A4.4 4.4 0 004.496 50h41.016a4.4 4.4 0 004.394-4.395v-3.613A4.4 4.4 0 0046 37.625zm-15.625-.027v-4.785c0-1.267-.619-2.489-1.697-3.351-.024-.02-.05-.038-.074-.057.323-.409.578-.874.749-1.378h6.927c.17.505.427.971.751 1.38-1.088.841-1.773 2.056-1.773 3.405v4.786h-4.883zm-15.625 0v-4.785c0-1.267-.619-2.489-1.697-3.351l-.074-.057c.323-.409.578-.874.749-1.378h6.927c.17.505.427.971.751 1.38-1.088.841-1.773 2.056-1.773 3.405v4.786H14.75zm-7.813-4.785c0-.885 1.141-1.66 2.442-1.66.697 0 1.37.217 1.844.596.223.179.597.555.597 1.064v4.785H6.937v-4.785zm18.067-4.59a1.661 1.661 0 111.66-1.66c0 .915-.745 1.66-1.66 1.66zm-2.442 4.59c0-.885 1.141-1.66 2.442-1.66.697 0 1.37.217 1.844.596.223.179.597.555.597 1.064v4.785h-4.883v-4.785zm15.625 0c0-.885 1.141-1.66 2.442-1.66.698 0 1.37.217 1.844.596.223.179.597.555.597 1.064v4.785h-4.883v-4.785zm2.442-4.59c-.915 0-1.66-.745-1.66-1.66 0-.916.745-1.66 1.66-1.66.915 0 1.66.744 1.66 1.66 0 .915-.745 1.66-1.66 1.66zM12.309 2.93h25.39c.808 0 1.465.657 1.465 1.465v17.819a4.61 4.61 0 00-2.884 2.884h-6.927a4.597 4.597 0 00-4.35-3.125 4.597 4.597 0 00-4.348 3.125h-6.927a4.61 4.61 0 00-2.884-2.884V4.394c0-.807.657-1.464 1.465-1.464zm-4.59 23.633a1.661 1.661 0 013.32 0c0 .915-.745 1.66-1.66 1.66-.916 0-1.66-.745-1.66-1.66zm39.258 19.043c0 .807-.658 1.464-1.465 1.464H4.496a1.466 1.466 0 01-1.465-1.465v-3.613c0-.807.657-1.465 1.465-1.465h41.016c.807 0 1.465.657 1.465 1.465v3.614z" fill="#1B1A1F"/><path d="M22.142 18.936a2.412 2.412 0 002.489-.141l5.473-3.74a2.413 2.413 0 00.011-3.978l-5.473-3.786a2.407 2.407 0 00-2.494-.153 2.407 2.407 0 00-1.293 2.138v7.526a2.41 2.41 0 001.287 2.134zm1.643-8.675l4.046 2.799-4.046 2.764v-5.563z" fill="#1B1A1F"/></svg>