<svg width="50" height="50" fill="none" xmlns="http://www.w3.org/2000/svg"><g clip-path="url(#clip0)" fill="#1B1A1F"><path d="M1.465 50.024h14.949c.809 0 1.465-.655 1.465-1.464v-1.633a8.947 8.947 0 00-4.677-7.855 5.837 5.837 0 001.597-4.013 5.867 5.867 0 00-5.86-5.86 5.866 5.866 0 00-5.859 5.86c0 1.552.608 2.964 1.596 4.013A8.947 8.947 0 000 46.927v1.633c0 .809.656 1.464 1.465 1.464zM6.01 35.06a2.933 2.933 0 012.93-2.93 2.933 2.933 0 012.929 2.93 2.933 2.933 0 01-2.93 2.93 2.933 2.933 0 01-2.93-2.93zm2.93 5.859c3.138 0 6.009 2.46 6.009 6.177H2.929c0-3.697 2.855-6.177 6.01-6.177zm36.294-1.847a5.837 5.837 0 001.596-4.013 5.867 5.867 0 00-5.86-5.86 5.866 5.866 0 00-5.859 5.86c0 1.552.608 2.964 1.596 4.013a8.947 8.947 0 00-4.676 7.855v1.633c0 .809.656 1.464 1.465 1.464h14.949c.809 0 1.465-.655 1.465-1.464v-1.633a8.947 8.947 0 00-4.676-7.855zm-7.193-4.013a2.933 2.933 0 012.93-2.93 2.933 2.933 0 012.929 2.93 2.933 2.933 0 01-2.93 2.93 2.933 2.933 0 01-2.93-2.93zm8.939 12.036H34.96c0-3.697 2.855-6.177 6.01-6.177 3.139 0 6.01 2.46 6.01 6.177zM33.895 19.36v-1.632a8.947 8.947 0 00-4.676-7.855 5.837 5.837 0 001.596-4.014A5.866 5.866 0 0024.955 0a5.866 5.866 0 00-5.858 5.86c0 1.551.607 2.963 1.596 4.013a8.947 8.947 0 00-4.676 7.855v1.632c0 .81.655 1.465 1.464 1.465h14.95c.808 0 1.464-.656 1.464-1.465zM22.026 5.86a2.933 2.933 0 012.93-2.93 2.933 2.933 0 012.93 2.93 2.933 2.933 0 01-2.93 2.93 2.933 2.933 0 01-2.93-2.93zm8.94 12.035h-12.02c0-3.697 2.855-6.176 6.01-6.176 3.138 0 6.01 2.46 6.01 6.176zm-.072 19.093a19.183 19.183 0 01-5.998.947c-1.994 0-3.946-.298-5.803-.885a1.465 1.465 0 00-.883 2.793 22.14 22.14 0 006.686 1.022 22.1 22.1 0 006.912-1.094 1.465 1.465 0 00-.914-2.783zM11.332 12.129a22.14 22.14 0 00-4.088 5.388 22.11 22.11 0 00-2.337 6.597 1.466 1.466 0 002.882.524 19.187 19.187 0 012.03-5.723 19.213 19.213 0 013.546-4.677 1.465 1.465 0 00-2.033-2.11zm27.087 0a1.465 1.465 0 00-2.033 2.11 19.213 19.213 0 013.546 4.676 19.19 19.19 0 012.03 5.724 1.465 1.465 0 102.882-.525 22.11 22.11 0 00-2.337-6.597 22.14 22.14 0 00-4.088-5.388z"/></g><defs><clipPath id="clip0"><path fill="#fff" d="M0 0h50v50H0z"/></clipPath></defs></svg>