<svg width="50" height="50" fill="none" xmlns="http://www.w3.org/2000/svg"><g clip-path="url(#clip0)"><path d="M45.998 32.227a4.891 4.891 0 00-3.906-4.784v-5.275a1.465 1.465 0 00-1.98-1.371l-2.796 1.048a17.077 17.077 0 00-6.513-4.229 9.758 9.758 0 003.964-7.85C34.767 4.38 30.387 0 25.001 0c-5.385 0-9.765 4.38-9.765 9.766 0 3.214 1.56 6.07 3.963 7.85a17.08 17.08 0 00-6.513 4.23l-2.796-1.05a1.465 1.465 0 00-1.979 1.372v5.275a4.891 4.891 0 00-3.906 4.784 4.892 4.892 0 003.906 4.785v5.665c0 .61.379 1.157.95 1.371l15.626 5.86c.33.123.7.123 1.029 0l15.625-5.86c.572-.214.95-.76.95-1.371v-5.665a4.891 4.891 0 003.907-4.785zM18.165 9.766a6.844 6.844 0 016.836-6.836 6.844 6.844 0 016.836 6.836 6.844 6.844 0 01-6.836 6.836 6.844 6.844 0 01-6.836-6.836zm6.836 9.766c3.432 0 6.71 1.24 9.268 3.456l-9.268 3.476-9.267-3.476A14.139 14.139 0 0125 19.532zM6.935 32.227c0-1.077.876-1.953 1.953-1.953h.976v3.906h-.976a1.955 1.955 0 01-1.953-1.953zm3.906 4.834a2.446 2.446 0 001.953-2.392v-4.883c0-1.18-.84-2.166-1.953-2.393v-3.11l12.696 4.76v17.38L10.84 41.661v-4.6zm15.625 9.361V29.043l12.696-4.76v3.11a2.446 2.446 0 00-1.953 2.393v4.883c0 1.179.84 2.165 1.953 2.392v4.6l-12.696 4.761zm14.65-12.242h-.977v-3.906h.976c1.077 0 1.953.876 1.953 1.953a1.955 1.955 0 01-1.953 1.953z" fill="#1B1A1F"/></g><defs><clipPath id="clip0"><path fill="#fff" d="M0 0h50v50H0z"/></clipPath></defs></svg>