<svg width="50" height="50" fill="none" xmlns="http://www.w3.org/2000/svg"><g clip-path="url(#clip0)"><path d="M48.715 38.353L35.359 24.997 47.855 12.5c2.856-2.856 2.856-7.502 0-10.358-2.855-2.855-7.502-2.855-10.357 0L32.142 7.5l-7.14 7.14L11.646 1.285a4.4 4.4 0 00-6.215 0L1.29 5.428a4.4 4.4 0 000 6.215l13.355 13.354L4.336 35.305l-.002.001c-.178.18-.304.412-.363.605L.07 48.086a1.465 1.465 0 001.842 1.842l12.192-3.906a1.5 1.5 0 00.59-.36L25 35.354l13.356 13.357a4.4 4.4 0 006.215 0l4.143-4.143a4.4 4.4 0 000-6.215zM39.569 4.214a4.4 4.4 0 016.214 0 4.4 4.4 0 010 6.215l-1.216 1.216A7.286 7.286 0 0042.498 7.5a7.267 7.267 0 00-4.142-2.071l1.213-1.214zm-5.357 5.357a4.392 4.392 0 016.215 0 4.392 4.392 0 010 6.214l-7.14 7.14-6.215-6.214 7.14-7.14zM3.728 46.27l.928-2.898a4.393 4.393 0 011.97 1.97l-2.898.928zm8.595-2.754l-2.888.925a7.307 7.307 0 00-1.563-2.315 7.304 7.304 0 00-2.315-1.563l.925-2.888a5.478 5.478 0 014.214 1.627 5.479 5.479 0 011.627 4.214zm2.688-2.315a8.496 8.496 0 00-2.244-3.97 8.496 8.496 0 00-3.97-2.244l7.918-7.919 6.215 6.215-7.92 7.917zm31.633 1.295L42.5 46.639c-.572.571-1.5.571-2.072 0l-.926-.926 3.107-3.108a1.465 1.465 0 10-2.072-2.071l-3.107 3.107-2.071-2.071 1.035-1.036a1.465 1.465 0 10-2.071-2.072l-1.036 1.036-2.071-2.071 3.107-3.108a1.465 1.465 0 10-2.072-2.071l-3.107 3.107-2.071-2.071 1.035-1.036a1.465 1.465 0 00-2.071-2.072l-1.036 1.036-2.071-2.071 3.107-3.108a1.465 1.465 0 00-2.072-2.071l-3.107 3.107-2.071-2.071 1.035-1.036a1.465 1.465 0 10-2.071-2.072l-1.036 1.036-2.071-2.071 3.107-3.108a1.465 1.465 0 00-2.071-2.071l-3.108 3.107-2.071-2.071 1.035-1.036a1.465 1.465 0 10-2.071-2.071L8.43 14.64l-2.07-2.07 3.107-3.107A1.465 1.465 0 107.394 7.39l-3.107 3.108-.926-.927a1.466 1.466 0 010-2.071l4.143-4.143a1.466 1.466 0 012.072 0l37.068 37.068c.57.57.57 1.5 0 2.071z" fill="#1B1A1F"/></g><defs><clipPath id="clip0"><path fill="#fff" d="M0 0h50v50H0z"/></clipPath></defs></svg>