<svg width="14" height="14" fill="none" xmlns="http://www.w3.org/2000/svg"><path fill-rule="evenodd" clip-rule="evenodd" d="M3.227.35c.273 0 .494.235.494.525v10.93l1.548-1.737c.187-.211.5-.22.698-.021a.55.55 0 01.02.742l-2.402 2.697a.481.481 0 01-.36.164.481.481 0 01-.358-.164L.465 10.789a.548.548 0 01.019-.742c.198-.2.511-.19.699.02l1.55 1.74V.876c0-.29.221-.525.494-.525zm7.683 13.3c-.272 0-.494-.235-.494-.525V2.195L8.87 3.932c-.188.21-.5.22-.699.02a.548.548 0 01-.02-.741L10.554.514a.48.48 0 01.359-.164.48.48 0 01.359.164l2.401 2.697a.548.548 0 01-.019.742c-.198.2-.51.19-.698-.02l-1.55-1.74v10.932c0 .29-.222.525-.495.525z" fill="#1B1A1F"/></svg>