<svg width="50" height="50" fill="none" xmlns="http://www.w3.org/2000/svg"><path d="M13.138 27.093c-1.841 3.783-2.715 8.467-3.014 12.908H25v3.75H6.25c0-1.197.035-2.456.116-3.75.57-9.08 3.416-19.907 12.384-23.303l2.205 3.215a11.07 11.07 0 00-3.317 1.585c-1.849 1.302-3.336 3.202-4.5 5.595zm19.224-5.595a11.19 11.19 0 00-3.889-1.737l3.364-2.826c2.566 1.097 4.606 2.823 6.22 4.941.335.521 1.005 1.875 1.005 3.125s-2.431.264-3.647-.386a13.525 13.525 0 00-1.87-2.157 11.46 11.46 0 00-1.183-.96z" fill="#1B1A1F"/><path fill-rule="evenodd" clip-rule="evenodd" d="M31.825 24.25c1.827-3.167 6.398-3.167 8.225 0 .25.434.76.645 1.244.516 3.531-.948 6.763 2.284 5.815 5.815-.13.484.082.994.516 1.244 3.167 1.827 3.167 6.398 0 8.225-.434.25-.645.76-.516 1.244.948 3.531-2.284 6.763-5.815 5.815a1.106 1.106 0 00-1.244.516c-1.827 3.167-6.398 3.167-8.225 0a1.106 1.106 0 00-1.244-.516c-3.531.948-6.763-2.284-5.815-5.815a1.106 1.106 0 00-.516-1.244c-3.167-1.827-3.167-6.398 0-8.225.434-.25.645-.76.516-1.244-.948-3.531 2.284-6.763 5.815-5.815.484.13.994-.082 1.244-.516zm5.07 1.82a1.106 1.106 0 00-1.915 0 4.747 4.747 0 01-5.343 2.212 1.106 1.106 0 00-1.355 1.355 4.747 4.747 0 01-2.212 5.343 1.106 1.106 0 000 1.915 4.747 4.747 0 012.212 5.343 1.106 1.106 0 001.355 1.355 4.747 4.747 0 015.343 2.212c.425.738 1.49.738 1.915 0a4.747 4.747 0 015.343-2.212 1.106 1.106 0 001.355-1.355 4.747 4.747 0 012.212-5.343 1.106 1.106 0 000-1.915 4.747 4.747 0 01-2.212-5.343 1.106 1.106 0 00-1.355-1.355 4.747 4.747 0 01-5.343-2.212z" fill="#1B1A1F"/><path fill-rule="evenodd" clip-rule="evenodd" d="M35.938 37.813a1.875 1.875 0 100-3.75 1.875 1.875 0 000 3.75zm0 2.812a4.688 4.688 0 100-9.375 4.688 4.688 0 000 9.375zm-10.94-19.196c5.918 0 10.715-4.797 10.715-10.715C35.713 4.797 30.916 0 24.998 0c-5.917 0-10.714 4.797-10.714 10.714 0 5.918 4.797 10.715 10.714 10.715zm7.143-10.715a7.143 7.143 0 11-14.285 0 7.143 7.143 0 0114.285 0z" fill="#1B1A1F"/></svg>