<svg width="50" height="50" fill="none" xmlns="http://www.w3.org/2000/svg"><path fill-rule="evenodd" clip-rule="evenodd" d="M44.234 25.085c0 9.013-7.306 16.32-16.319 16.32-6.092 0-11.405-3.339-14.208-8.286H9.501c3.1 7.094 10.178 12.051 18.414 12.051C39.008 45.17 48 36.178 48 25.085S39.008 5 27.915 5C19.679 5 12.601 9.957 9.501 17.05h4.206c2.804-4.946 8.116-8.284 14.208-8.284 9.013 0 16.32 7.306 16.32 16.32z" fill="#1B1A1F"/><path fill-rule="evenodd" clip-rule="evenodd" d="M.084 25.388c0-1.04.843-1.883 1.883-1.883h25.924a1.883 1.883 0 110 3.766H1.967a1.883 1.883 0 01-1.883-1.883z" fill="#1B1A1F"/><path fill-rule="evenodd" clip-rule="evenodd" d="M30.913 23.962a1.883 1.883 0 010 2.663l-6.07 6.07a1.883 1.883 0 11-2.662-2.663l4.737-4.738-4.737-4.738a1.883 1.883 0 012.663-2.663l6.069 6.07z" fill="#1B1A1F"/></svg>