<svg width="50" height="50" fill="none" xmlns="http://www.w3.org/2000/svg"><g clip-path="url(#clip0)"><path d="M40.536 24.429c5.124-4.607 5.544-12.496.937-17.62A12.477 12.477 0 0025.009 4.95c-5.632-3.975-13.42-2.631-17.395 3a12.482 12.482 0 001.85 16.479A17.734 17.734 0 000 40.186v5.357c0 .987.8 1.786 1.786 1.786h46.428c.986 0 1.786-.8 1.786-1.786v-5.357a17.734 17.734 0 00-9.464-15.758zm-8.393-18.17a8.916 8.916 0 013.67 17.046c-.138.063-.276.12-.415.179a8.76 8.76 0 01-1.359.423c-.09.02-.178.03-.27.048-.518.1-1.043.153-1.57.16-.238 0-.478-.019-.715-.04-.09 0-.179 0-.268-.018a9.02 9.02 0 01-2.92-.86c-.034-.017-.073-.015-.107-.03-.178-.085-.357-.16-.516-.256.014-.018.023-.038.038-.056a12.525 12.525 0 001.912-3.484l.055-.15c.204-.6.362-1.213.474-1.837.016-.091.028-.179.043-.277.103-.635.157-1.276.162-1.92a12.552 12.552 0 00-.162-1.916l-.043-.276a12.596 12.596 0 00-.474-1.838l-.055-.15a12.53 12.53 0 00-1.912-3.484c-.015-.018-.024-.037-.038-.055a8.871 8.871 0 014.47-1.21zM8.929 15.188a8.905 8.905 0 0115.07-6.45 9.195 9.195 0 011.152 1.33c.078.11.15.228.222.343.25.384.469.787.655 1.205.045.102.08.206.118.307.189.463.337.94.443 1.429.013.053.016.107.027.162a8.406 8.406 0 010 3.36c-.01.056-.014.11-.027.163a8.703 8.703 0 01-.443 1.429c-.039.102-.073.205-.117.307-.187.418-.407.82-.656 1.204-.073.114-.144.232-.223.342a9.161 9.161 0 01-1.152 1.33 8.912 8.912 0 01-2.466 1.665 5.104 5.104 0 01-.44.178 8.97 8.97 0 01-1.324.411c-.113.025-.229.04-.343.06a8.86 8.86 0 01-1.47.147h-.196a8.852 8.852 0 01-1.47-.148c-.114-.02-.23-.034-.342-.059a8.97 8.97 0 01-1.325-.41l-.44-.18a8.928 8.928 0 01-5.253-8.125zm23.214 28.57H3.572v-3.57a14.196 14.196 0 019.496-13.458 12.462 12.462 0 009.578 0 14.35 14.35 0 011.74.77c.371.191.714.409 1.071.628.232.145.468.286.691.445.345.245.67.51.99.784.205.179.408.357.601.536.295.278.572.573.838.875a15.297 15.297 0 011.218 1.591c.178.268.337.546.494.825.179.307.343.614.493.934.15.32.282.67.41 1.01.113.297.233.592.326.893.125.415.212.843.3 1.272.053.253.123.502.162.759.106.707.16 1.42.163 2.135v3.572zm14.285 0H35.714v-3.57c0-.56-.032-1.113-.082-1.661-.014-.161-.04-.32-.057-.48a16.985 16.985 0 00-.28-1.672 17.509 17.509 0 00-.299-1.182c-.037-.129-.071-.26-.11-.386a17.694 17.694 0 00-2.152-4.512l-.07-.102a17.696 17.696 0 00-.984-1.323l-.012-.017a16.205 16.205 0 00-1.152-1.28h.073a12.64 12.64 0 001.52.107h.098c.47-.004.94-.034 1.407-.09.147-.019.291-.045.438-.069.38-.058.755-.134 1.125-.226.105-.027.212-.052.32-.083.485-.132.962-.294 1.428-.485a14.196 14.196 0 019.504 13.46v3.572z" fill="#1B1A1F"/></g><defs><clipPath id="clip0"><path fill="#fff" d="M0 0h50v50H0z"/></clipPath></defs></svg>