<svg width="50" height="50" fill="none" xmlns="http://www.w3.org/2000/svg"><path d="M13.941 24.423l-3.628-.897c1.826-3.163 4.343-5.708 7.289-7.32l2.517 2.755c-2.38 1.1-4.534 2.98-6.178 5.462zm25.749-.897L36.428 25c-1.743-2.865-4.145-5.001-6.815-6.16l2.79-2.633c2.945 1.612 5.462 4.157 7.287 7.32z" fill="#1B1A1F"/><path fill-rule="evenodd" clip-rule="evenodd" d="M24.997 21.429c5.918 0 10.715-4.797 10.715-10.715C35.712 4.797 30.915 0 24.997 0 19.08 0 14.283 4.797 14.283 10.714c0 5.918 4.797 10.715 10.714 10.715zm7.143-10.715a7.143 7.143 0 11-14.285 0 7.143 7.143 0 0114.285 0z" fill="#1B1A1F"/><path d="M7.142 25.784a3.571 3.571 0 014.272-3.502l13.585 2.717 13.585-2.717a3.571 3.571 0 014.272 3.502v4.572h-3.572v-4.572l-12.5 2.5v15.93l12.5-2.5v-4.215h3.572v4.215a3.572 3.572 0 01-2.871 3.502l-14.986 2.997-14.986-2.997a3.571 3.571 0 01-2.871-3.502v-4.215h3.571v4.215l12.5 2.5v-15.93l-12.5-2.5v4.572H7.142v-4.572z" fill="#1B1A1F"/><path fill-rule="evenodd" clip-rule="evenodd" d="M8.932 39.286a5.357 5.357 0 100-10.715 5.357 5.357 0 000 10.715zm1.786-5.358a1.786 1.786 0 11-3.571 0 1.786 1.786 0 013.571 0zm30.356 5.358a5.357 5.357 0 100-10.715 5.357 5.357 0 000 10.715zm1.786-5.358a1.786 1.786 0 11-3.572 0 1.786 1.786 0 013.572 0z" fill="#1B1A1F"/></svg>