<svg width="20" height="20" fill="none" xmlns="http://www.w3.org/2000/svg"><path fill-rule="evenodd" clip-rule="evenodd" d="M15.715 1.714a.857.857 0 010-1.714h1.143A3.143 3.143 0 0120 3.143v1.143a.857.857 0 11-1.715 0V3.143c0-.79-.64-1.429-1.428-1.429h-1.143zM6.572 4.857h6.857c.947 0 1.715.768 1.715 1.714v6.858c0 .946-.768 1.714-1.715 1.714H6.572a1.714 1.714 0 01-1.714-1.714V6.57c0-.946.767-1.714 1.714-1.714zm12.572 10a.857.857 0 00-.857.857v1.143c0 .79-.64 1.429-1.43 1.429h-1.142a.857.857 0 000 1.714h1.143A3.143 3.143 0 0020 16.857v-1.143a.857.857 0 00-.857-.857zM4.275 18.286a.857.857 0 010 1.714H3.143A3.143 3.143 0 010 16.857v-1.143a.857.857 0 111.714 0v1.143c0 .79.64 1.429 1.429 1.429h1.132zM.857 5.082a.857.857 0 00.857-.857V3.143c0-.79.64-1.429 1.429-1.429h1.114a.857.857 0 000-1.714H3.143A3.143 3.143 0 000 3.143v1.082c0 .474.384.857.857.857z" fill="#fff"/></svg>