<svg width="50" height="50" fill="none" xmlns="http://www.w3.org/2000/svg"><path d="M47.451 13.284a5.872 5.872 0 00-4.13-4.132C39.651 8.148 24.98 8.148 24.98 8.148s-14.672 0-18.34.966c-1.97.54-3.592 2.162-4.132 4.17-.965 3.668-.965 11.274-.965 11.274s0 7.645.965 11.274a5.873 5.873 0 004.132 4.132c3.706 1.004 18.34 1.004 18.34 1.004s14.672 0 18.34-.966a5.873 5.873 0 004.132-4.131c.965-3.668.965-11.274.965-11.274s.039-7.645-.966-11.313zM20.308 31.585V17.531l12.201 7.027-12.2 7.027z" fill="#1B1A1F"/></svg>