<svg width="50" height="50" fill="none" xmlns="http://www.w3.org/2000/svg"><path d="M33.1 23.758l-11.718-7.324a1.465 1.465 0 00-2.241 1.242v14.648a1.465 1.465 0 002.24 1.242l11.72-7.324a1.465 1.465 0 000-2.484zM22.07 29.68v-9.36L29.56 25l-7.49 4.681z" fill="#1B1A1F"/><path d="M42.676 5.957H7.324C3.286 5.957 0 9.243 0 13.281V36.72c0 4.038 3.286 7.324 7.324 7.324h35.352c4.038 0 7.324-3.286 7.324-7.324V13.28c0-4.038-3.286-7.324-7.324-7.324zm4.394 30.762a4.4 4.4 0 01-4.394 4.394H7.324A4.4 4.4 0 012.93 36.72V13.28a4.4 4.4 0 014.394-4.394h35.352a4.4 4.4 0 014.394 4.394v23.44z" fill="#1B1A1F"/></svg>