<svg width="16" height="16" fill="none" xmlns="http://www.w3.org/2000/svg"><path d="M15.469 14.566l-3.422-3.42a6.554 6.554 0 001.506-4.196 6.57 6.57 0 00-1.934-4.672A6.564 6.564 0 006.947.344a6.57 6.57 0 00-4.672 1.934 6.613 6.613 0 000 9.34 6.564 6.564 0 004.672 1.935c1.55 0 3.019-.531 4.197-1.506l3.422 3.422a.638.638 0 10.903-.903zm-4.753-3.847a5.295 5.295 0 01-3.77 1.562 5.282 5.282 0 01-3.768-1.562 5.336 5.336 0 010-7.538 5.292 5.292 0 013.769-1.56c1.425 0 2.762.554 3.769 1.56a5.295 5.295 0 011.562 3.769 5.3 5.3 0 01-1.562 3.769z" fill="#1B1A1F"/><path d="M9.987 6.313H7.584V3.906a.636.636 0 00-.637-.637.636.636 0 00-.638.637v2.407H3.906a.636.636 0 00-.637.637c0 .353.284.638.637.638H6.31V9.99c0 .353.285.637.638.637a.636.636 0 00.637-.637V7.588h2.403a.636.636 0 00.638-.638.634.634 0 00-.638-.637z" fill="#1B1A1F"/></svg>