<svg width="133" height="62" fill="none" xmlns="http://www.w3.org/2000/svg"><path d="M13.822 32.478l-.432.362c-.506.292-.594.284-.264-.025.192-.16.234-.228.125-.202-.11.025-.26.118-.452.28-.246.173-.309.274-.187.303.109-.025.067.042-.125.203-.26.119-.47.197-.634.236-.163.038-.239.085-.226.14.067.041-.09.107-.47.197-.135-.084-.184-.044-.145.12-.029.123-.139.264-.331.425-.192.161-.349.227-.47.198-.055.013-.062-.015-.02-.082-.013-.055-.061-.015-.144.12.013.055-.035.095-.144.12-.055.014-.076.047-.063.102-.067-.042-.142.005-.225.14-.084.135-.18.215-.289.241a.93.93 0 00-.389.178c-.192.161-.322.22-.389.179-.109.025-.157.065-.144.12-.083.135-.269.323-.557.565-.356.199-.663.358-.922.477-.164.038-.233.112-.207.221.013.055-.008.089-.062.102l-.164.038c-.163.039-.266.092-.307.16-.055.012-.075.046-.062.1l-.164.04a.641.641 0 00-.226.139c-.15.093-.273.18-.37.26-.275.296-.425.39-.451.28-.054.013-.075.046-.062.101-.084.135-.159.182-.226.14-.055.013-.075.047-.063.101l-.081.02-.082.019c.026.11-.166.27-.576.482-.59.427-1.228 1.011-1.916 1.75-.756.698-1.135 1.163-1.138 1.395.013.055.074.07.183.044.054-.013.034.02-.062.1-.276.297-.28.644-.014 1.044.093.151.166.336.217.555-.028.122-.001.116.082-.02.083-.134.2-.248.35-.342.097-.08.13-.059.102.063.077.329.144.37.202.126.041-.068.048-.04.019.082.039.164.085.24.14.227.163-.038.325.039.485.232l.304.189-.312.506c-.25.406-.315.739-.196 1 .103.438.425.708.967.812.256.113.678.071 1.264-.125.218-.05.593-.168 1.125-.351a28.98 28.98 0 011.72-.752c.628-.263 1.31-.54 2.047-.828a51.46 51.46 0 001.844-.954c.41-.212.745-.378 1.005-.497.259-.118.416-.184.47-.197.055-.013.103-.053.144-.12.042-.068.008-.09-.1-.064-.042.068-.117.115-.226.14l-.49.116a9.579 9.579 0 01-.86.375l-1.27.472a8.872 8.872 0 00-1.205.371l-.899.212c-.272.064-.388.062-.346-.006-.013-.054-.047-.075-.101-.062-.11.025-.157.066-.144.12.067.042.107.09.12.145-.054.013-.115-.002-.183-.044l-.245.058c-.013-.055-.073-.07-.182-.043-.135-.084-.183-.044-.144.12.012.055-.145.12-.471.198l-.736.173c-.163.038-.251.03-.264-.025-.013-.054.062-.1.226-.14.163-.038.238-.085.225-.14-.202-.125-.1-.178.308-.158l.062-.102c-.013-.054.09-.107.308-.159.163-.038.232-.112.206-.221-.013-.055.008-.089.063-.102l.038.164c.068.042.122.03.164-.038l.144-.12.163-.04.082-.018c.041-.068.09-.108.144-.12l-.062.1c.012.055.073.07.182.044l.654-.154.327-.077a.641.641 0 01.225-.14c.042-.067.172-.127.39-.178.189.071.407.02.653-.154a.93.93 0 01.39-.178l.245-.058c.096-.08.334-.165.715-.255l.49-.115a.93.93 0 00.39-.179c.272-.064.448-.047.529.05.08.096.107.09.081-.02-.025-.11-.011-.17.043-.184l.39-.178c.205-.106.314-.131.326-.077.013.055.053.103.12.145.055-.013.07-.074.044-.183-.135-.084-.08-.097.163-.039.164-.038.212-.078.144-.12l.063-.101.408-.097c.26-.118.32-.104.183.044-.11.026-.157.066-.144.12l.082-.019c.163-.038.232-.112.206-.222.042-.067.123-.086.245-.057l.101.063.432-.362c.381-.09.579-.107.591-.053.135.084.21.038.226-.14.096-.08.178-.1.245-.057.068.042.15.022.245-.058.042-.067.172-.127.39-.178.243.058.434.013.572-.135.096-.08.092-.34-.011-.777-.103-.438-.188-.678-.256-.72-.025-.11-.31-.1-.855.028-.612.087-1.368.294-2.269.621l-1.143.27 1.129-.7a59.59 59.59 0 012.81-1.614 751.506 751.506 0 013.507-1.952 270.506 270.506 0 013.2-1.793l2.848-1.45 1.374-.758c.218-.05.368-.144.452-.28l.163-.038c.042-.067.09-.107.144-.12l.245-.058.082-.02c.083-.134.152-.208.206-.221.068.042.252-.03.553-.217.192-.16.37-.26.533-.299.11-.025.293-.097.553-.216.26-.12.512-.265.759-.439.096-.08.253-.146.47-.197.055-.013.103-.053.145-.121-.039-.164.063-.217.307-.159.055-.013.232-.112.533-.299.096-.08.253-.146.471-.197l.164-.039c.054-.013.075-.046.062-.101.042-.068.09-.108.144-.12l.245-.058c-.013-.055.09-.108.308-.16.163-.038.266-.09.307-.158l.144-.121.245-.058c.055-.013.103-.053.144-.12.218-.052.402-.124.553-.217a.93.93 0 01.39-.178l.163-.039.163-.038c.041-.068.09-.108.144-.12l.451-.28c.164-.039.32-.105.471-.198.301-.186.48-.286.534-.299.067.042.333-.05.797-.274.41-.212.657-.386.74-.52.042-.068.09-.109.144-.121l-.062.1c-.083.136-.07.19.038.165.11-.026.15-.093.125-.203.042-.067.117-.114.226-.14.135.084.243.059.327-.076l.081-.02c-.013-.054.008-.088.063-.1l.081-.02.409-.096c.301-.187.533-.3.697-.338.121.03.21.038.264.025-.013-.055-.053-.103-.12-.145-.013-.055.008-.089.062-.101l.49-.116c.15-.093.335-.165.553-.217.109-.025.157-.066.144-.12l.183.043c.109-.025.157-.065.144-.12-.068-.042-.074-.07-.02-.082-.012-.055.042-.068.164-.039l.245-.057c.041-.068.09-.108.144-.121.15-.093.205-.106.163-.038-.028.122.053.103.245-.058.125-.203.2-.25.226-.14-.041.068.013.055.164-.038.192-.161.424-.274.696-.338.381-.09.56-.19.533-.299.097-.08.254-.146.471-.197.15-.093.212-.079.183.044l.082-.02c.163-.038.178-.1.043-.183-.013-.055.014-.061.081-.02l.327-.076c.042-.068.117-.114.226-.14.067.042.095.035.082-.02.041-.067.144-.12.307-.158.177.016.306-.043.39-.179-.026-.109.028-.122.163-.038.013.055.046.076.1.063l.246-.058c.218-.051.26-.119.125-.203-.013-.054.035-.095.144-.12.189.07.27.052.245-.058l.082-.02c.041-.067.116-.113.225-.139.231.004.388-.062.471-.197.083-.136.11-.142.082-.02-.042.068-.029.123.039.165l.144-.121.245-.058c-.013-.054.008-.088.062-.101-.013-.055.117-.114.39-.178l.244-.058c.055-.013.076-.047.063-.101l.062-.102c.067.042.17-.01.308-.159.083-.135.137-.148.163-.038.026.11.12.145.284.106l.163-.038c.055-.013.075-.047.063-.101-.026-.11.09-.224.35-.343.26-.119.43-.13.51-.033a.976.976 0 00.283.106c.055-.013.042-.067-.038-.164-.013-.055.035-.095.144-.12.163-.039.266-.092.307-.16-.013-.054.144-.12.471-.197.314-.132.532-.183.654-.154.109-.026.205-.106.288-.241l.144-.12c-.029.122-.01.204.058.246.054-.013.123-.087.206-.222L56.35 19l.736-.173a.641.641 0 00.225-.14c.096-.08.438-.219 1.024-.414a16.579 16.579 0 011.288-.39c.218-.052.347-.111.389-.178.041-.068.117-.115.226-.14.013.054.36-.056 1.042-.332l.817-.193a2.28 2.28 0 01.471-.197l.245-.058a.743.743 0 01.308-.16l.327-.076a.742.742 0 01.307-.159l.409-.096c.096-.08.253-.146.47-.198.218-.051.457-.136.716-.255l.9-.211c.259-.12.443-.192.552-.217l.49-.116c.218-.051.402-.123.552-.216.369-.145.662-.243.88-.294l.817-.192.653-.154c.218-.052.43-.13.635-.236l2.369-.558c.042-.068.069-.074.082-.02-.029.123.12.146.447.069a1.87 1.87 0 00.596-.4.929.929 0 01.389-.179c.109-.025.149.023.12.145-.042.068-.014.061.082-.019s.253-.146.47-.197l2.288-.54c-.013-.054.035-.094.144-.12.055-.012.088.009.101.063l-.081.02c.012.054.073.069.182.043.083-.135.322-.22.716-.255.327-.077.558-.074.693.01.134.084.189.071.163-.038-.013-.055.144-.12.47-.198.299.045.49 0 .573-.135.096-.08.26-.118.49-.115.407.02.618-.059.634-.236.163-.038.279-.037.346.005l.346.005-.326.077c-.15.094-.11.142.12.145l.408-.096a1.58 1.58 0 01.471-.197c.833-.37 1.35-.492 1.553-.366.067.042.373-.001.918-.13l1.47-.345c6.069-1.083 11.624-1.784 16.664-2.104 4.974-.363 9.406-.338 13.297.075 3.119.305 5.786.89 8.002 1.755 2.148.823 3.642 1.8 4.483 2.93l.381.517-.523 1.076a16 16 0 01-1.228 2.109 25.7 25.7 0 01-1.882 2.262c-.275.296-.571.626-.888.989a26.94 26.94 0 00-1.071.945 8.41 8.41 0 00-.864.724c-.247.173-.397.266-.452.28-.013-.056-.061-.015-.144.12-.028.122-.235.344-.619.665l-.903.56c-.109.025-.157.066-.144.12-.083.135-.372.377-.865.724-.56.305-.895.47-1.004.496l-.062.101a.569.569 0 01-.37.26 42.21 42.21 0 01-1.417.94c-.301.187-.479.287-.533.3l-.903.559c-.109.025-.314.131-.615.318a8.726 8.726 0 01-.985.578l-.923.477c-.163.039-.232.113-.206.222.013.055-.014.061-.082.02a6.51 6.51 0 00-.552.216c-.314.132-.519.238-.615.318.013.055-.035.095-.144.12-.055.014-.362.173-.923.478-.615.318-1.209.602-1.782.853-.26.119-.492.231-.697.337l-.49.116c-.135-.084-.183-.044-.144.12.013.055-.008.089-.062.101-.013-.054-.279.037-.798.275a2.956 2.956 0 01-1.086.515c-.218.052-.532.183-.942.395l-.615.319-.404-.252a34.062 34.062 0 00-2.424-1.509 205.38 205.38 0 00-1.982-1.092c-.715-.352-1.668-.734-2.857-1.147-1.203-.468-2.17-.79-2.9-.964l-1.28-.305c-.188-.071-.493-.144-.913-.218a13.953 13.953 0 00-1.442-.267 25.99 25.99 0 00-1.524-.248 10.287 10.287 0 00-1.058-.097c-.163.038-.367.028-.61-.03-.244-.058-.448-.068-.611-.03-.042.068-.096.08-.164.039l-.283-.107c-.218.052-.334.05-.347-.005-.067-.041-.128-.056-.182-.043-.029.122-.11.141-.245.058-.135-.084-.311-.1-.53-.05-.163.04-.42.042-.773.01a1.66 1.66 0 00-.774.009.64.64 0 00-.264-.025c-.11.026-.198.018-.265-.024-.19-.071-.535-.076-1.038-.016-.57.02-.992.06-1.264.125l-.693-.01c-.013-.055-.046-.076-.1-.064-.055.013-.076.047-.063.102l.1.063c-.054.012-.114-.002-.182-.044-.08-.097-.175-.132-.284-.106-.083.135-.328.192-.735.173-.327.077-.456.136-.39.178.068.042.075.07.02.082-.109.026-.203-.01-.284-.106-.134-.084-.392-.081-.773.009-.516.006-.829.021-.938.047-.109.026-.123.087-.043.183.026.11.005.144-.062.102-.379-.142-.582-.152-.61-.03-.042.068-.036.095.019.082l.081-.019c.055-.013.116.002.183.044.067.041.02.082-.144.12l-.385-.17c-.038-.163-.12-.144-.245.059-.125.202-.206.221-.245.057-.08-.096-.202-.126-.365-.087a.931.931 0 00-.39.178l.02.082c-.055.013-.089-.008-.101-.063-.026-.109-.066-.157-.12-.145-.055.013-.07.074-.044.184l-.1-.063c-.014-.055-.054-.103-.121-.145l-.082.02c.026.109-.043.183-.206.221l-.202-.125-.327.076c-.247.174-.383.206-.409.097-.067-.042-.155-.05-.264-.025-.083.135-.22.168-.409.096l-.081.02c-.013-.055-.047-.076-.101-.063l-.082.02c.013.054-.09.107-.308.158a5.624 5.624 0 01-.917.13c-.34.022-.646.065-.918.13l-.654.153c-.327.077-.524.094-.591.053-.135-.084-.25-.086-.346-.006-.11.026-.151.094-.125.203.026.11-.029.122-.164.039a.93.93 0 00-.428.014c-.23-.004-.34.022-.326.076.025.11-.029.123-.164.039l-.408.096a3.867 3.867 0 00-.716.255c-.15.094-.362.172-.634.236l-.327.077c-.135-.084-.19-.07-.164.039l-.451.28-.409.095a.93.93 0 00-.389.179.744.744 0 00-.307.159l-.327.077a1.368 1.368 0 00-.308.159c-.15.093-.328.193-.533.299l-.451.28a2.28 2.28 0 01-.471.197l-.327.077a2.507 2.507 0 01-.269.323c-.15.093-.322.22-.514.38a8.018 8.018 0 00-.533.3l-.245.057c-.013-.054-.04-.048-.082.02-.083.135-.179.215-.288.24l-.576.483-.35.342c-.59.428-1.203 1.121-1.84 2.08-.745.984-1.144 1.973-1.198 2.968-.066.94.189 2.266.765 3.978.366 1.07.69 1.83.969 2.285.279.454.707.93 1.285 1.43 1.087.957 2.417 1.597 3.987 1.92l.914.219c.013.054.047.075.101.063l.245-.058c.202.126.297.161.284.106.202.126.317.128.346.005a.568.568 0 01.447.069c.013.054.101.062.265.024l.245-.058c.013.055.074.07.182.044.013.054.047.075.101.063.055-.013.116.001.183.043l.245-.057.082-.02c.055-.012.115.002.183.044.067.042.277.08.63.112l.937-.048c.353.033.556.043.61.03.055-.013.089.008.102.063.025.109.134.083.326-.077l.226-.14c-.042.067.032.137.221.208.19.07.353.032.49-.116.193-.16.302-.186.328-.077.08.097.229.12.447.068.23.004.394-.035.49-.115.096-.08.15-.093.163-.039-.083.136-.016.177.202.126.231.004.449-.048.654-.154.218-.051.36-.056.428-.014.026.11.12.145.284.107.163-.039.259-.12.288-.242.041-.067.096-.08.163-.038.08.097.263.14.548.13.231.004.306-.042.226-.139l.082-.02c.054-.012.102-.052.144-.12l.081-.019c.273-.064.422-.041.448.068-.084.135-.043.184.12.145l.062-.101c-.025-.11.098-.197.37-.26.285-.01.44.04.467.15l.202.125c.218-.051.205-.106-.039-.164-.054.013-.06-.014-.02-.082l.328-.077.326-.077a.978.978 0 00.284.107c.08.096.141.11.183.043.083-.135.233-.228.451-.28.218-.05.334-.049.347.006-.042.067.004.143.14.227.054-.013.074-.047.062-.102-.203-.125-.1-.178.307-.159.163-.038.341-.138.533-.299.15-.093.266-.09.346.006.08.096.202.125.366.087.163-.038.232-.112.206-.222-.025-.11.043-.183.207-.222.054-.013.067.042.038.164-.083.136-.097.197-.043.184.068.042.143-.005.226-.14.042-.068.103-.053.183.044.067.041.149.022.245-.058.192-.16.247-.174.163-.039-.041.068-.008.089.101.063.11-.025.15-.093.125-.202-.026-.11.016-.177.125-.203.054-.013.094.035.12.145.026.11.141.111.346.005.164-.038.26-.119.288-.241-.025-.11-.093-.151-.202-.126-.041.068-.096.08-.163.039-.039-.165.091-.224.39-.179.067.042.113.118.139.227-.083.136.093.152.529.05.285-.01.455-.021.51-.034l-.183-.044c-.379-.142-.377-.258.004-.347.109-.026.115.001.02.082-.042.067-.002.116.12.145.109-.026.17-.011.182.043.026.11.066.158.12.145.055-.013.076-.046.063-.101-.026-.11.22-.167.735-.173.218-.051.463-.11.736-.173.285-.01.536-.04.754-.091l.654-.154c-.083.135-.07.19.038.164.055-.013.124-.087.207-.222.083-.135.213-.194.39-.178a.93.93 0 00.427-.014l2.042-.481c.407.02.789-.07 1.144-.27l1.552-.365c.11-.026.185-.072.226-.14l.327-.077c.272-.064.43-.13.471-.197.192-.16.226-.14.101.063-.042.067.013.055.163-.039.234-.228.364-.287.39-.178l.408-.096c.109-.026.252-.03.428-.014l.572-.135c-.013-.055.062-.101.226-.14l.653-.154c.096-.08.253-.146.471-.197l.49-.115.654-.154c.218-.052.402-.124.552-.217.205-.106.417-.185.635-.236l.572-.135c.38-.09.592-.168.634-.236.041-.067.144-.12.307-.159l.899-.211.327-.077c.054-.013.075-.047.062-.102l.164-.038c.067.042.142-.005.225-.14l.327-.077c.135.084.298.046.49-.115a.93.93 0 01.39-.178c.121.029.394-.036.817-.193.368-.144.518-.237.451-.28-.013-.054.09-.107.308-.158.217-.052.456-.137.716-.256.217-.05.613-.202 1.186-.452l.942-.395 1.049.792a30.877 30.877 0 013.923 3.842c1.19 1.395 2.07 2.69 2.639 3.884.25.577.448 1.05.593 1.42.144.37.255.72.333 1.048.022.342.012.662-.033.961a9.312 9.312 0 01-.22 1.265c-.242.923-.544 1.716-.905 2.379-.416.675-.989 1.417-1.719 2.224-.496.579-.785.936-.868 1.071-.084.135-.039.327.135.575l.279.454-.269.323c-.192.16-.315.248-.369.26-.109.026-.072.306.111.84.129.548.261.863.395.947.148.139.249.202.304.189.054-.013.171-.127.35-.343l.72-.603a12.222 12.222 0 002.05-2.648c.486-.865.871-1.794 1.155-2.785a19.66 19.66 0 00.429-3.306c-.001-.982-.134-2.28-.399-3.892a27.505 27.505 0 00-.305-1.661c-.132-.316-.336-.816-.612-1.502a11.511 11.511 0 01-.555-1.256c-.144-.37-.297-.652-.457-.845-.305-.564-.765-1.293-1.378-2.189a34.77 34.77 0 00-1.704-2.111l-.843-1.015c-.012-.054.111-.141.37-.26.26-.119.594-.284 1.004-.496a68.483 68.483 0 006.769-3.847 68.83 68.83 0 005.63-3.924c1.632-1.367 3.041-2.71 4.225-4.028 1.184-1.318 2.069-2.566 2.654-3.744.416-.675.801-1.603 1.155-2.784.287-1.223.441-2.155.463-2.795l.181-1.429c.115-.49.13-1.157.046-2.003-.085-.847-.212-1.51-.382-1.99a2.458 2.458 0 01-.217-.555c-.106-.206-.145-.37-.116-.493l-.039-.164-.101-.063c-.109.026-.168-.105-.178-.391-.065-.274-.055-.478.028-.613s.07-.19-.039-.165c-.067-.041-.095-.035-.082.02.026.11.012.17-.043.183-.067-.042-.086-.124-.058-.246-.038-.164-.085-.24-.139-.227-.055.013-.095-.036-.121-.145-.093-.151-.091-.267.005-.348l-.02-.082-.163.039-.101-.063c-.013-.055.035-.095.144-.12.013.054.047.075.101.062l.019.082a.902.902 0 00-.279-.454c-.186-.303-.252-.46-.198-.473l-.101-.063-.866-.75a13.489 13.489 0 00-1.41-1.227c-.417-.306-.976-.607-1.679-.904-2.7-1.213-6.178-2.07-10.434-2.569-4.312-.487-9.415-.556-15.312-.207a60.23 60.23 0 01-1.874.095c-.57.018-1.19.077-1.856.177a26.88 26.88 0 00-2.59.35c-1.061.134-2.428.311-4.1.532-2 .297-3.72.558-5.162.782-1.455.169-2.203.287-2.245.355l-1.144.27c-2.422.454-3.702.755-3.84.903a.418.418 0 01-.49.116L71.92 5.284c-.34.022-.591.052-.755.09-.163.04-.51.15-1.043.333l-.816.192c-.055.013-.103.053-.145.12l-.163.04-.572.134a4.114 4.114 0 00-1.144.27c-.435.102-.81.219-1.124.35-.15.094-.308.16-.471.198l-.409.096c-.272.064-.837.226-1.696.486s-1.82.573-2.883.94a40.457 40.457 0 00-3.436 1.155c-1.172.391-2.209.75-3.109 1.078a79.1 79.1 0 00-4.031 1.556 76.788 76.788 0 00-3.787 1.498 120.29 120.29 0 00-3.666 1.643 69.21 69.21 0 00-3.891 1.782 137.02 137.02 0 00-5.247 2.622 124.728 124.728 0 00-4.92 2.544 195.99 195.99 0 00-3.732 2.092c-1.012.585-1.56.945-1.643 1.08l.02.082c-.055.013-.088-.008-.101-.063l-.226.14a.93.93 0 01-.39.178c-.067-.042-.094-.035-.081.02.093.15-.01.204-.307.159-.055.012-.103.052-.145.12.013.055-.001.116-.043.183-.217.052-.47.198-.759.44a3.27 3.27 0 00-.595.4 3.59 3.59 0 01-.635.235c-.288.241-.425.39-.412.444.025.11.017.198-.024.265-.029.123-.056.13-.082.02.07-.19.024-.266-.14-.227-.163.038-.232.112-.206.222l.039.164c-.055.013-.088-.008-.101-.063-.055.013-.075.047-.063.101.026.11-.015.177-.124.203-.068-.042-.114-.118-.14-.227l.062-.102c-.054.013-.102.054-.144.121-.029.122-.01.204.058.246.068.042.108.09.12.145l-.283-.106c-.135-.084-.162-.078-.082.02.067.041.108.09.12.144a.641.641 0 01-.264-.024c-.176-.017-.285.009-.327.077.013.054.047.075.101.063.055-.013.116.001.183.043l.163-.038c.11-.026.197-.018.265.024l.163-.039.164-.038c.012.055-.117.114-.39.178-.34.023-.42.042-.245.058.135.084.182.16.14.227.013.055.047.076.101.063.109-.026.157-.066.144-.12-.067-.043-.02-.083.144-.121.164-.039.239-.085.226-.14.042-.068.144-.12.308-.159.108-.026.156-.066.143-.12-.012-.055.063-.102.226-.14.218-.052.32-.105.308-.16-.093-.15-.045-.191.144-.12.189.071.325.039.408-.096-.012-.055.035-.095.144-.12l.327-.078c.11-.025.103-.053-.02-.082-.067-.042-.018-.082.145-.12.436-.103.716-.255.84-.458-.012-.055.036-.095.145-.12.134.083.154.165.058.245-.096.08-.35.227-.76.44l-.984.578c-.163.038-.341.138-.533.298a5.92 5.92 0 00-.678.42c-.314.131-.744.377-1.292.737-.3.187-.506.293-.615.318l-.144.12-.02-.081c-.025-.11-.126-.172-.302-.189-.11.026-.13.06-.063.102.122.029.196.098.222.207.013.055-.063.102-.226.14-.042.068-.096.08-.163.039-.026-.11-.094-.152-.203-.126l.04.164c.038.164-.031.238-.207.222-.231-.003-.334.05-.308.159.013.055-.035.095-.144.12l-.082.02c-.067-.042-.073-.07-.019-.082-.013-.055-.046-.076-.1-.063-.11.026-.151.093-.126.203.026.109-.043.183-.206.221-.109.026-.143.005-.101-.062l.062-.102c-.013-.055-.04-.048-.082.02-.054.012-.075.046-.062.1.013.056-.008.09-.062.102.026.11-.016.177-.125.203-.109.025-.17.01-.183-.044.042-.067.008-.088-.1-.063l-.125.203c.025.11-.016.177-.125.203-.11.025-.17.01-.183-.044.042-.068.035-.095-.02-.082-.082.135-.117.23-.105.285.039.164-.036.21-.225.14-.244-.059-.353-.033-.327.076-.042.068-.008.089.1.063l.082-.019zm44.836 6.946c.11-.026.184-.072.226-.14l.082-.02c-.013-.054.008-.088.062-.1.055-.013.075-.047.062-.102.164-.038.335-.165.514-.38a8.83 8.83 0 01.514-.382c.192-.16.418-.3.678-.42.246-.173.472-.312.677-.419.192-.16.315-.247.37-.26.054-.013.177-.1.37-.26.041-.068.17-.127.389-.178l1.066-.598c.042-.068.117-.114.226-.14a.743.743 0 00.307-.159l.409-.096c.096-.08.274-.18.533-.299.205-.106.444-.191.716-.255l.779-.357c.204-.106.334-.165.389-.178l.735-.173c.15-.093.335-.166.553-.217.38-.09.647-.181.797-.274.205-.106.498-.204.88-.294l1.225-.288c1.035-.244 1.567-.427 1.596-.55.041-.067.075-.046.1.064.026.109.108.09.246-.058.15-.093.238-.085.264.024-.042.068-.035.095.02.082l.062-.101c.028-.122.083-.135.163-.038.026.109.08.096.163-.039.097-.08.396-.15.9-.212.435-.102.666-.099.692.01.012.056.04.05.081-.018.042-.068.144-.121.308-.16.134.084.243.059.326-.077-.025-.109.03-.122.164-.038.067.042.183.044.346.005.109-.025.252-.03.428-.014.436-.102.666-.099.692.01.055-.012.115.002.183.044l.082-.02c.108-.025.09-.107-.058-.245-.135-.084-.127-.173.023-.266.096-.08.178-.1.245-.058.055-.013.034.021-.062.102-.096.08-.09.107.02.082.054-.013.115.002.182.043l-.082.02c.026.11.073.185.14.227.026.11.066.157.12.145l-.058-.247c-.051-.219-.022-.34.086-.367l.12.145c.014.055.04.049.082-.019.055-.013.095.036.12.145-.028.122-.008.205.059.246.109-.025.157-.065.144-.12-.026-.11.016-.177.125-.203.163-.038.123-.087-.12-.145-.068-.042-.075-.069-.02-.082.122.03.196.099.221.208.026.11.106.206.241.29.054-.013.062-.101.024-.266-.039-.164-.004-.259.105-.284.055-.013.088.008.101.063-.041.067-.016.176.078.328.08.096.168.105.264.024l-.039-.164c-.013-.055.07-.074.245-.058.164-.038.239-.085.226-.14-.013-.054.008-.088.063-.1.163-.04.203.01.12.144-.083.135-.037.211.14.227.134.084.222.092.264.025l.082-.02c.054-.013.115.002.182.044.203.126.29.134.265.024-.052-.219.003-.231.163-.038.068.042.156.05.265.024.109-.025.17-.01.182.044.068.042.238.03.51-.033.054-.013.115.001.183.043l.081-.019.164-.038c.013.054.1.062.264.024.11-.026.197-.018.265.024.054-.013.115.002.182.044l.245-.058c.353.033.556.043.611.03.122.029.21.037.264.024l.101.063.164-.038c.638.023 1.397.075 2.279.156.881.081 1.803.211 2.764.389.895.136 1.829.32 2.804.553.961.178 1.814.382 2.558.61a26.79 26.79 0 012.25.77c.622.2.845.293.669.276-.163.039-.178.1-.043.184.013.054-.008.088-.062.101l-.245.058a1.356 1.356 0 00-.654.154c-.272.064-.457.136-.553.216-.041.068-.144.12-.307.16-.19-.072-.325-.04-.409.096-.218.05-.429.13-.634.236-.381.09-.593.168-.634.236a.93.93 0 01-.39.178l-1.062.25a7.242 7.242 0 01-.96.313l-.572.134c-.096.08-.362.172-.798.275l-.817.192c-1.118.379-1.977.639-2.576.78-.654.154-1.137.297-1.451.428l-1.389.327c-.545.128-.878.178-1 .149l-.408.096c.013.055-.172.127-.553.217l-1.062.25-1.062.25c-.436.103-1.205.255-2.307.456-.57.02-.979.115-1.225.289-.218.051-.334.05-.347-.005-.012-.055-.053-.103-.12-.145-.109.025-.13.06-.062.101.013.055-.144.12-.471.198-.381.09-.585.08-.61-.03-.014-.055-.04-.048-.082.02-.042.067-.423.157-1.144.269a.741.741 0 01-.346-.006l-.409.097-.245.057c.026.11.005.144-.062.102-.11.025-.197.017-.265-.025a4.18 4.18 0 01-.51.034c-.284.009-.624.031-1.018.066-.952.109-1.577.14-1.875.095-.353-.032-.462-.007-.327.077.013.055-.096.08-.327.077-.352-.033-.61-.03-.774.009-.217.051-.312.016-.283-.107.07-.19-.012-.17-.245.058-.138.148-.22.167-.245.058l-.082.019c-.11.026-.176-.016-.202-.126-.068-.042-.095-.035-.082.02l.039.164c-.055.013-.089-.008-.101-.063-.055.013-.204-.01-.448-.068-.108.026-.237-.03-.384-.17-.244-.058-.386-.053-.428.015-.163.038-.279.036-.346-.005-.068-.042-.305-.073-.712-.093-.407-.02-.638-.023-.692-.01-.109.025-.23-.004-.365-.087l-.102-.063c-.054.012-.048.04.02.082.08.096.032.137-.144.12-.19-.07-.324-.154-.404-.251-.068-.042-.095-.036-.082.02.013.054-.063.1-.226.139a2.116 2.116 0 01-.548-.13l-.183-.045-.081.02c-.042.067-.076.046-.102-.063l-.1-.063c-.327.077-.592.052-.794-.073-.026-.11-.147-.139-.365-.088-.164.039-.285.01-.366-.087l-.1-.063-.246.058c-.054.013-.149-.023-.284-.106-.298-.046-.468-.035-.51.033l-.019-.082-.019-.082c-.067-.042-.094-.036-.081.019-.055.013-.15-.023-.284-.106-.135-.084-.223-.092-.265-.025l-.1-.063c-.055.013-.15-.022-.285-.106l-.322-.27.207-.223c.041-.067.09-.108.144-.12l.062-.102c.055-.012.102-.053.144-.12.109-.026.15-.093.125-.203-.013-.054.008-.088.062-.101-.013-.055-.013-.055 0 0zm42.898-5.681c.08.097.039.164-.125.203-.163.038-.285.009-.365-.088l-.101-.063c.173.248.058.247-.346-.005a.985.985 0 00-.222-.207c-.067-.042-.094-.036-.082.019-.108.026-.264-.025-.466-.15-.16-.194-.228-.235-.202-.126.013.055-.014.061-.082.02l-.688-.359c-.378-.142-.574-.24-.587-.295-.067-.042-.128-.056-.182-.043-.083.135-.26.118-.529-.05-.378-.141-.588-.178-.63-.11l-.02-.083c.042-.067.03-.122-.038-.164-.135-.084-.256-.113-.365-.087-.11.025-.346-.005-.712-.093-.135-.083-.256-.113-.365-.087-.177-.016-.271-.052-.284-.106-.529-.05-.813-.156-.851-.32l.062-.101c-.055.013-.103.053-.144.12-.029.123-.165.155-.409.097-.243-.059-.35-.149-.322-.271-.026-.11-.066-.158-.12-.145l-.043.183c.038.165-.023.15-.183-.043-.135-.084-.257-.113-.366-.087-.218.05-.51.033-.875-.054l-.182-.044a.642.642 0 01-.265-.024.643.643 0 01-.264-.025s-.034-.02-.101-.063c-.135-.083-.467-.15-.996-.198-.528-.05-.82-.067-.874-.054-.042.067-.07.073-.082.019-.026-.11-.12-.145-.284-.107-.163.039-.367.029-.61-.03l-.183-.043-.082.02-.692-.01c-.379-.143-.664-.134-.856.027-.163.039-.258.003-.284-.106-.013-.055-.1-.063-.264-.025-.125.203-.213.195-.264-.024l-.246.058c-.109.025-.17.01-.182-.044-.068-.042-.183-.044-.346-.005-.205.106-.348.11-.428.014-.135-.084-.23-.12-.284-.107l-.163.039-.082.02c-.067-.043-.21-.038-.428.013-.15.093-.293.098-.428.014a.643.643 0 01-.264-.024l-.245.058c-.068-.042-.156-.05-.265-.025l-.245.058c-.067-.042-.128-.056-.183-.044l-.163.039-.529-.049-.327.077c-.121-.03-.189-.071-.202-.126-.109.026-.157.066-.144.12.026.11-.05.157-.226.14-.23-.003-.386-.053-.466-.15-.013-.054-.094-.035-.245.058l-.327.077c-.026-.11-.12-.145-.284-.106-.163.038-.211.078-.144.12.026.11-.022.15-.144.12-.163.04-.23-.003-.202-.125-.013-.055-.1-.063-.264-.024-.218.051-.36.056-.428.014-.013-.055.041-.068.163-.039-.025-.11-.174-.132-.447-.068-.34.023-.421.042-.245.058.135.084.087.124-.144.12-.19-.07-.325-.038-.409.097.013.055-.035.095-.144.12-.054.013-.06-.014-.019-.082.11-.025.15-.093.125-.202l-.226.14c-.125.202-.282.268-.47.197-.164.038-.233.112-.207.222.026.11.005.143-.063.101-.176-.016-.18-.16-.014-.43.096-.08.177-.1.245-.057.067.042.155.05.264.024.125-.203-.2-.242-.976-.117l-.327.077a.742.742 0 00-.346-.005c-.109.026-.197.018-.264-.024l-.164.038c-.15.093-.307.16-.47.198-.231-.004-.353-.033-.366-.087-.013-.055-.047-.076-.101-.063-.042.067-.171.127-.39.178l-.653.154c-.285.01-.51.033-.673.072l-.346-.006c-.135-.083-.23-.119-.284-.106-.109.026-.13.06-.062.101.244.058.175.132-.206.222l-.164.039c-.067-.042-.128-.057-.183-.044l-.817.192c-.314.132-.538.156-.673.072l-.1-.063c-.055.013-.049.04.019.082.134.084.066.158-.207.222-.243-.058-.392-.08-.447-.068l-.163.039c-.055.012-.076.046-.063.101-.028.122-.124.203-.288.241a.568.568 0 01-.447-.068c.039.164-.145.237-.553.217-.108.026-.184.072-.225.14-.15.093-.362.171-.635.236-.285.009-.407-.02-.365-.088.042-.067.008-.088-.101-.062-.067-.042-.143.004-.226.14-.041.067-.014.06.082-.02.054-.013.06.015.02.082.025.11-.057.129-.246.058l-.1-.063c.025.11.01.17-.044.184-.054.012-.095-.036-.12-.145l-.082.019c-.054.013-.069.074-.043.183.067.042.046.076-.062.102l-.101-.063c-.04-.164-.175-.133-.409.096-.125.203-.2.25-.226.14-.067-.042-.155-.05-.264-.025-.083.135-.118.23-.105.285l.1.063c-.054.013-.149-.023-.283-.107-.177-.016-.258.003-.245.058-.042.068-.035.095.019.082.096-.08.123-.087.082-.02-.042.069-.117.115-.226.14-.109.026-.143.005-.101-.062.041-.068.035-.095-.02-.082-.134-.084-.182-.044-.143.12.025.11-.044.184-.207.222-.109.026-.115-.002-.02-.082.276-.296.167-.27-.326.077-.042.068-.117.114-.226.14l-.082.02c-.067-.043-.176-.017-.326.076-.205.106-.301.186-.288.241.012.055-.09.108-.308.16-.218.05-.368.144-.452.279-.083.135-.185.188-.307.159-.202-.126-.223-.092-.062.101.025.11.011.17-.043.184-.055.012-.095-.036-.12-.145a.36.36 0 01-.078-.329c.041-.067.165-.154.37-.26.137-.148.26-.235.37-.26.121.029.224-.024.307-.16l.245-.057c.055-.013.075-.047.063-.102-.055.013-.055.013 0 0-.013-.054.035-.094.144-.12.163-.039.238-.085.225-.14-.025-.11.03-.122.164-.038.109-.026.157-.066.144-.12-.013-.056.035-.096.144-.121.218-.052.375-.118.47-.198.084-.135.262-.235.534-.299l.327-.077c.054-.013.075-.046.062-.101l.245-.058c.055-.013.103-.053.144-.12.247-.174.425-.273.534-.3l.49-.115c.15-.093.307-.159.47-.197l.328-.077c.259-.119.552-.217.879-.294.314-.131.552-.216.716-.255a.742.742 0 01.307-.159l.327-.077c.205-.106.553-.217 1.043-.332a7.193 7.193 0 011.163-.187l.49-.116c-.026-.11.274-.18.899-.211l.98-.231c-.013-.055.096-.08.327-.077a.568.568 0 01.447.068l.164-.038c-.013-.055.09-.108.307-.16.218-.05.47-.081.755-.09.218-.052.442-.076.673-.072.163-.039.251-.03.264.024.013.055.034.021.063-.101.083-.135.164-.155.245-.058.067.042.182.044.346.005.041-.067.13-.06.264.025.135.083.19.07.163-.039-.012-.055.097-.08.327-.077.164-.038.334-.05.51-.033.135.084.216.064.245-.058-.026-.11.029-.122.163-.038l.856-.029a23.629 23.629 0 011.284-.042.93.93 0 01.427-.014c.068.042.177.017.327-.077.083-.135.138-.148.163-.038.161.193.215.18.164-.039.083-.135.138-.148.163-.038-.028.122.182.16.63.111.311.1.46.123.447.069.11-.026.184-.073.226-.14.083-.135.11-.142.082-.02-.029.123.018.198.14.227.108-.025.177-.1.206-.221.083-.136.158-.182.226-.14l.327-.077.057.246c.013.055.087.124.222.208.054-.013.048-.04-.02-.082-.025-.11.044-.184.207-.222.096-.08.178-.1.245-.058.013.055-.008.089-.062.102-.11.025-.15.093-.125.202.026.11.101.063.226-.14.124-.202.206-.221.245-.057.026.11.175.132.447.068.666-.1.958-.081.875.054-.055.012-.048.04.02.082l.081-.02c.109-.025.122.03.039.165.041-.068.056-.129.043-.184l.144-.12c.109-.026.176.016.202.125.013.055.067.042.163-.038s.178-.1.245-.058c.039.165.16.194.366.087.272-.064.537-.04.793.074.311.1.46.122.447.068-.135-.084-.08-.097.164-.039a.804.804 0 00.63.112c.23.003.434.013.61.03.176.016.244.058.202.125.013.055.074.07.183.044.516-.006.881.081 1.096.262.122.029.177.016.164-.039.067.042.128.056.182.044l.082-.02c.042-.067.069-.074.082-.019l-.063.102c-.041.067.02.082.183.043.163-.038.224-.024.183.044 0 0 .034.02.1.063.136.083.217.064.246-.058-.013-.055.048-.04.183.044.08.096.114.117.1.062l-.019-.082c.11-.025.177.017.202.126.135.084.257.113.366.087l.082-.019c.025.11.154.166.384.17.244.058.353.032.327-.078-.026-.11.042-.067.202.126.148.139.242.174.284.107l.101.062c.013.055.046.076.101.063.109-.025.143-.004.101.063.013.055.074.07.183.044.054-.013.048-.04-.02-.082-.038-.165.023-.15.183.043l.366.087c.041-.067.096-.08.163-.038l-.062.101c.012.055.046.076.1.063.11-.025.17-.01.183.044.013.055.142.111.385.17.273-.065.434.012.486.231.135.084.23.12.284.107.096-.08.245-.058.447.068s.29.134.264.024c.11-.025.17-.01.183.044.013.055.114.117.303.188.19.072.412.163.669.276l1.053.445c.026.11.12.145.284.107l.385.17c.025.109.093.15.202.125.054-.013.182.044.384.17.148.138.243.173.284.106.109-.026.149.022.12.145-.028.122.012.17.121.145l.245-.058zm-69.761-6.97c-.205.107-.287.126-.245.058.028-.122.118-.23.268-.323.096-.08.212-.078.346.005l.164-.038c-.013-.055.083-.135.288-.241a1.03 1.03 0 01.533-.299c.055-.013.233-.112.533-.299.193-.16.343-.254.452-.28a1.83 1.83 0 00.553-.216 6.21 6.21 0 011.004-.497c.3-.186.458-.252.47-.197.068.042.17-.011.308-.159.083-.135.234-.228.452-.28a1.66 1.66 0 00.696-.337l.164-.038c-.013-.055.008-.089.062-.102l.163-.038.409-.096c.301-.187.458-.253.47-.198l.616-.318c.41-.212.67-.33.778-.357l.163-.038c-.025-.11.05-.156.226-.14.218-.051.348-.11.39-.178.041-.068.144-.12.307-.159.067.042.122.029.163-.038-.067-.042-.073-.07-.019-.083-.013-.054.014-.06.082-.019l.326-.077c.138-.148.418-.3.841-.458.369-.144.586-.195.654-.153l.144-.121c.029-.122.131-.175.307-.16.164-.038.239-.084.226-.139l.063-.101.408-.096c.163-.039.375-.117.634-.236.356-.2.546-.245.572-.135.055-.013.103-.053.144-.12-.013-.055.035-.095.144-.121.164-.039.239-.085.226-.14-.013-.055.192-.16.615-.318.423-.157.695-.221.817-.192.013.054.04.048.082-.02.029-.122.342-.254.942-.395.054-.012.102-.053.144-.12.012.055.136-.032.37-.26l.326-.078c.096-.08.117-.114.063-.1-.026-.11.028-.123.163-.04.109-.025.176.017.202.126-.041.068-.035.095.02.082l.124-.202c.055-.013.103-.053.144-.12l.082-.02c.026.11.08.097.163-.038.083-.136.18-.216.288-.241.096-.08.342-.139.736-.174.272-.064.402-.123.389-.178.041-.067.09-.108.144-.12.218-.052.375-.118.47-.198.491-.115.723-.228.697-.337l.265.024a.553.553 0 00.47-.197.93.93 0 01.39-.179.742.742 0 00.307-.159c.122.03.238.031.347.006a.641.641 0 01.225-.14c-.013-.055.117-.114.39-.179l.49-.115c.041-.068.225-.14.552-.217.096-.08.253-.146.471-.197l.409-.096c.3-.187.464-.225.49-.116.054-.013.075-.046.062-.101-.026-.11.029-.122.164-.039a.931.931 0 00.389-.178c.041-.067.171-.127.389-.178a.64.64 0 00.264.024c.042-.067.117-.114.226-.14.083-.135.22-.167.409-.096.067.042.128.057.182.044l-.1-.063c-.026-.11.103-.169.389-.178.285-.01.414-.07.389-.178l.1.062c.135.084.19.071.164-.038-.16-.193.045-.3.615-.318l.327-.077c.041-.068.09-.108.144-.12.029-.123.07-.19.125-.203l-.043.183c-.042.068-.015.061.081-.02.138-.147.24-.2.308-.158l.572-.135c.15-.093.307-.159.47-.197l.41-.097c.326-.077.51-.149.552-.216l.326-.077c.097-.08.253-.146.471-.198l.736-.173c.041-.067.198-.133.47-.197l1.553-.366a7.705 7.705 0 011.043-.332 1172.062 1172.062 0 01.98-.23.743.743 0 01.307-.16c.042-.067.13-.06.265.025.067.041.183.043.346.005a1.85 1.85 0 01.552-.217c.206-.106.532-.183.98-.23a14.612 14.612 0 001.41-.246 7.13 7.13 0 01.715-.255l.163-.038c.026.11.094.151.203.125.054-.012.048-.04-.02-.082-.134-.084-.086-.124.144-.12.164-.039.225-.024.183.043-.096.08-.09.108.02.082a.93.93 0 01.389-.178l.49-.115.572-.135c.15-.093.28-.153.389-.178.218-.051.333-.05.346.005.067.042.128.056.183.044l.327-.077c.096-.08.232-.113.408-.097.436-.102.647-.18.634-.236.042-.067.511-.149 1.409-.244a7.711 7.711 0 011.08-.168l.736-.173a.742.742 0 01.346.005c.11-.026.136-.032.082-.02.013.055.407.02 1.183-.105.72-.112 1.523-.243 2.407-.393.49-.116.715-.14.673-.072.013.055.047.076.101.063.15-.093.22-.167.207-.222l.673-.072c.436-.103.932-.19 1.49-.264l1.509-.182.673-.072c.135.084.298.045.49-.115a9.65 9.65 0 01.836-.11c.382-.09.824-.166 1.327-.226.788-.07 1.407-.13 1.855-.177.449-.048.816-.077 1.101-.086l.572-.135.408-.096c.449-.048.755-.09.918-.13.11-.025.15.023.12.146l.164-.039c.11-.025.177.016.202.126-.041.067-.035.095.02.082l.062-.101c-.039-.165.118-.23.471-.198.381-.09.939-.163 1.672-.22.68-.045 1.06-.019 1.14.078.135.084.189.07.163-.039-.025-.109.192-.16.654-.153.394-.035.631-.005.711.092.135.084.121.145-.043.183-.163.039-.258.003-.283-.106l-.02-.082c-.054.013-.075.046-.062.101-.083.135-.179.216-.288.241-.109.026-.143.005-.101-.063.041-.067-.026-.109-.202-.125-.177-.017-.394.035-.654.154-.423.157-.647.18-.673.071.029-.122-.365-.087-1.182.105a1.14 1.14 0 01-.755.092c-.135-.084-.277-.08-.428.014-.109.025-.285.009-.529-.05-.23-.003-.34.023-.326.078.08.096.066.158-.043.183-.177-.016-.298-.045-.366-.087-.067-.042-.55-.015-1.447.08-.91.042-1.407.13-1.49.265l-.144.12c.083-.135-.1-.178-.548-.13-.516.005-1.155.098-1.918.278-.272.064-.442.075-.51.033-.067-.042-.094-.035-.08.02.134.083.01.17-.37.26-.273.064-.443.075-.51.033-.08-.097-.196-.098-.346-.005-.138.148-.22.167-.245.058-.013-.055-.08-.097-.203-.126-.054.013-.068.074-.043.183l-.062.102c-.096.08-.396.15-.899.211-.516.006-.753-.025-.711-.092-.013-.055-.101-.063-.265-.025-.218.052-.314.132-.288.241l-.653.154-1.471.347c-.612.086-1.197.166-1.754.24-.612.086-1 .148-1.163.187-.299-.046-.435-.014-.409.096.013.054-.226.14-.716.255a3.106 3.106 0 00-.755.09l-.735.174c-.544.128-.823.165-.836.11l.082-.019.081-.02c-.013-.054.008-.088.063-.1.054-.013.054-.013 0 0a.742.742 0 00-.346-.006c-.231-.003-.368.029-.409.097-.109.025-.103.053.02.082.297.045.14.11-.472.197-.272.064-.387.063-.346-.005.096-.08.083-.135-.038-.164a.355.355 0 00-.327.077c-.138.148-.356.199-.654.154-.272.064-.402.123-.389.178l-.653.154c-.462-.007-.68.044-.654.154-.042.067-.26.118-.654.153-.448.048-.713.024-.793-.073l-.02-.082c-.054.013-.068.074-.042.184.025.11-.016.177-.125.202-.163.039-.285.01-.366-.087-.012-.055-.04-.048-.081.02l-.615.317-.572.135c-.327.077-.449.048-.366-.087.042-.068.036-.095-.019-.082-.083.135-.097.196-.043.183.013.055-.117.114-.39.178l-.49.116a8.912 8.912 0 00-.879.293l-.817.193-.408.096c-.083.135-.172.127-.265-.024-.093-.152-.147-.139-.163.038.026.11-.131.175-.47.198l-.573.134c.013.055-.035.095-.144.12l-.49.116c-.218.052-.375.117-.47.198l-.328.077c-.15.093-.266.091-.346-.005-.013-.055-.053-.104-.12-.146-.055.013-.069.075-.043.184.08.097.045.191-.106.285-.218.051-.394.035-.529-.05-.176-.015-.258.004-.245.059-.041.067-.117.114-.225.14-.11.025-.116-.002-.02-.083.083-.135.016-.177-.202-.125-.272.064-.456.136-.552.216-.042.068-.144.12-.308.16-.189-.072-.455.02-.797.274-.084.135-.159.181-.226.14-.026-.11-.093-.152-.202-.126-.122-.03-.17.011-.144.12l-.082.02-.163.038a1.852 1.852 0 00-.553.217.642.642 0 01-.226.14c-.054.013-.06-.015-.02-.082.042-.068-.046-.076-.264-.025-.15.094-.334.166-.552.217-.055.013-.069.074-.043.183.08.097.093.152.038.165-.108.025-.203-.01-.283-.107-.026-.11-.141-.111-.346-.005-.218.051-.369.144-.452.28.042-.068.09-.108.144-.121l-.062.101c-.016.177-.098.197-.245.058-.135-.084-.36-.06-.673.072-.327.077-.478.17-.452.28.068.041-.062.1-.389.178-.381.09-.538.155-.47.197.025.11-.057.129-.246.058-.202-.126-.29-.134-.264-.024-.084.135-.159.181-.226.14-.122-.03-.285.009-.49.115-.218.051-.266.091-.144.12.067.042-.063.102-.39.178a.355.355 0 00-.326.078l-.409.096a.642.642 0 01-.226.14l-.653.153c-.164.039-.239.085-.226.14.067.042-.035.095-.308.16-.38.089-.592.168-.634.235-.083.135-.137.148-.163.039-.013-.055-.23-.004-.654.154-.477.17-.812.335-1.004.496-.096.08-.123.087-.082.019.016-.177-.093-.151-.326.077-.055.013-.103.053-.145.12l-.326.078a.74.74 0 00-.308.159c-.109.025-.218.05-.327.077-.041.067-.116.114-.225.14l-.082.018c-.067-.041-.224.024-.47.198l-.573.135c-.054.012-.075.046-.062.101.013.055-.008.088-.063.101l-.245.058-.245.058c-.163.038-.32.104-.47.197-.247.174-.438.219-.572.135-.11.026-.158.066-.145.12.013.055-.008.089-.062.102l-.49.115c-.042.068-.144.12-.308.16l-.163.038c-.067-.042-.122-.03-.163.038a.568.568 0 01-.37.26c-.465.225-.724.344-.779.357l-.245.058c-.134-.084-.189-.071-.163.038.013.055-.008.089-.063.102-.272.064-.429.13-.47.197l-.245.058c-.084.135-.192.16-.327.077l-.12-.145c-.055.012-.042.067.038.164.026.11-.016.177-.125.203a9.629 9.629 0 00-.797.274c-.055.013-.076.047-.063.101-.028.123-.11.142-.245.058l-.245.058a.568.568 0 01-.37.26c-.163.039-.238.085-.226.14-.163.038-.278.037-.346-.005-.189-.071-.243-.058-.163.038.08.097.093.152.039.164-.055.013-.15-.022-.284-.106-.11.026-.157.066-.144.12.026.11-.043.184-.207.222-.218.052-.347.111-.389.179l-.245.057c-.109.026-.341.138-.697.338-.41.212-.627.263-.653.153l-.043.184.038.164c-.054.013-.088-.008-.1-.063-.014-.055-.177-.016-.49.116l-.616.318-.245.057-.37.26c-.327.078-.456.137-.389.18.026.108.005.142-.062.1a3.515 3.515 0 00-.553.217c-.272.064-.402.124-.389.178.013.055-.008.089-.062.102l-.164.038c-.218.052-.375.117-.47.198-.097.08-.151.093-.164.038-.013-.055-.074-.07-.183-.043-.109.025-.15.093-.125.202.068.042.074.07.02.082-.135-.084-.271-.051-.409.096-.192.161-.294.214-.307.16l-.082.019c-.054.013-.075.046-.062.101l-.245.058zm28.97 18.306c-.04.068-.102.053-.182-.043-.122-.03-.196-.099-.221-.208-.026-.11.028-.122.163-.039.08.097.175.133.284.107.054-.013.014-.061-.12-.145-.013-.055.047-.04.182.044.202.125.297.16.284.106l.183.044c.121.029.176.016.163-.039-.026-.11.029-.122.163-.038.08.096.196.098.347.005.096-.08.177-.1.245-.058.134.084.14.111.019.082-.122-.029-.17.011-.144.12.013.055.047.076.101.064l.163-.039.366.087.245-.057c.192-.161.246-.174.163-.039.013.055.047.076.101.063l.164-.038c.013.054.046.075.1.063.232.003.307-.044.227-.14-.08-.097-.06-.13.062-.102.218-.05.285-.009.202.126.026.11.06.13.101.063.275-.296.384-.322.327-.077-.029.122-.01.204.058.246l.163-.038.164-.039c.067.042.155.05.264.025.353.032.516-.006.49-.116-.013-.054.232-.112.736-.173a6.147 6.147 0 011.201-.023c.177.016.4-.008.673-.072a.642.642 0 01.226-.14c.067.042.128.057.183.044.013.055.359.06 1.038.016l.327-.077c.122.029.237.03.346.005l.245-.058 1.591-.201c1.006-.121 2.203-.288 3.59-.499a1218.1 1218.1 0 014.081-.614c1.333-.198 2.272-.362 2.817-.49.38-.09.578-.107.59-.052l.102.063c.109-.026.157-.066.144-.121l1.716-.404.49-.115c.067.041.073.069.02.082-.043.067.018.082.182.043.871-.205 1.259-.267 1.163-.187l-.163.039c-.042.067-.008.088.1.063.164-.039.24-.086.226-.14.096-.08.26-.12.49-.116.299.046.462.007.49-.115-.012-.055.063-.102.227-.14.487.116.65.078.49-.115-.026-.11.028-.123.163-.039.135.084.393.081.774-.009.436-.102.64-.093.61.03-.028.122 0 .116.082-.02.125-.202.433-.361.923-.477l3.186-.75c.218-.051.368-.144.452-.28.041-.067.096-.08.163-.038.013.055.074.07.183.044.096-.08.416-.185.96-.313.436-.103.702-.194.798-.274.164-.039.177.016.04.164-.043.067-.145.12-.308.159-.055.013-.103.053-.144.12.025.11-.084.135-.327.077-.218.051-.32.105-.308.16-.041.067-.09.107-.144.12-.054.013-.088-.008-.1-.063l.08-.02c-.012-.054-.066-.041-.163.04-.15.092-.307.158-.47.197l-1.226.288c-.381.09-.505.177-.37.26.068.042-.041.068-.327.078-.352-.033-.516.005-.49.115-.029.122-.206.222-.533.299-.327.077-.53.067-.61-.03-.068-.042-.15-.022-.246.058a.568.568 0 01-.37.26c-.163.039-.203-.01-.12-.145-.013-.054-.06-.014-.144.12-.042.068-.117.115-.226.14l-.326.078c-.164.038-.225.023-.183-.044.096-.08.09-.108-.02-.082-.067-.042-.142.005-.225.14.025.11-.261.234-.86.375l-.654.154c-.218.052-.375.117-.47.198-.437.102-.613.086-.53-.049-.013-.055-.046-.076-.1-.063-.11.026-.151.093-.126.203.068.042.074.07.02.082a.643.643 0 01-.265-.024c-.109.025-.197.017-.264-.025a.742.742 0 00-.307.16c-.097.08-.233.112-.409.095-.163.039-.23-.003-.202-.125.042-.068.008-.089-.101-.063-.042.067-.056.128-.043.183l-.615.318-.899.212c-.083.135-.144.12-.183-.044-.025-.11.03-.122.164-.038.054-.013.075-.047.062-.102-.067-.041-.243-.058-.529-.048-.272.064-.402.123-.389.178.026.11.12.145.284.106.176.017.155.05-.062.102l-.164.038-.1-.063c-.014-.054-.278-.079-.794-.073-.545.128-.81.22-.798.275l-.062.101c-.055.013-.095-.035-.12-.145.041-.068.035-.095-.02-.082-.083.135-.6.257-1.552.365l-1.634.385c-.218.051-.394.035-.529-.049-.067-.042-.094-.035-.082.02.08.096-.076.162-.47.197-.45.048-.74.03-.876-.054-.067-.042-.088-.008-.062.102.08.096.087.123.02.082-.055.012-.265-.025-.63-.112-.164.038-.239.085-.226.14.013.054-.09.108-.308.159-.272.064-.367.028-.283-.107l-.082.02-.183-.044c-.272.064-.402.123-.389.178l-.082.02c-.041.067-.123.086-.245.057-.109.026-.17.011-.183-.044.084-.135.016-.176-.202-.125l-.081.019c-.042.068-.09.108-.144.12l-.082.02c-.042.067-.144.12-.307.159-.055.013-.089-.008-.102-.063-.054.013-.054.013 0 0-.025-.11-.093-.151-.202-.126-.109.026-.15.093-.124.203-.042.068-.13.06-.265-.024-.215-.18-.52-.138-.918.129a.93.93 0 01-.428.014c-.336-.21-.425-.218-.264-.024.08.096.053.103-.082.019-.134-.084-.256-.113-.365-.087-.164.038-.279.036-.346-.005-.055.012-.116-.002-.183-.044a.742.742 0 00-.307.159c-.193.16-.247.173-.164.038l-.082.02-.182-.044c-.164.038-.367.029-.61-.03-.219.052-.349.111-.39.179l-.365-.088c-.231-.003-.367.03-.409.097l.02.082c-.055.013-.089-.008-.102-.063-.013-.055-.14-.111-.385-.17-.448.048-.7.079-.754.092-.11.025-.17.01-.183-.044.042-.068-.02-.082-.183-.044-.109.026-.184.073-.225.14.013.055-.015.061-.082.02-.026-.11-.12-.146-.284-.107-.192.16-.226.14-.1-.063l.061-.101c-.054.013-.102.053-.144.12-.163.039-.251.03-.264-.024-.067-.042-.183-.044-.346-.005-.109.025-.17.01-.183-.044-.013-.055-.04-.048-.081.02-.084.134-.138.147-.164.038-.135-.084-.25-.086-.346-.005-.109.025-.17.01-.183-.044-.013-.055-.074-.07-.182-.044l-.082.02c-.026-.11-.148-.139-.366-.087-.272.064-.421.04-.447-.069-.013-.054-.1-.062-.264-.024s-.367.029-.61-.03c-.27-.167-.392-.196-.366-.087zm7.346-36.56c.054-.012.102-.052.144-.12l-.164.039c-.666.099-1.592.317-2.777.654-.532.183-.9.327-1.106.433l-.98.23c-.109.027-.184.073-.226.14l-.245.058-.163.039c.013.055-.09.108-.308.159a1.04 1.04 0 00-.572.135c-.218.05-.565.162-1.042.332l-.572.134c-.026-.11-.101-.063-.226.14l-.327.077c-.135-.084-.244-.058-.327.077.013.055-.008.089-.062.101l-.245.058c-.436.103-.859.26-1.269.472l-.326.077c-.203-.126-.284-.106-.246.058-.041.067-.09.107-.144.12l-.245.058c-.122-.03-.258.003-.408.096l-.49.115a.931.931 0 01-.39.179l-.245.057c-.109.026-.184.073-.226.14l-.326.077-.144.12-.164.04-.49.115a.742.742 0 01-.307.159l-.327.077-.615.318-.245.057a1.376 1.376 0 00-.39.179l-.571.134c-.096.08-.253.147-.471.198-.11.025-.184.072-.226.14-.083.135-.138.148-.163.038-.068-.042-.033-.137.105-.285.07-.19.14-.263.206-.222.013.055.129.057.346.006.151-.094.356-.2.615-.318l2.067-.747c.314-.132.607-.23.88-.293.258-.12.409-.212.45-.28.11-.026.17-.011.183.043-.083.136-.07.19.039.165.055-.013.075-.047.062-.102.07-.19.405-.355 1.005-.496l.326-.077a.641.641 0 01.226-.14c.042-.067.144-.12.308-.159.025.11.134.084.326-.077.15-.093.26-.118.327-.077.026.11.08.097.163-.038.193-.16.35-.227.471-.198l.327-.076c.042-.068.172-.128.39-.179l.326-.077c.055-.013.075-.046.063-.101-.026-.11.028-.122.163-.038.16.193.221.207.183.043-.013-.055.008-.088.062-.101l.572-.135c.41-.212.805-.363 1.187-.453.368-.144.613-.202.735-.173.067.042.128.057.183.044-.026-.11.043-.183.206-.222.164-.038.511-.15 1.043-.332.15-.093.308-.16.47-.198.11-.025.185-.072.227-.14.041-.067.177-.099.408-.096.176.017.217.065.12.145.026.11.08.097.164-.038.109-.026.157-.066.144-.12.054-.013.075-.047.062-.102-.134-.084-.08-.097.164-.038.176.016.285-.01.326-.077.042-.068.145-.121.308-.16l.49-.115c.436-.102.675-.188.716-.255.138-.148.308-.16.51-.033.054-.013.115.001.182.043l.145-.12.408-.096c.109-.026.157-.066.144-.121-.064-.274-.016-.314.144-.12l.101.062c-.038-.164.091-.223.39-.178.176.016.257-.003.244-.058-.08-.096.35-.226 1.288-.39.164-.038.205-.106.125-.202-.067-.042-.04-.049.082-.02.189.072.277.08.264.025-.013-.055.09-.108.308-.16.067.043.21.038.427-.013.096-.08.39-.178.88-.294l.899-.211a.742.742 0 00.307-.16l.572-.134c.666-.1 1.197-.166 1.59-.201.382-.09.62-.175.717-.256l.49-.115c.109-.026.279-.037.51-.033l.49-.116a18.69 18.69 0 011.019-.066c.272-.065.375-.118.307-.16l.736-.173c.272-.064.578-.107.918-.129.272-.064.578-.107.918-.13.788-.07 1.406-.129 1.855-.176.436-.103.66-.127.673-.072l1.019-.067c.272-.064.66-.126 1.163-.187.49-.115.96-.197 1.408-.245l2.754-.388c.843-.083 1.298-.104 1.366-.062.134.084.216.065.245-.058.041-.067.286-.125.735-.173.381-.09.721-.112 1.02-.066.12.029.236.03.345.005.11-.026.136-.032.082-.02-.013-.054.035-.094.144-.12.558-.074 1-.149 1.326-.226.273-.064.612-.086 1.02-.066.516-.006.84.033.975.116.122.03-.041.068-.49.116-.34.022-.522-.022-.548-.131-.067-.042-.149-.023-.245.058-.083.135-.37.26-.86.375-.545.129-.83.138-.856.029l-.692-.01c-.381.09-.51.149-.39.178.136.083 0 .115-.408.096-.272.064-.333.05-.182-.044.109-.025.109-.025 0 0-.122-.029-.353-.032-.693-.01l-.98.23c.067.043.047.076-.062.102-.11.026-.17.011-.183-.044-.026-.11-.093-.151-.202-.125-.055.013-.075.046-.063.101-.054.013-.054.013 0 0 .026.11-.042.183-.206.222-.176-.016-.27-.052-.284-.107-.013-.054-.1-.062-.264-.024l-.327.077a.93.93 0 01-.428.014c-.243-.058-.44-.04-.59.053-.055.012-.049.04.018.082l.265.024.183.044-.428.014-.98.23c-.382.09-.633.12-.755.092-.244-.059-.387-.054-.428.014-.07.19-.343.254-.817.192-.503.06-.776.125-.817.192-.042.068-.069.074-.082.02-.026-.11-.256-.113-.692-.01-.462-.008-.673.071-.634.235.012.055-.096.08-.327.077a.93.93 0 00-.428.014c-.054.013-.06-.014-.02-.082.042-.067-.046-.075-.264-.024l-.98.23c-.23-.003-.367.03-.409.097-.109.026-.136.032-.081.02.202.125.154.165-.144.12-.164.038-.225.024-.183-.044.096-.08.035-.095-.183-.044-.096.08-.28.153-.552.217-.286.01-.592.053-.919.13l-.898.211c-.34.022-.558.074-.654.154l-.653.154c-.394.035-.81.104-1.245.206-.788.07-1.149.126-1.082.168.122.03-.09.108-.634.236-.653.154-.987.204-1 .15-.013-.056-.094-.036-.245.057l-.081.019c.041-.068-.156-.05-.592.053-.435.102-.695.221-.778.356l-.082.02c-.134-.084-.359-.06-.673.071l-2.124.5a1.04 1.04 0 00-.572.135c-.272.064-.374.117-.307.159.013.055-.117.114-.39.178.055-.013.089.008.102.063l-.164.039-.081.019zM50.18 14.04c.11-.025.177.017.203.126.025.11-.153.21-.534.3a2.909 2.909 0 00-.86.375c-.272.064-.47.082-.591.052-.067-.042-.06-.014.02.082l.1.063c-.054.013-.115-.001-.182-.043l-.245.057c.025.11-.207.222-.697.338l-1.413.592c-.451.28-.84.458-1.167.535-.11.026-.184.072-.226.14l-.245.058c-.042.067-.069.073-.082.019a.65.65 0 01.024-.266c.041-.067.144-.12.307-.159.135.084.244.058.327-.077l.164-.038c.041-.068.09-.108.144-.12.218-.052.374-.118.47-.198l.164-.039c-.013-.054.008-.088.062-.101l.164-.039c.941-.394 1.446-.571 1.513-.53.055-.012.076-.046.063-.1-.013-.055.035-.095.144-.121.176.016.394-.035.653-.154.26-.119.383-.206.37-.26-.013-.055.008-.089.063-.102.067.042.237.031.51-.033l.777-.357zm52.773 23.446c.068.042.047.076-.062.101l-.245.058c-.054.013-.232.112-.533.299l-.409.096c-.15.093-.28.153-.389.178l-.408.096c-.205.106-.438.219-.697.338-.26.118-.47.197-.634.236-.218.05-.354.083-.409.096-.109.026-.149-.023-.12-.145-.013-.055.035-.095.144-.12.218-.052.402-.124.553-.217l.653-.154a.744.744 0 00.308-.16l.245-.057c.041-.068.225-.14.552-.217.298.046.38.026.245-.058-.013-.054.063-.1.226-.14.244.059.353.033.327-.076.029-.123.152-.21.37-.26.163-.039.258-.004.283.106zm-68.008-16.74c.233-.228.37-.26.408-.095.013.054-.13.175-.432.361-.109.026-.184.072-.226.14l-.245.058-.451.28a.743.743 0 00-.308.158l-.245.058c-.041.068-.09.108-.144.12-.013-.054-.197.018-.553.217-.3.187-.478.286-.533.3-.054.012-.088-.009-.1-.064-.081-.096-.094-.151-.04-.164.218-.051.532-.183.942-.395l.164-.038c-.013-.055.008-.089.062-.102l.082-.019c.026.11.107.09.245-.058l.163-.038c-.013-.055.008-.089.063-.101l.081-.02c.013.055.061.015.144-.12l.226-.14c.026.11.135.084.327-.077.054-.013.102-.053.144-.12l.082-.02c.013.055.06.015.144-.12zm74.23-14.703c-.135-.084-.005-.143.389-.178.461.006.699.037.712.092.012.055.073.07.182.044.042-.068.178-.1.409-.097.163-.038.367-.028.61.03.231.003.435.013.611.03.122.029.189.07.202.125.026.11.011.17-.043.184-.067-.042-.08-.097-.039-.165-.013-.054-.155-.05-.428.015-.217.05-.306.043-.264-.025.096-.08.062-.101-.101-.063-.625.032-1.019.067-1.183.105-.217.052-.278.037-.182-.043.096-.08.008-.089-.265-.025-.272.065-.476.055-.61-.03zM29.171 28.084a.568.568 0 01-.37.26c-.163.04-.25.031-.264-.024l.288-.24.327-.078c.042-.067.09-.107.144-.12-.013-.055.144-.12.471-.198.163-.038.341-.138.533-.299a.567.567 0 01.37-.26c.135.084.237.031.308-.159l.163-.038c.055-.013.075-.047.063-.102.108-.025.176.017.201.126-.041.068-.116.114-.225.14l-.596.4c-.41.212-.67.33-.778.357-.164.038-.239.085-.226.14.026.109-.029.122-.163.038l-.245.057zm77.255-22c-.109.025-.143.004-.101-.063-.026-.11.05-.156.226-.14.109-.026.625-.032 1.548-.018.352.033.535.076.548.131.039.164-.098.196-.409.096-.067-.042-.264-.024-.591.053-.272.064-.415.069-.428.014.042-.068-.046-.076-.264-.024-.272.064-.415.068-.428.014-.026-.11-.059-.13-.101-.063zm-63 10.76c.137-.148.198-.133.183.044.025.11-.092.223-.35.342-.26.119-.553.217-.88.294-.164.038-.266.091-.308.159-.096.08-.253.146-.47.197-.218.052-.334.05-.347-.005-.013-.055.063-.101.226-.14.055-.012.103-.053.144-.12-.013-.055.062-.101.226-.14.189.071.27.052.245-.058-.026-.11.029-.122.163-.038.218-.051.402-.124.553-.217l.163-.038c-.013-.055.008-.089.063-.102l.163-.038c.013.055.088.008.226-.14zM59.302 35.2c.083-.135.11-.142.082-.02.051.22-.005.348-.168.387-.138.148-.2.25-.187.304.026.11-.056.129-.245.058-.218.05-.32.104-.308.159l-.144.12c-.192.16-.226.14-.1-.063-.014-.054.007-.088.062-.101l-.02-.082-.019-.082c.122.029.285-.01.49-.116.138-.148.194-.276.168-.386l.163-.038c.11-.026.185-.072.226-.14zm47.523-33.282c-.042.067-.002.116.12.145.122.029.129.056.02.082l-.082.019c-.067-.042-.128-.057-.183-.044-.026-.11-.12-.145-.284-.106-.054.013-.367.028-.937.047-.57.019-.91.041-1.019.067-.109.026-.176-.016-.202-.126l.163-.038c.055-.013.116.001.183.043l.245-.057c.407.02.808.012 1.202-.023.34-.023.591-.053.755-.091.109-.026.115.001.019.082zM36.81 19.875c.343-.254.533-.3.572-.135.013.055-.035.095-.144.12l-.245.058a.744.744 0 00-.308.16 5.927 5.927 0 01-.677.419c-.26.119-.396.15-.409.096-.025-.11.064-.217.27-.323.191-.161.348-.227.47-.198.013.055.17-.011.47-.197zm-9.287 4.872c-.518.238-.771.384-.759.439-.192.16-.307.159-.346-.006-.026-.11.043-.183.207-.221.272-.065.58-.224.922-.478.26-.119.423-.157.49-.115.068.042-.104.169-.514.38zm82.11 9.607c.163-.038.258-.003.284.107.012.054-.008.088-.063.1a.932.932 0 00-.389.18l-.245.057a.742.742 0 01-.308.159l-.245.057c-.041.068-.089.108-.144.121-.124.203-.213.195-.264-.024-.013-.055.137-.148.451-.28.314-.132.526-.21.635-.236.054-.013.102-.053.144-.12l.144-.121zm-91.434-.134c-.109.026-.17.011-.183-.044.055-.012.185-.072.39-.178.192-.16.418-.3.677-.42a2.08 2.08 0 01.697-.337l.307-.158c.013.054-.008.088-.062.1l-.164.04-.206.221c-.042.068-.144.12-.308.16-.163.038-.238.084-.225.139.012.055-.09.108-.308.16-.163.038-.266.09-.307.158-.042.068-.144.12-.308.16zm5.942-7.724c-.054.013-.102.053-.144.12l-.163.04c-.042.067-.213.194-.514.38-.519.238-.764.296-.736.173-.012-.054.036-.095.145-.12.285-.01.415-.07.389-.178-.068-.042-.02-.083.144-.121l.245-.058c.054-.013.075-.046.062-.101-.012-.055.008-.089.063-.101.067.041.17-.012.307-.16.083-.135.171-.126.265.025.202.126.18.16-.063.101zm2.057 3.242c-.356.199-.471.197-.346-.005.041-.068.116-.115.226-.14.134.084.237.03.307-.16.041-.067.09-.107.144-.12.013.055.197-.017.553-.217l.245-.057c.041-.068.09-.108.144-.12l.163-.04c.039.165-.037.211-.226.14-.163.039-.232.113-.206.222.013.055-.014.061-.082.02l-.144.12-.163.039-.02-.083c-.054.013-.075.047-.062.102-.083.135-.26.235-.533.299zm88.129 2.211c.259-.119.32-.104.182.044-.192.16-.438.334-.739.52-.644.441-.937.539-.88.294.042-.067.144-.12.308-.159l.163-.038c.055-.013.075-.047.062-.102.042-.067.145-.12.308-.159.218-.05.32-.104.307-.159l.289-.24zm-91.103-.558l-.163.038c-.013-.054.104-.168.35-.342.602-.373.923-.477.961-.313l-.163.038c-.055.013-.178.1-.37.26a1.467 1.467 0 01-.615.319zm-5.026-1.936c.218-.051.26-.119.125-.203a.568.568 0 00-.447-.068c-.176-.016-.225.024-.144.12.026.11.066.159.12.146.067.042.114.117.14.227.026.11.066.158.12.145l.082-.02c.054-.012.062-.1.024-.265l-.02-.082zm82.248-27.162c.055-.013.061.015.019.082-.108.026-.251.03-.427.014l-.654.154-.245.058c-.244-.058-.257-.113-.039-.164.15-.094.423-.158.817-.193.327-.077.503-.06.529.05zM29.248 23.648c.15-.093.232-.113.245-.058.039.164-.037.21-.226.14-.054.013-.102.053-.144.12.026.11-.125.203-.451.28-.247.174-.383.206-.409.096l.207-.222.245-.057c.054-.013.075-.047.062-.102-.013-.054.008-.088.062-.101l.409-.096zm10.531-5.079c.122.03.026.11-.288.241-.41.212-.663.358-.759.439-.109.025-.176-.016-.202-.126l.144-.12.163-.039c.164-.038.266-.091.308-.159.288-.241.5-.32.634-.236zM21.461 32.326c-.083.135-.138.148-.163.038-.026-.11.22-.283.74-.52a.64.64 0 01.225-.14c.042-.068.117-.114.226-.14l.245-.058c.039.165-.01.205-.144.12-.055.014-.103.054-.144.121.013.055-.063.102-.226.14-.109.026-.205.106-.288.241-.083.135-.138.148-.163.039a.74.74 0 00-.308.159zm80.148-30.22c.382-.09.585-.08.611.03.013.054-.083.135-.288.24a1.032 1.032 0 01-.611-.029c-.433-.13-.337-.21.288-.241zm-88.007 34.93c-.41.211-.636.351-.677.419-.096.08-.13.06-.101-.063l.124-.203c.068.042.252-.03.553-.217a6.04 6.04 0 01.677-.419c-.013-.055.015-.061.082-.02a.642.642 0 00-.226.14.979.979 0 00-.206.222.642.642 0 00-.226.14zm84.523 2.28c-.243-.058-.283-.107-.12-.145.15-.093.362-.172.634-.236l.164-.038c-.096.08-.083.135.038.164.068.042.02.082-.144.12l-.081.02c-.042.067-.09.107-.144.12l-.082.02c.013.054-.008.088-.063.1-.054.014-.121-.028-.202-.125zm5.542-37.261c.122.029.019.082-.308.159a.742.742 0 00-.346-.005c-.163.038-.279.036-.346-.006-.202-.125-.1-.178.307-.159.327-.077.558-.073.693.01zm1.293 4.027c-.08-.096.022-.15.307-.159.218-.051.395-.035.529.05.122.028.047.075-.226.139-.272.064-.475.054-.61-.03zm6.311 27.54c.164-.039.252-.03.265.024-.042.068-.09.108-.144.12-.068-.041-.095-.035-.082.02.013.055-.035.095-.144.12l-.327.077c-.042.068-.075.047-.101-.062-.026-.11.043-.184.206-.222l.327-.077zm-70.488-15.55l.183.044c.013.055-.035.095-.144.12l-.082.02c-.134-.084-.189-.07-.163.039.013.054-.062.1-.226.14-.163.038-.224.023-.183-.044-.025-.11.044-.184.207-.222.163-.039.266-.092.307-.16.055-.012.088.009.101.064zm-2.315 1.152c.025.11-.016.177-.125.203l-.327.077-.245.058-.082.019c-.026-.11.043-.183.207-.222.26-.119.416-.185.47-.198l.102.063zm-20.74 10.428l-.183-.043c-.273.064-.348.11-.226.14.135.084.148.138.039.164l.019.082c.228.235.364.203.408-.096-.109.025-.17.01-.182-.044.012.055.081-.02.206-.222l-.082.02zm-7.43 9.461c-.523.47-.803.622-.842.458.055-.013.103-.053.144-.12.11-.026.205-.107.289-.242l.615-.318c.041-.067.068-.074.081-.02l-.288.242zM128.951 5.806c-.067-.042-.086-.124-.058-.247.029-.122.056-.128.082-.019-.029.122-.016.177.039.164.163-.038.291.018.385.17.147.138.194.214.139.227-.109.025-.142.004-.101-.063-.026-.11-.093-.152-.202-.126-.109.026-.096.08.039.164l-.063.102-.12-.145-.019-.083c.163-.038.123-.086-.121-.144zM16.907 34.958c-.109.025-.034-.021.226-.14.192-.161.39-.294.595-.4l.245-.058-.225.14c-.193.16-.343.254-.452.28a.931.931 0 01-.39.178zm90.956-33.025c.052.219-.112.258-.49.116-.135-.084-.093-.152.125-.203.218-.051.34-.022.365.087zm-76.852 20.78c.247-.174.383-.206.409-.096-.042.067-.159.181-.351.342-.26.119-.396.151-.409.096l.351-.342zm77.016-20.818l.591-.053.692.01c.08.097.039.165-.125.203a4.572 4.572 0 01-.629-.112l-.529-.048zm-30.39 8.628c-.068-.042.04-.068.326-.077.285-.01.489 0 .61.03.026.109-.11.14-.408.095-.327.077-.503.061-.529-.048zm-52.55 15.23c.369-.144.56-.189.572-.134.013.055-.035.095-.144.12-.054.013-.102.054-.144.121l-.163.039c-.083.135-.138.148-.164.038-.134-.084-.12-.145.043-.183zm.798-.274c.083-.135.18-.215.288-.24.096-.081.157-.067.183.043.026.11-.016.177-.125.202l-.245.058c-.15.093-.184.072-.101-.063zm2.095 3.406c-.109.025-.142.005-.1-.063a.55.55 0 01.186-.304c.234-.228.37-.26.409-.096.038.164-.037.21-.226.14-.163.038-.232.112-.206.221l-.063.102zm56.493 14.338c-.096.08-.063.102.1.063.068.042.15.023.246-.057l.163-.039c.15-.093.138-.148-.038-.164-.273.064-.43.13-.471.197zM58.044 36.45c.08.097.039.165-.125.203-.272.064-.319-.012-.14-.227.151-.093.24-.085.265.024zm52.386-2.37c.164-.038.225-.023.183.044-.054.013-.178.1-.37.26-.163.039-.203-.01-.12-.144.138-.148.24-.201.307-.16zm1.211-.718c.218-.05.381-.09.49-.115.068.042.074.07.02.082.012.055-.036.095-.145.12-.025-.109-.08-.096-.163.04.013.054-.035.094-.144.12-.163.038-.183-.044-.058-.247zm-86.366-3.146c-.192.16-.273.18-.245.058.029-.123.152-.21.37-.26.15-.094.293-.099.428-.015.013.055-.014.061-.082.02-.218.05-.375.116-.47.197zm89.585 1.436c.109-.026.197-.018.264.024.013.055-.056.129-.206.222-.164.038-.252.03-.265-.025.013.055.082-.019.207-.221zm-17.124 7.843c-.109.026-.176-.016-.202-.126-.067-.041-.053-.102.043-.183.11-.026.177.016.202.126.093.151.08.212-.043.183zm10.278-4.326c.109-.025.176.017.202.126.013.055-.008.089-.063.102l-.163.038c-.109.026-.176-.016-.202-.126.042-.067.117-.114.226-.14zM73.976 5.233c.055-.013.116.001.183.043l.082-.019.081-.02c-.096.081-.253.147-.47.198-.218.052-.306.043-.265-.024.042-.068.171-.127.39-.178zm41.531.965c-.234.229-.37.26-.408.097-.013-.055.089-.108.307-.16.109-.025.197-.017.264.025l-.163.038zM15.408 35.917c-.163.038-.224.024-.182-.044l.163-.038c.042-.068.117-.114.226-.14.192-.16.246-.173.163-.038a.567.567 0 01-.37.26zm96.968-2.729a.552.552 0 01.187-.304c.109-.025.177.017.202.126.026.11.005.143-.062.101-.026-.11-.101-.063-.226.14-.096.08-.129.06-.101-.063zm-15.929-30.3c.244.058.346.005.308-.159.041-.068-.02-.082-.183-.044a.568.568 0 00-.37.26l.245-.057zm-21.53 8.535l-.082.02c-.068-.043-.129-.057-.183-.044l.163-.039c-.013-.055.008-.088.063-.101.163-.039.251-.03.264.024.013.055-.008.089-.062.101l-.164.039zM30.17 23.17c.11-.026.068.042-.124.202-.192.161-.316.248-.37.26-.055.014-.013-.054.125-.202a.567.567 0 01.37-.26zm82.568-17.014c-.176-.016-.216-.064-.12-.145l.245-.057c.135.083.093.151-.125.202zM75.094 31.222c-.135-.084-.12-.145.043-.183.122.029.19.07.202.125-.042.068-.056.13-.043.184l-.202-.126zM31.828 22.52c-.096.08-.15.094-.163.039-.026-.11.009-.204.105-.285.042-.067.102-.053.183.044l-.125.202zm35.23-9.68c-.096.08-.09.107.02.082.163-.039.265-.092.307-.16.096-.08.09-.107-.02-.081-.163.038-.265.091-.307.159zm7.004 19.492c-.068-.042-.047-.076.062-.102.163-.038.258-.003.284.107-.042.067-.157.066-.346-.005zm35.94-30.47c.055-.012.116.002.183.044l-.125.203-.202-.126c-.013-.054.035-.095.144-.12zm-27.42 7.323c-.164.039-.185.072-.063.101.067.042.128.057.182.044.055-.013.089.008.102.063l.062-.101c-.026-.11-.12-.145-.284-.107zm-70.109 28.55c-.272.063-.312.015-.12-.146.163-.038.251-.03.264.025l-.144.12zm-.677.419l-.207.222c-.067-.042-.053-.103.043-.184.084-.135.18-.215.289-.241.067.042.025.11-.125.203zm62.217-6.764c-.026-.11.015-.177.124-.203.055-.012.095.036.12.145l-.124.203-.12-.145zm43.201-24.9c-.026-.11.016-.177.125-.203.067.042.107.09.12.145-.041.068-.09.108-.144.12l-.101-.062zM72.65 5.458c.096-.08.102-.053.02.082-.084.135-.18.216-.289.242-.109.025-.143.004-.101-.063a.568.568 0 00.37-.26zm41.372.657c-.068-.042-.074-.07-.02-.082.055-.013.116.002.183.044.109-.026.197-.018.264.024.055-.013.055-.013 0 0 .013.055-.035.095-.144.12-.176-.016-.271-.051-.283-.106zm-38.797 26.03l.144-.121c.067.042.107.09.12.145l-.144.12c-.054.013-.094-.035-.12-.145zm-60.35 4.07c-.163.04-.197.018-.101-.062.192-.16.301-.186.327-.077.013.055-.063.101-.226.14zm96.733-34.124c-.067-.042-.107-.09-.12-.145.125-.202.213-.194.264.025.013.054-.035.094-.144.12zm-38.576 29.53c.15-.093.184-.072.101.063-.125.203-.2.25-.226.14l.125-.203zm46.569-2.906c.218-.052.34-.023.365.087l-.163.038c-.109.026-.176-.016-.202-.125zM66.078 45.3l.125-.202c.083-.135.076-.163-.02-.082-.041.067-.144.12-.307.159l.202.125zm28.429-4.873c-.067-.042-.156-.05-.264-.025-.097.08-.138.148-.125.203l.245-.058c.109-.025.157-.065.144-.12zm-69.909-9.794c-.109.026-.17.011-.183-.043l.125-.203c.055-.013.088.008.101.063.013.055-.001.116-.043.183zm42.624 14.398l-.082.02c.013.054-.008.088-.062.1.025.11.093.152.202.127l.062-.102c-.026-.11-.066-.158-.12-.145zm7.362-13.776c.122.029.143-.005.063-.102-.026-.11-.005-.143.062-.101.135.084.154.166.058.246-.083.135-.138.148-.163.039l-.101-.063c-.013-.055.014-.061.081-.02zm-49.867-5.242c.055-.013.089.008.102.063.038.164-.01.204-.145.12-.108.026-.142.005-.1-.062.041-.068.09-.108.143-.121zm46.518 6.03c.067.042.073.07.019.082-.135-.084-.19-.07-.163.039-.042.067-.07.074-.082.019-.026-.11.016-.177.125-.203.041-.067.075-.046.1.063zm9.935-1.386l-.125.203c-.11.026-.17.01-.183-.044-.013-.055.035-.095.144-.12l.164-.039zM130.02 6.68c-.109.026-.177-.016-.202-.125-.026-.11.028-.123.163-.039l.202.126-.163.038zM85.994 45.291c-.096.08-.15.093-.163.039-.013-.055.029-.123.125-.203.041-.068.069-.074.081-.02l-.043.184zm30.485-14.455c.054-.013.061.015.019.082a.739.739 0 01-.307.16c-.055.012-.055.012 0 0-.013-.055.008-.09.062-.102l.082-.02c-.013-.054.008-.088.062-.1l.082-.02zm-95.614 1.89c-.109.026-.121-.03-.038-.164l.062-.101c.055-.013.095.035.12.144l-.144.121zm53.85-.548c.11-.026.197-.018.265.024l-.082.02c-.042.067-.123.086-.245.057-.08-.097-.06-.13.062-.101zm38.533-26.054c-.081-.097-.06-.13.062-.101.109-.026.197-.018.264.024l-.081.02c-.042.067-.124.086-.245.057zM14.443 36.577c-.055.013-.095-.035-.12-.145l.143-.12c.11-.026.122.029.04.164l-.063.101zm5.89-3.552c-.11.026-.123-.03-.04-.164l.063-.102c.054-.013.094.036.12.145l-.144.12zm60.253-23.89l-.327.077a.355.355 0 00-.326.077l.326-.077c.462.007.57-.019.327-.077zM60.054 44.987c-.054.013-.094-.036-.12-.145l.125-.203.038.164c.013.055-.001.116-.043.184zm13.593-13.684c.109-.026.143-.005.101.063l-.144.12c-.163.039-.15-.022.043-.183zM59.203 44.667c-.055.013-.088-.008-.101-.062-.013-.055.035-.095.144-.121.054-.013.088.008.101.063-.042.067-.09.108-.144.12zM81.048 9.633c-.096.08-.117.114-.062.101.163-.039.266-.092.307-.16.096-.08.117-.113.063-.1a.742.742 0 00-.308.159zM88.32 7.92c-.055.013-.076.046-.063.101.026.11.066.158.12.145.055-.013.076-.047.063-.101-.026-.11-.066-.158-.12-.145zm-5.301 21.435c-.013-.054-.053-.103-.12-.145-.068-.041-.122-.029-.164.039.026.11.093.151.202.126l.082-.02zm-17.557 3.44c.109-.025.184-.072.226-.14l-.101-.062-.082.02-.062.1c-.042.068-.035.096.02.083zm-54.632 6.02c-.243-.058-.229-.12.043-.183.042-.068.07-.074.082-.02l-.125.203zm56.455 2.824c-.135-.084-.183-.043-.144.12l.082-.018c.163-.039.238-.086.225-.14l-.163.038zM44.06 16.608l.101.063c.013.055-.035.095-.144.12l-.1-.062c-.014-.055.034-.095.143-.12zM97.168 7.05l-.163.039c-.067-.042-.074-.07-.02-.082l.328-.077c.067.042.019.082-.145.12zm-33.69 7.066l-.163.038c-.067-.042-.074-.069-.02-.082l.327-.077c.068.042.02.082-.144.12zM86.73 45.118c-.026-.11-.012-.17.043-.183.067.042.107.09.12.145.013.054-.008.088-.062.1l-.101-.062zM7.915 40.714c-.192.16-.226.14-.101-.063.096-.08.177-.1.245-.058l-.144.12zm68.828 6.669c-.054.012-.088-.009-.101-.063-.013-.055.008-.089.062-.102l.202.126-.163.039zM71.37 32.619l.202.126-.163.038c-.055.013-.089-.008-.101-.063-.013-.055.007-.088.062-.101zm6.323-26.615c-.026-.11-.066-.158-.12-.145-.055.013-.069.074-.043.183.054-.013.088.008.1.063l.083-.02-.02-.081zm-6.538.066c.08.097.026.11-.163.039-.067-.042-.074-.07-.02-.083.11-.025.17-.01.183.044zM1.407 41.64c.026.109-.016.176-.125.202.013.055-.014.061-.082.02-.025-.11.016-.178.125-.203-.013-.055.014-.062.082-.02zm75.758-30.92l-.163.039c-.067-.042-.047-.076.062-.102.164-.038.279-.037.346.005l-.245.058zm3.295 21.318c-.11.026-.13.06-.063.102.013.054.047.075.101.063.055-.013.076-.047.063-.102-.013-.055-.047-.075-.101-.063zm-12.118 12.99c-.163.039-.232.113-.207.222.013.055.082-.019.207-.222zm47.604-13.893c.054-.013.061.014.019.082.013.055-.035.095-.144.12-.055.013-.088-.008-.101-.062l.082-.02c-.013-.054.035-.094.144-.12zm-50.34-17.867l-.061.101.019.082c.067.042.115.002.144-.12l-.101-.063zm62.841-7.777c-.025-.11-.005-.143.063-.101.054-.013.088.008.101.063l.019.082c-.054.013-.115-.002-.183-.044zm-51.07 41.656c-.054.013-.088-.008-.1-.063-.014-.055.034-.095.143-.12l.02.081c.013.055-.008.089-.063.102zm25.784-9.883l.163-.039c.013.055-.008.089-.062.102.013.055-.008.088-.062.101 0 0-.034-.02-.101-.063-.013-.054.007-.088.062-.101zm12.395-5.95l.101.062c.013.055-.035.095-.144.12-.054.013-.088-.008-.101-.062l.082-.02c-.013-.054.008-.088.062-.1-.012-.055-.012-.055 0 0zm-104.212 7.12c-.054.012-.088-.009-.1-.064.04-.067.089-.107.143-.12l.02.082.038.164c-.054.013-.088-.008-.1-.063zM119.496 29c.012.054-.008.088-.063.1-.054.014-.088-.007-.101-.062.042-.068.09-.108.144-.12l.02.082zM79.357 46.767l-.019-.082c.042-.068.09-.108.144-.12l.02.082c.012.054-.036.095-.145.12zM100.965 6.33l-.062.101.019.082c.055-.013.103-.053.144-.12-.012-.055-.046-.076-.101-.063zm-27.429 4.725c-.109.025-.13.06-.062.101l.081-.02c.164-.038.212-.078.145-.12l-.164.039zm9.491-6.567c.299.045.38.026.245-.058l-.163.039c-.122-.03-.203-.01-.245.057l.163-.038zm.108 41.476c.067.042.128.057.183.044.054-.013.088.008.1.063.04.164-.055.129-.283-.107zm2.632-37.53l.02.083c.013.055.046.076.1.063l.063-.101c-.013-.055-.074-.07-.183-.044zM82.536 43.42l-.144.12.1.063c.055-.013.076-.047.063-.101l-.02-.082zM71.604 7.61l-.163.039c-.013-.055.008-.088.062-.101l.245-.058c.013.055-.035.095-.144.12zm44.716-1.256l-.164.038c-.013-.055.008-.088.063-.101l.163-.039c.067.042.047.076-.062.102zM68.307 7.52c.067.041.059.13-.024.265-.042.068-.048.04-.02-.082-.012-.055.002-.116.043-.183zm2.082 4.448c-.068-.042-.156-.05-.265-.024-.041.067-.008.088.101.063l.164-.039zm9.824 18.654c-.067-.041-.156-.05-.265-.024-.041.068-.007.089.102.063l.163-.038zM85.158 45.4c-.109.026-.115-.001-.02-.082.11-.025.17-.01.183.044l-.163.038zM67.384 32.17c.068.042.122.029.164-.039-.039-.164-.12-.144-.245.058l.081-.02zm-50.353-2.18c-.013-.055-.074-.07-.183-.044-.042.068-.035.095.02.082l.163-.038zM1.389 43.03c-.054.013-.06-.015-.02-.082.11-.026.17-.011.184.043l-.164.039zm69.515 2.261c.122.03.204.01.246-.057l-.082.02c-.026-.11-.08-.098-.163.038zm6.263-.867c.068.041.122.029.164-.039-.026-.11-.08-.096-.164.039z" fill="#FBC901"/></svg>