<svg data-name="Layer 1" xmlns="http://www.w3.org/2000/svg" viewBox="0 0 400 300" width="406" height="306" class="illustration styles_illustrationTablet__1DWOa"><ellipse cx="207.67" cy="256.99" rx="130.29" ry="18.73" fill="#e6e6e6" opacity=".45"/><path d="M125 247.21s-2.39 3.4-5.88 2.76-5.3 2.45-2.47 4.16 11.83-.08 11.83-.08l1.12-5z" fill="#572fff"/><path fill="#e6e6e6" d="M168.1 53.69h117.77V257H168.1z"/><path d="M122.29 95.28s-14.19 4.88-18.44 24.63-9.5 34.25 0 39.75 22-15.09 22-15.09z" fill="#572fff"/><path d="M125.89 144.57l-3.6-49.29s-14.19 4.88-18.44 24.63" fill="#fff" opacity=".2"/><path d="M256.08 40.22s-10.68-2.87-13-12.79c0 0 16.51-3.4 17 13.65z" fill="#572fff" opacity=".58"/><path d="M257.38 39.15s-7.5-11.74-1-22.78c0 0 12.6 7.92 7.08 22.78z" fill="#572fff" opacity=".73"/><path d="M259.3 39.15s3.89-12.45 15.78-14.86c0 0 2.26 8.07-7.65 14.86z" fill="#572fff"/><path fill="#24285b" d="M251.57 38.91l2.22 14.78h13.62l1.94-14.78h-17.78z"/><path fill="#fff" d="M181.218 190.781l7.502-3.312 12.148 27.518-7.502 3.312z"/><path fill="#a5a5a5" opacity=".4" d="M181.1 67.58h91.18v44.49H181.1z"/><path fill="#fff" d="M201.13 134.8h7.72v30.08h-7.72z"/><path d="M186.6 99.28s12.77 0 16.77 26.39-2.24 77.69-35.27 117.33v-78.13z" fill="#a5a5a5" opacity=".4"/><path fill="#a5a5a5" opacity=".4" d="M181.1 120.38h91.18v44.49H181.1z"/><path d="M149.06 85.57s36 0 40.29 20-18.75 79.75-18.75 79.75l-40.69-1.75s1.7-22.25-4.43-40.25-28.96-50.25 23.58-57.75z" fill="#572fff"/><path d="M168.1 108s-11.43 11.52-5.66 29.77-34 17.75-34 17.75 1.09 6.44 1.34 11.53c0 0 17.24 13 43.94 9.69l1.6-4.57 6.84-16.81z" opacity=".08"/><path d="M124.58 65.64S127 73 130.16 77.17a3.88 3.88 0 005.45.72c2.09-1.64 4.44-4.46 3.64-8.55l-.52-7.1a6.92 6.92 0 00-5.7-5.61c-5.23-1.18-10.13 4.62-8.45 9.01z" fill="#f4a28c"/><path fill="#f4a28c" d="M140.27 66.19l8.79 19.38-11.44 8.49-2.29-18.22 4.94-9.65z"/><path d="M126.47 65.19a31.63 31.63 0 006.33-3.29 6.41 6.41 0 002.76 6.49 5.24 5.24 0 006.64-.55l-4-9.07a7.86 7.86 0 00-6.4-4.89 29.73 29.73 0 00-3.68-.19c-3.07.06-6.17 3.45-9.28 2.68a1.86 1.86 0 00-2.24 2.28c.77 3 3.12 7.1 7.52 7a7.35 7.35 0 002.35-.46z" fill="#24285b"/><path d="M134.71 68.51s-1.11-2.76 1-3.42 3.77 3.31 1.14 4.86zm-8.38 1.67l-.82 3.58a1.24 1.24 0 001.49 1.48l2.93-.64z" fill="#f4a28c"/><path d="M135.61 77.89s2.62-3.6 2.63-5.91c0 0 3.52 6.72-1.82 12.55z" fill="#ce8172" opacity=".31"/><path fill="#ffd200" d="M93.93 111.58l9 36 22.55 8.66 20.45-15.33-3.73-38-22.27 17-26-8.33z"/><path fill="#ffd200" d="M119.93 119.91l-20.66-15.67 1.78 9.62 18.88 6.05z"/><path fill="#fff" opacity=".37" d="M119.93 119.91l-20.66-15.67 1.78 9.62 18.88 6.05z"/><path d="M144.21 123.35s-7.21 17.42-20.51 21.22-22-2-22-2l1.25 5 22.55 8.66 20.45-15.33z" opacity=".08"/><path d="M171.4 101.82a10.29 10.29 0 0117.21 2.8c4.86 11.45 10.44 31.77 2.11 53.82-12.75 33.75-63-3.5-63-3.5l7.55-8.25s26.47 12.5 37 6c8.73-5.44-13.92-35.69-.87-50.87z" fill="#572fff"/><path d="M171.4 101.82a10.29 10.29 0 0117.21 2.8c4.86 11.45 10.44 31.77 2.11 53.82-12.75 33.75-63-3.5-63-3.5l7.55-8.25s26.47 12.5 37 6c8.73-5.44-13.92-35.69-.87-50.87z" fill="#fff" opacity=".2"/><path d="M128.73 153.8s-8.8-1.72-9.47-8.72 9.67 3.33 11.5 0 5.31-3.45 4.49 1.61zm-10.98-35.54s2.94-11.52 7.73-12.52c2.87-.6 2.44 1.5 1.64 3.28a9.71 9.71 0 00-.82 5.28l.09.68-6.46 4.93z" fill="#f4a28c"/><path fill="#ffd200" d="M119.93 119.91l15.92-24.63 1.82 11.09-17.74 13.54z"/><path fill="#fff" opacity=".37" d="M119.93 119.91l15.92-24.63 1.82 11.09-17.74 13.54z"/><path d="M160.77 232.73s3.09 2.79 2 6.18 1.79 5.56 3.83 3 1.4-11.79 1.4-11.79l-4.81-1.73z" fill="#572fff"/><path fill="#e6e6e6" d="M126.45 122.13l.85 7.45 12.08-8.08-1.04-7.97-11.89 8.6z"/><path d="M129.61 249.07l-6.87-1.86 19.46-54.46-7.78-9 36.18 1.56a23.25 23.25 0 01-8.72 16.9 52.57 52.57 0 00-9.06 9 211.64 211.64 0 00-23.21 37.86z" fill="#24285b"/><path fill="#a5a5a5" d="M264.21 81.724l8.076 1.417-5.197 29.628-8.077-1.417zm-49.373.069l7.653 1.343-5.197 29.628-7.654-1.343z"/><path fill="#a5a5a5" opacity=".44" d="M224.22 81.293l7.752 1.36-5.198 29.628-7.751-1.36z"/><path fill="#fff" d="M216.27 133.857l7.653 1.343-5.197 29.628-7.654-1.343z"/><path fill="#a5a5a5" opacity=".44" d="M224.223 134.01l7.751 1.36-5.197 29.628-7.752-1.36zm-18.485-52.712l7.752 1.36-5.197 29.628-7.752-1.36z"/><path fill="#a5a5a5" d="M232.04 82h8.79v30.08h-8.79z"/><path fill="#fff" d="M242.06 82h7.72v30.08h-7.72z"/><path fill="#a5a5a5" opacity=".4" d="M181.1 173.91h91.18v44.49H181.1z"/><path fill="#a5a5a5" d="M264.21 187.346l8.076 1.417-5.197 29.627-8.077-1.417zm-23.3.974h8.79v30.08h-8.79z"/><path fill="#fff" d="M250.94 188.32h7.72v30.08h-7.72z"/><path fill="#a5a5a5" d="M263.904 133.817l8.076 1.417-5.197 29.628-8.077-1.417zm-32.054.983h8.79v30.08h-8.79z"/><path fill="#fff" d="M241.88 134.8h7.72v30.08h-7.72z"/><path fill="#f2f2f2" d="M181.1 228.73h91.18v19.07H181.1z"/><circle cx="226.69" cy="237.13" r="3" fill="#a5a5a5"/><path fill="#fff" d="M225.22 187.31l7.653 1.343-5.198 29.627-7.653-1.342z"/><path fill="#a5a5a5" opacity=".44" d="M233.173 187.461l7.751 1.36-5.197 29.628-7.752-1.36z"/><path fill="#a5a5a5" d="M209.555 187.304l7.653 1.343-5.197 29.627-7.653-1.342z"/><path fill="#a5a5a5" opacity=".44" d="M217.508 187.455l7.752 1.36-5.198 29.628-7.751-1.36z"/><path d="M129.91 183.58l-1.09 26.54A12.59 12.59 0 00136 222l25.38 12.15 2.49-6.13-14.76-10.72a11.11 11.11 0 01-4-12.49l6.75-20.27z" fill="#24285b"/></svg>