<svg width="120" height="35" fill="none" xmlns="http://www.w3.org/2000/svg"><g clip-path="url(#clip0)" fill="#fff"><path d="M70.433 12.287a2.907 2.907 0 00-.993-.74 3.31 3.31 0 00-1.376-.273c-.535 0-1.03.095-1.493.287a4.108 4.108 0 00-1.26.811c-.379.35-.704.767-.98 1.255a6.962 6.962 0 00-.655 1.627h7.532a1.6 1.6 0 00.018-.242c.005-.117.01-.233.01-.345a4.2 4.2 0 00-.201-1.304 3.186 3.186 0 00-.602-1.076zm14.264.072a3.045 3.045 0 00-1.096-.771c-.428-.184-.913-.273-1.457-.273a4.22 4.22 0 00-1.982.48 4.906 4.906 0 00-1.586 1.335c-.45.569-.797 1.25-1.056 2.038-.258.79-.387 1.659-.387 2.6 0 .587.084 1.124.254 1.617.169.493.4.914.704 1.264.302.35.663.623 1.082.816.419.197.89.29 1.403.29.722 0 1.39-.17 2.005-.51a5.176 5.176 0 001.603-1.398 6.854 6.854 0 001.07-2.084 8.359 8.359 0 00.387-2.586c0-.596-.08-1.129-.245-1.608a3.476 3.476 0 00-.7-1.21z"/><path d="M93.584 5.928L94.742.34H60.661l-5.59 26.856h28.495l-1.568 7.202h27.297l6.018-28.474H93.584v.004zm-20.045 9.518c-.01.189-.023.377-.04.57a33.11 33.11 0 00-.05.569 4.528 4.528 0 01-.062.47H63.382c-.008.121-.013.238-.017.35-.005.112-.005.228-.005.35 0 .716.103 1.326.307 1.832.205.506.473.919.807 1.237.33.318.704.551 1.113.694.41.144.829.216 1.248.216.917 0 1.657-.162 2.214-.48a3.228 3.228 0 001.273-1.295h2.357a4.67 4.67 0 01-.722 1.501c-.334.466-.757.87-1.27 1.21-.511.34-1.104.61-1.776.802a8.067 8.067 0 01-2.223.292 6.234 6.234 0 01-2.188-.381 5.11 5.11 0 01-1.795-1.125c-.512-.497-.913-1.107-1.211-1.833-.299-.726-.446-1.56-.446-2.5 0-1.287.178-2.46.535-3.518.356-1.058.85-1.963 1.488-2.72a6.64 6.64 0 012.285-1.757 6.845 6.845 0 012.918-.623c.712 0 1.39.126 2.026.377a4.85 4.85 0 011.68 1.093c.48.48.864 1.067 1.144 1.77.285.7.424 1.501.424 2.411.004.139 0 .3-.01.488zm10.517 8.076l.4-1.905h-.204a5.466 5.466 0 01-4.379 2.146c-.695 0-1.35-.13-1.956-.394a4.743 4.743 0 01-1.603-1.134 5.363 5.363 0 01-1.087-1.787c-.263-.7-.397-1.48-.397-2.344 0-.838.085-1.64.25-2.402.17-.766.405-1.475.717-2.124a8.488 8.488 0 011.114-1.77 7.2 7.2 0 011.443-1.35c.53-.371 1.1-.658 1.715-.855a6.264 6.264 0 011.924-.3c.5 0 .971.067 1.421.206.45.139.86.331 1.225.578.366.246.677.542.94.892.263.35.455.73.575 1.147h.205L88.074 4h2.254l-4.12 19.512h-2.152v.009zm22.312 7.205h-4.989l-3.26-7.2h-.41l-6.036 7.2h-4.958l9.408-11.212-4.36-9.917h5.082l2.9 6.83h.271l5.484-6.83h5.024l-8.98 10.415 4.824 10.714zM24.804 9.419h-2.37l-.811 4.916h2.379c1.844 0 2.788-1.058 3.015-2.474.236-1.43-.351-2.442-2.213-2.442zm-11.953-.067c-2.214 0-4.16 1.73-4.664 4.849-.507 3.007.807 4.602 2.891 4.602 2.214 0 4.147-1.72 4.655-4.84.504-3.002-.788-4.61-2.882-4.61z"/><path d="M4.098 4.046L0 23.732h53.712l4.099-19.686H4.098zm13.475 10.155c-.664 3.965-3.377 6.336-6.553 6.336-3.3 0-5.34-2.491-4.668-6.57.66-3.965 3.381-6.35 6.58-6.35 3.274 0 5.314 2.501 4.641 6.584zm11.35-2.34c-.383 2.313-2.107 4.083-5.002 4.083h-2.562l-.73 4.418h-1.884L20.82 7.788h4.455c2.89.004 4.027 1.752 3.648 4.073zm10.25-2.437h-5.938l-.633 3.831h5.163l-.33 1.627h-5.104l-.633 3.85h5.751l-.343 1.63h-7.564l2.076-12.574h7.898l-.343 1.636zm10.655 10.938h-1.733l-4.49-9.218h-.111l-1.871 9.223h-1.884l2.637-12.575h1.746l4.454 9.232h.116L50.6 7.792h1.866l-2.637 12.57zm68.391-10.889a1.756 1.756 0 01-1.256-.524 1.834 1.834 0 01-.384-.57 1.736 1.736 0 01-.138-.694 1.785 1.785 0 01.522-1.264 1.8 1.8 0 01.565-.385c.214-.094.446-.139.691-.139a1.76 1.76 0 011.256.524c.165.166.289.354.383.57.094.215.138.448.138.694a1.78 1.78 0 01-.521 1.264 1.816 1.816 0 01-.566.385c-.214.09-.445.14-.69.14zm0-.336c.267 0 .508-.067.73-.197.219-.13.392-.31.526-.529a1.43 1.43 0 00.196-.735 1.43 1.43 0 00-.196-.735 1.52 1.52 0 00-.526-.529 1.404 1.404 0 00-.73-.197c-.268 0-.508.067-.731.197-.218.13-.392.31-.525.53a1.42 1.42 0 00-.196.734c0 .269.066.515.196.735.129.22.307.394.525.529.218.134.463.197.731.197zm-.606-.65V6.834h.788a.504.504 0 01.432.233c.054.076.076.17.076.282 0 .112-.027.21-.08.291a.572.572 0 01-.2.189.506.506 0 01-.25.062h-.61v-.224h.534a.303.303 0 00.205-.08c.063-.054.089-.135.089-.234 0-.103-.031-.179-.089-.224a.314.314 0 00-.196-.067h-.414v1.425h-.285zm.958-.77l.409.766h-.32l-.397-.767h.308z"/></g><defs><clipPath id="clip0"><path fill="#fff" transform="translate(0 .34)" d="M0 0h120v34.062H0z"/></clipPath></defs></svg>