<svg width="118" height="25" fill="none" xmlns="http://www.w3.org/2000/svg"><path fill-rule="evenodd" clip-rule="evenodd" d="M72.589 20.305a3 3 0 00.985-.183v3.055c-.885.28-1.686.417-2.39.417-3.025 0-4.536-1.66-4.536-4.988V9.7h-.004V6.533h.004V.405h4.413v6.128h2.524V9.7H71.06v8.938c0 1.113.511 1.667 1.528 1.667zm18.558-5.755v1.762H80.574c.165 1.426.607 2.449 1.315 3.066.713.618 1.789.927 3.226.927 1.443 0 3.205-.33 5.286-.996l-.346 3.29c-1.974.655-3.828.985-5.552.995-2.763 0-4.866-.74-6.308-2.22-1.438-1.484-2.162-3.651-2.162-6.51 0-2.768.665-4.914 1.996-6.436 1.331-1.522 3.21-2.284 5.633-2.284 2.358 0 4.2.735 5.515 2.204 1.314 1.474 1.97 3.54 1.97 6.202zm-7.485-5.116c-1.874 0-2.912 1.299-3.12 3.902h6.224c-.086-1.341-.378-2.331-.885-2.96-.5-.628-1.24-.942-2.219-.942zm15.816 14.16c-1.728 0-3.474-.21-5.238-.63V19.53c1.664.505 3.276.765 4.844.776 1.177 0 2.012-.16 2.513-.485.5-.32.751-.851.751-1.592 0-.526-.128-.931-.384-1.214-.255-.281-.681-.462-1.272-.547l-2.853-.453c-2.945-.447-4.409-2.06-4.398-4.85 0-1.724.564-2.991 1.693-3.807 1.129-.808 2.88-1.213 5.26-1.213 1.895 0 3.705.234 5.43.703v3.321c-1.954-.49-3.647-.734-5.068-.734-1.022 0-1.757.138-2.21.42-.452.282-.676.73-.676 1.342 0 .851.485 1.352 1.448 1.495l3.062.453c2.938.447 4.413 2.108 4.413 4.978 0 3.647-2.439 5.472-7.315 5.472zm18.315-3.474v3.055c-.887.281-1.69.42-2.398.42-3.023 0-4.535-1.662-4.535-4.989v-7.098h.003V5.183h-.003V.405h4.413v6.128h2.524V9.7h-2.524v8.938c0 1.64 1.216 1.938 2.52 1.482z" fill="#38424C"/><path fill-rule="evenodd" clip-rule="evenodd" d="M44.946 20.337c.262 0 .554-.049.89-.139l-.517 3.008a4.84 4.84 0 01-1.916.388c-1.624 0-2.64-.707-3.061-2.118h-.09c-1.177 1.4-2.806 2.108-4.898 2.118-1.667 0-2.971-.468-3.914-1.41-.947-.943-1.42-2.225-1.42-3.86 0-1.427.367-2.518 1.107-3.274.74-.761 1.884-1.245 3.433-1.453l5.111-.639v-.575c0-1.043-.261-1.794-.783-2.257-.526-.458-1.394-.692-2.598-.692-1.56 0-3.268.335-5.116 1V7.235a16.194 16.194 0 015.877-1.091c4.712 0 7.065 2.076 7.065 6.24v7.08c0 .58.277.873.83.873zm-8.438-.032c1.3 0 2.353-.495 3.163-1.48V15.86l-3.614.452c-1.156.123-1.726.75-1.715 1.874 0 1.41.719 2.119 2.166 2.119zm16.126 3.29c-3.002 0-4.51-1.662-4.51-4.989V.405h4.446v18.233c0 1.102.511 1.656 1.528 1.667.246 0 .563-.053.95-.154v3.024a7.403 7.403 0 01-2.414.42zm9.7 0c-3.003 0-4.51-1.662-4.51-4.989V.405h4.446v18.233c0 1.102.51 1.656 1.527 1.667.245 0 .56-.052.945-.153v3.025a7.409 7.409 0 01-2.409.417z" fill="#A73D95"/><path fill-rule="evenodd" clip-rule="evenodd" d="M15.332 19.058l-2.589 3.377 8.075-.025c2.337-.503 2.509-2.75 2.502-6.143-.007-3.565.037-6.356.044-8.542l-3.53 5.034c.035 1.841.093 5.416-.323 5.722-.86.632-3.042.572-4.179.577zM16.505.085C15.948.1 15.348.11 14.698.11.028.117.046-1.651.046 8.723c0 1.78-.158 8.16.112 9.409l3.462-.034c0-2.747-.04-11.244-.033-12.754.015-.459-.009-.648.009-.647.275.006 1.408.006 1.64.005 2.055-.01 5.124-.068 7.984.01L16.505.086z" fill="#38424C"/><path fill-rule="evenodd" clip-rule="evenodd" d="M23.874 1.928c-1.252-.008-2.508.011-3.762-.007-1.711-.027-1.575.514-2.451 1.757-.82 1.163-8.536 12.393-9.382 13.144l-2.072-2.845c-.695.878-1.857 2.429-2.436 3.473.244.704 3.955 5.96 4.562 6.55.875-.9 1.989-2.726 2.762-3.822C24 1.91 21.032 6.038 23.874 1.928z" fill="#A73D95" stroke="#A73D95" stroke-width=".9" stroke-miterlimit="22.926"/></svg>