<svg width="118" height="25" fill="none" xmlns="http://www.w3.org/2000/svg"><path fill-rule="evenodd" clip-rule="evenodd" d="M72.59 20.408a3 3 0 00.984-.183v3.06c-.885.281-1.686.419-2.39.419-3.024 0-4.536-1.664-4.536-4.997V9.784h-.003V6.611h.003V.472h4.413v6.14h2.524v3.172H71.06v8.955c0 1.114.511 1.67 1.528 1.67zm18.557-5.765v1.765H80.574c.165 1.43.607 2.453 1.315 3.072.713.619 1.789.928 3.226.928 1.443 0 3.205-.33 5.286-.997l-.346 3.295c-1.974.657-3.827.988-5.552.998-2.763 0-4.866-.741-6.308-2.224-1.438-1.488-2.162-3.658-2.162-6.522 0-2.773.665-4.923 1.996-6.448 1.332-1.525 3.21-2.288 5.633-2.288 2.358 0 4.2.736 5.515 2.207 1.315 1.478 1.97 3.547 1.97 6.214zm-7.485-5.125c-1.874 0-2.912 1.3-3.12 3.91h6.224c-.086-1.345-.378-2.337-.884-2.966-.5-.63-1.24-.944-2.22-.944zm15.816 14.186c-1.728 0-3.473-.212-5.238-.631V19.63c1.664.506 3.276.766 4.844.777 1.177 0 2.012-.16 2.513-.485.5-.32.751-.853.751-1.595 0-.527-.128-.933-.384-1.216-.255-.282-.681-.464-1.272-.549l-2.853-.453c-2.945-.448-4.409-2.064-4.397-4.859 0-1.728.564-2.997 1.692-3.814 1.129-.81 2.88-1.215 5.26-1.215a20.6 20.6 0 015.43.704v3.328c-1.954-.49-3.647-.736-5.068-.736-1.022 0-1.757.138-2.21.421-.452.282-.676.73-.676 1.344 0 .853.485 1.354 1.448 1.498l3.062.454c2.938.448 4.413 2.112 4.413 4.987 0 3.653-2.439 5.482-7.315 5.482zm18.315-3.481v3.061c-.887.282-1.69.42-2.398.42-3.023 0-4.535-1.664-4.535-4.997v-7.112h.003V5.26h-.003V.472h4.413v6.14h2.524v3.172h-2.524v8.955c0 1.643 1.216 1.941 2.52 1.484z" fill="#fff"/><path fill-rule="evenodd" clip-rule="evenodd" d="M44.946 20.44c.261 0 .554-.048.89-.139l-.518 3.014c-.612.26-1.25.389-1.915.389-1.624 0-2.641-.71-3.062-2.122h-.09c-1.177 1.402-2.805 2.112-4.898 2.122-1.666 0-2.971-.47-3.913-1.413-.947-.944-1.421-2.23-1.421-3.867 0-1.43.367-2.522 1.107-3.28.74-.762 1.884-1.247 3.434-1.456l5.11-.64v-.576c0-1.045-.26-1.797-.782-2.26-.527-.46-1.395-.694-2.598-.694-1.56 0-3.269.336-5.116 1.002V7.315a16.17 16.17 0 015.877-1.093c4.712 0 7.065 2.08 7.065 6.25v7.094c0 .58.277.875.83.875zm-8.438-.032c1.3 0 2.353-.496 3.162-1.483v-2.97l-3.614.454c-1.156.122-1.725.75-1.714 1.876 0 1.414.718 2.123 2.166 2.123zm16.125 3.296c-3.002 0-4.51-1.664-4.51-4.997V.472h4.446V18.74c0 1.103.512 1.658 1.528 1.67.247 0 .564-.053.95-.155v3.03a7.395 7.395 0 01-2.414.42zm9.7 0c-3.003 0-4.509-1.664-4.509-4.997V.472h4.445V18.74c0 1.103.51 1.658 1.528 1.67.245 0 .56-.053.944-.154v3.03a7.397 7.397 0 01-2.408.419z" fill="#A73D95"/><path fill-rule="evenodd" clip-rule="evenodd" d="M15.332 19.16l-2.589 3.383 8.075-.025c2.337-.504 2.509-2.755 2.502-6.154-.007-3.572.037-6.367.044-8.557l-3.53 5.043c.035 1.844.093 5.425-.323 5.732-.86.633-3.042.573-4.179.578zM16.505.152c-.557.015-1.157.026-1.807.026C.028.185.046-1.587.046 8.806c0 1.783-.158 8.176.112 9.426l3.462-.034c0-2.752-.04-11.264-.033-12.777.015-.46-.009-.649.009-.648.275.006 1.408.006 1.64.005 2.055-.01 5.124-.068 7.984.01L16.505.153z" fill="#fff"/><path fill-rule="evenodd" clip-rule="evenodd" d="M23.874 1.998c-1.252-.007-2.508.012-3.762-.007-1.711-.026-1.575.516-2.451 1.761-.82 1.165-8.536 12.416-9.382 13.167L6.207 14.07c-.695.88-1.857 2.433-2.436 3.479.244.705 3.955 5.97 4.562 6.562.875-.902 1.989-2.731 2.762-3.829C24 1.982 21.032 6.117 23.874 1.998z" fill="#A73D95" stroke="#A73D95" stroke-width=".9" stroke-miterlimit="22.926"/></svg>