<svg width="40" height="40" viewBox="0 0 40 40" fill="none" xmlns="http://www.w3.org/2000/svg">
<path d="M20.2493 40C19.2767 39.9947 18.31 39.8472 17.38 39.5623C16.3602 39.2494 15.3744 38.8346 14.4377 38.3242C13.1567 37.6656 11.933 36.9011 10.7792 36.0388C9.74082 35.2255 8.75937 34.3419 7.84177 33.3943C6.59886 32.1514 5.43946 30.88 4.48606 29.7122C3.43158 28.4693 2.5211 27.111 1.77197 25.6634L1.70864 25.5312V25.527L1.69403 25.4964V25.4894V25.4824L1.62026 25.3245L1.61539 25.314L1.61052 25.3036L1.54093 25.1512L1.53188 25.1317V25.1261L1.48038 25.012L1.46438 24.9765L1.45255 24.9494L1.4428 24.9278V24.9236L1.38922 24.8018L1.38365 24.7879L1.36904 24.7747L1.30571 24.6272L1.29527 24.6028L1.23333 24.4532L1.22916 24.4434L1.22498 24.4337L1.16652 24.2876L1.15957 24.2702L1.1032 24.1261V24.1212L1.09554 24.1017L1.04196 23.9626L1.03708 23.9486L1.03082 23.9326C1.01412 23.8881 0.998112 23.8436 0.98141 23.7976V23.7886L0.971667 23.7614C0.952877 23.7099 0.938263 23.6675 0.925041 23.6299V23.6216L0.914602 23.5902L0.86032 23.4525L0.847098 23.4121L0.804647 23.284L0.797688 23.2639L0.79212 23.2437C0.77681 23.1964 0.764284 23.1553 0.752453 23.1177L0.740622 23.078L0.706522 22.9653L0.700259 22.9437V22.9396L0.6933 22.9152L0.658504 22.8039L0.652937 22.7851L0.647369 22.7565C0.635539 22.7127 0.6251 22.6744 0.615357 22.6382L0.608398 22.6173L0.602135 22.5944C0.593088 22.5589 0.582649 22.5206 0.57221 22.4775L0.561771 22.4357V22.426C0.554116 22.3947 0.543678 22.3564 0.533935 22.3118L0.51932 22.2569C0.510969 22.2228 0.502618 22.1873 0.493571 22.1441L0.488004 22.1177L0.481741 22.0898C0.47339 22.0523 0.465735 22.0147 0.45808 21.9778L0.449729 21.9263C0.444161 21.8999 0.43929 21.8734 0.433722 21.847V21.833V21.8212V21.817L0.423284 21.7614V21.7544L0.408669 21.673C0.403798 21.6472 0.399622 21.6215 0.395447 21.5957L0.381529 21.5108C0.377353 21.4865 0.373873 21.4621 0.369698 21.4412C0.365522 21.4204 0.360651 21.3807 0.35578 21.3501L0.351604 21.3202L0.347429 21.2902C0.342557 21.2547 0.337686 21.2206 0.33351 21.1851L0.317504 21.1309V21.1211C0.310545 21.0808 0.310545 21.0474 0.303586 21.0167C0.303586 20.9979 0.29941 20.9792 0.297322 20.9604V20.9534C0.293843 20.92 0.290363 20.8838 0.286884 20.8504C0.286884 20.8309 0.283404 20.8107 0.281316 20.7913V20.7871C0.278533 20.7583 0.275981 20.7296 0.273661 20.7008C0.273661 20.675 0.269486 20.65 0.268094 20.6242C0.266702 20.5985 0.264614 20.5734 0.262527 20.5484C0.262527 20.5199 0.259047 20.4913 0.257655 20.4621C0.256263 20.4329 0.257655 20.4141 0.25348 20.3925C0.249304 20.3709 0.25348 20.3347 0.25 20.3062V20.302C0.25 20.2777 0.25 20.2533 0.25 20.229C0.25 20.2046 0.25 20.1907 0.25 20.1719V20.1441C0.25 20.1176 0.25 20.0905 0.25 20.064C0.25 20.0376 0.25 20.0209 0.25 19.9993V19.8372C0.25 19.8037 0.25 19.7703 0.25 19.7369C0.25 19.7133 0.25 19.6896 0.25 19.6674C0.25 19.6451 0.25 19.6082 0.25 19.5783C0.25 19.5616 0.25 19.5456 0.25 19.5289V19.5045C0.25 19.4669 0.25 19.4349 0.254871 19.4029C0.254871 19.3841 0.254871 19.3646 0.254871 19.3458C0.254871 19.3152 0.258351 19.2825 0.261135 19.2435C0.261135 19.2254 0.261135 19.2067 0.26531 19.1886C0.26531 19.1538 0.270878 19.119 0.273661 19.0842V19.0501V19.0257C0.276909 18.9909 0.280388 18.9561 0.2841 18.9213L0.289667 18.8663V18.8552C0.289667 18.8239 0.296627 18.7898 0.302194 18.7494C0.302194 18.7369 0.302194 18.7244 0.307065 18.7119V18.6938V18.6868C0.311241 18.652 0.316112 18.6172 0.320984 18.5824L0.327943 18.533C0.33351 18.4954 0.339078 18.4578 0.344645 18.421L0.351604 18.3792V18.3729C0.357171 18.3381 0.363435 18.2999 0.37109 18.256L0.379441 18.2073C0.3864 18.167 0.394055 18.1259 0.40171 18.0848L0.407973 18.0528V18.0354C0.415629 17.9951 0.42398 17.9533 0.432331 17.9129L0.43929 17.8781V17.8719C0.447641 17.8315 0.456688 17.7898 0.465735 17.7487V17.7355L0.471302 17.7097C0.479653 17.6715 0.489396 17.6311 0.500531 17.5838L0.509578 17.5469C0.51932 17.5072 0.529759 17.4641 0.542982 17.4112L0.547853 17.3924L0.552029 17.3771C0.563859 17.3305 0.576386 17.2831 0.590304 17.2316L0.593784 17.2184L0.597959 17.2038C0.611878 17.153 0.624404 17.1078 0.636235 17.0646L0.645282 17.0326C0.657112 16.9915 0.671727 16.9428 0.686341 16.8934V16.8879L0.693996 16.8628C0.709306 16.8127 0.724616 16.764 0.738535 16.7194L0.74619 16.6951C0.7615 16.6471 0.778202 16.5956 0.797688 16.5371L0.801863 16.5239V16.519C0.819261 16.4661 0.838051 16.4125 0.854753 16.3631L0.863104 16.3402C0.880502 16.2894 0.899292 16.2379 0.91669 16.1898L0.920865 16.1787L0.925041 16.1676C0.946614 16.1091 0.964708 16.0611 0.98141 16.0152L0.988369 15.9964C1.00855 15.9442 1.02943 15.8899 1.051 15.8349L1.05518 15.8245C1.07606 15.7709 1.09902 15.7145 1.12477 15.6519L1.12964 15.6401C1.1533 15.5823 1.17557 15.528 1.19923 15.4751L1.20689 15.457C1.22707 15.409 1.24934 15.3575 1.27648 15.2956L1.28483 15.2768C1.30571 15.2295 1.32867 15.1766 1.3586 15.1112L1.36486 15.0973C1.39618 15.0277 1.42262 14.9706 1.44698 14.9184C2.89727 11.8007 5.06576 9.62942 7.16673 7.53053L7.20849 7.48878C8.43052 6.26675 9.57113 5.22356 10.695 4.30008C11.9805 3.23254 13.3501 2.27066 14.7905 1.42385C15.5913 0.947356 16.4505 0.576816 17.3466 0.321514C18.1146 0.10923 18.9076 0.00109078 19.7044 0C20.7759 0.00773424 21.839 0.188689 22.8527 0.535857C23.8227 0.867276 24.7615 1.2839 25.658 1.78086C27.0899 2.54982 28.4636 3.42251 29.7681 4.39194C30.9959 5.30651 32.156 6.3087 33.2393 7.39065C34.3701 8.53457 35.4052 9.76933 36.3341 11.0825C37.2021 12.2549 37.9185 13.5323 38.4664 14.8843C38.8235 15.8298 39.1269 16.7947 39.3752 17.7745C39.5918 18.626 39.7136 19.4989 39.7385 20.3772C39.7556 21.2379 39.6514 22.0968 39.4288 22.9284C39.1666 23.88 38.7941 24.7976 38.3188 25.6627C37.6419 26.9321 36.8499 28.1367 35.9527 29.2613C35.0592 30.3651 34.1028 31.4165 33.0883 32.4103C31.9923 33.5062 30.8377 34.5418 29.6296 35.5127C28.3651 36.5308 27.039 37.4698 25.6587 38.3242C24.0509 39.3845 22.1749 39.9657 20.2493 40ZM9.87594 17.5065L9.83001 17.606V17.6137L9.78895 17.7056L9.78478 17.716L9.74581 17.8058V17.8106V17.8155L9.70753 17.9074V17.9136L9.66926 18.009V18.0132L9.63446 18.1029V18.1092V18.1148L9.60314 18.199L9.59897 18.2094L9.56904 18.2929V18.2999V18.3054C9.5593 18.3319 9.55025 18.3604 9.53982 18.3917V18.3987C9.52798 18.4342 9.51894 18.4606 9.51128 18.4864L9.50711 18.4996L9.48275 18.5796L9.47788 18.5963C9.46999 18.6218 9.46234 18.6474 9.45491 18.6729V18.6819V18.691L9.43334 18.7675L9.39785 18.7898L9.39367 18.8065L9.37697 18.8691L9.3721 18.8879C9.36584 18.913 9.35957 18.938 9.35331 18.9631L9.34844 18.9833L9.33243 19.0529L9.32826 19.0723L9.32269 19.0988L9.31364 19.1412V19.1524V19.1642L9.30181 19.222V19.2331L9.28789 19.2693L9.27954 19.3138L9.27537 19.3375V19.3479V19.3625C9.27189 19.3841 9.26841 19.405 9.26493 19.4266L9.26075 19.453L9.2517 19.5156L9.24753 19.5421C9.24753 19.563 9.24196 19.5831 9.23918 19.604V19.62V19.636C9.23918 19.6555 9.23431 19.675 9.23222 19.6945V19.714V19.7314V19.7502C9.23222 19.7634 9.23222 19.7766 9.22874 19.7891V19.8218V19.8392C9.22874 19.8525 9.22874 19.8664 9.22874 19.8796C9.22874 19.8928 9.22874 19.8998 9.22874 19.9102C9.22874 19.9207 9.22874 19.9464 9.22526 19.9645C9.22526 19.9715 9.22526 19.9784 9.22526 19.9861V19.9986C9.22526 20.0167 9.22526 20.0348 9.22526 20.0536C9.22526 20.0724 9.22526 20.08 9.22526 20.0933C9.22526 20.1086 9.22526 20.1246 9.22526 20.1399V20.1837C9.22526 20.2011 9.22526 20.2185 9.22526 20.2359V20.3619C9.22526 20.3765 9.22526 20.3918 9.22526 20.4064C9.22526 20.421 9.22526 20.4377 9.22526 20.4537V20.4941C9.22526 20.5108 9.22526 20.5275 9.22526 20.5442V20.5644V20.5846C9.22526 20.5957 9.22526 20.6061 9.22526 20.6173V20.634V20.6556V20.6764C9.22526 20.6904 9.22526 20.705 9.22526 20.7189V20.7425V20.7683V20.8003C9.22526 20.8191 9.22874 20.8379 9.23083 20.8567C9.23083 20.8643 9.23083 20.8713 9.23083 20.8789V20.8915C9.23083 20.911 9.235 20.9297 9.23779 20.9485V20.9632V20.9826L9.24196 21.0119L9.24544 21.0383L9.25031 21.0717V21.0884L9.25518 21.1204V21.1371V21.1573L9.25936 21.181V21.2012V21.2213L9.26354 21.2443L9.27258 21.2916V21.3048L9.27745 21.3313V21.3445L9.28441 21.3807L9.28998 21.4071C9.29416 21.428 9.29856 21.4487 9.3032 21.4691L9.30947 21.499L9.31921 21.5415L9.32338 21.5609V21.5756V21.5888L9.338 21.65L9.34496 21.6786C9.35122 21.7036 9.35679 21.7245 9.36166 21.7433L9.36862 21.7697L9.38602 21.833L9.3895 21.8456L9.39298 21.8581C9.39854 21.879 9.40481 21.8992 9.41037 21.92L9.41803 21.9472L9.43682 22.0105L9.4403 22.0223V22.0328L9.46187 22.1024V22.1128V22.1239L9.47301 22.1573L9.48484 22.1928L9.48971 22.2068V22.2151L9.5078 22.2687L9.51337 22.2847L9.52103 22.3063V22.316L9.5426 22.3773L9.54956 22.3974L9.57739 22.4726L9.58157 22.483V22.49L9.61149 22.5686L9.61706 22.5826L9.64838 22.6626L9.65255 22.6723L9.68039 22.7419L9.68526 22.7537V22.7586V22.7649C9.6964 22.792 9.70823 22.8199 9.72006 22.8477L9.72423 22.8581L9.75903 22.9403L9.7639 22.9521L9.79104 23.014L9.7987 23.0314L9.80566 23.0467L9.84254 23.1295V23.1344L9.84672 23.1435L9.88569 23.2284V23.2353V23.2402L9.89682 23.2639L9.92675 23.3286V23.3328L9.94136 23.3627L9.97059 23.4246C10.8793 25.0124 12.0141 26.4595 13.3395 27.7205C14.3912 28.8406 15.6313 29.7672 17.0035 30.4583C17.985 31.0334 19.0949 31.3533 20.2319 31.3887C21.3015 31.3698 22.3437 31.0471 23.2369 30.4583C24.7335 29.5247 26.1182 28.4226 27.3637 27.1735C28.5212 26.0827 29.5017 24.8181 30.2698 23.4253C31.4111 21.2902 31.1926 19.7369 30.3519 17.4404C29.6705 15.9092 28.7106 14.5179 27.521 13.3373C26.2768 12.0987 24.8581 11.0488 23.3099 10.221C22.307 9.62322 21.1715 9.28345 20.005 9.23205C19.0467 9.2422 18.1089 9.51127 17.291 10.0108C15.7452 10.9439 14.3291 12.0767 13.0793 13.3797L13.057 13.402C11.7563 14.5656 10.6792 15.9571 9.87873 17.5079L9.87594 17.5065Z" fill="#53B7D1"/>
</svg>
