<svg width="22" height="22" fill="none" xmlns="http://www.w3.org/2000/svg"><path d="M21.86 10.571c-.196-.268-4.88-6.583-10.86-6.583-5.981 0-10.664 6.315-10.86 6.583a.726.726 0 000 .856c.196.269 4.879 6.583 10.86 6.583 5.98 0 10.664-6.314 10.86-6.583a.725.725 0 000-.856zM11 16.56c-4.406 0-8.221-4.191-9.35-5.561 1.127-1.371 4.935-5.56 9.35-5.56 4.405 0 8.22 4.19 9.35 5.56-1.127 1.372-4.935 5.56-9.35 5.56z" fill="#1B1A1F"/><path d="M11 6.648A4.357 4.357 0 006.648 11c0 2.4 1.953 4.352 4.352 4.352 2.4 0 4.352-1.952 4.352-4.352 0-2.4-1.952-4.352-4.352-4.352zm0 7.253a2.904 2.904 0 01-2.901-2.9A2.905 2.905 0 0111 8.098c1.6 0 2.901 1.301 2.901 2.901 0 1.6-1.301 2.901-2.9 2.901z" fill="#1B1A1F"/></svg>