<svg width="22" height="22" fill="none" xmlns="http://www.w3.org/2000/svg"><g clip-path="url(#clip0)" fill="#1B1A1F"><path d="M19.56 2.439a.809.809 0 00-1.146 0l-2.873 2.873C11.981 3.696 8.183 4.09 4.56 6.457 1.862 8.217.223 10.43.156 10.524a.815.815 0 00.022.988c1.536 1.885 3.143 3.354 4.786 4.377l-2.528 2.528a.813.813 0 000 1.144.806.806 0 001.14 0L19.56 3.583a.813.813 0 000-1.144zM9 11.853A2.102 2.102 0 018.825 11c0-.58.224-1.127.637-1.54a2.18 2.18 0 012.393-.462L9 11.853zm4.05-4.045a3.797 3.797 0 00-4.728.507 3.762 3.762 0 00-1.109 2.68c0 .737.211 1.442.602 2.048l-1.666 1.665c-1.459-.844-2.896-2.092-4.292-3.722.597-.7 1.859-2.051 3.587-3.178 2.99-1.948 5.967-2.37 8.867-1.262L13.05 7.808zm8.77 2.681c-1.108-1.365-2.258-2.515-3.425-3.426a.818.818 0 00-1.14.14.813.813 0 00.139 1.135c.925.723 1.85 1.62 2.747 2.671a17.72 17.72 0 01-2.963 2.752c-2.698 1.962-5.423 2.672-8.094 2.106a.806.806 0 00-.956.624.806.806 0 00.624.956c.695.149 1.396.22 2.1.22 1.06 0 2.129-.166 3.193-.498 1.396-.436 2.783-1.154 4.126-2.133 2.262-1.656 3.614-3.483 3.672-3.56a.815.815 0 00-.023-.987z"/></g><defs><clipPath id="clip0"><path fill="#fff" d="M0 0h22v22H0z"/></clipPath></defs></svg>