<svg width="42" height="32" fill="none" xmlns="http://www.w3.org/2000/svg"><g clip-path="url(#clip0)"><path d="M41.942 15.973c0 4.406-1.789 8.4-4.678 11.293a15.874 15.874 0 01-12.175 4.655 15.88 15.88 0 01-10.353-4.655 15.937 15.937 0 01-4.678-11.293 15.94 15.94 0 014.675-11.29A15.878 15.878 0 0126 0c4.395 0 8.38 1.791 11.267 4.684a15.94 15.94 0 014.675 11.289z" fill="#FFE18B"/><path d="M37.267 4.684l-.942.945-10.32 10.348-.005.003L14.733 4.684A15.878 15.878 0 0126 0c4.395 0 8.38 1.791 11.267 4.684z" fill="#FED237"/><path d="M37.264 27.266a15.874 15.874 0 01-12.175 4.655 15.88 15.88 0 01-10.353-4.655l11.26-11.289.004-.004 11.264 11.293z" fill="#FED237"/><path d="M41.942 15.973c0 4.406-1.79 8.4-4.678 11.293a15.874 15.874 0 01-12.175 4.655c8.38-.474 15.03-7.433 15.03-15.948S33.468.5 25.088.026a15.875 15.875 0 0112.178 4.658 15.94 15.94 0 014.675 11.289z" fill="#FED237"/><path d="M36.321 26.321l.943.945a15.874 15.874 0 01-12.175 4.655 15.9 15.9 0 0011.232-5.6zM25.089.026a15.875 15.875 0 0112.178 4.658l-.943.945A15.899 15.899 0 0025.09.026z" fill="#F90"/><path d="M38.176 15.973c0 6.738-5.451 12.2-12.176 12.2-.279 0-.556-.01-.83-.028-6.338-.427-11.347-5.713-11.347-12.172 0-6.458 5.01-11.745 11.348-12.172.273-.019.55-.028.829-.028 6.725 0 12.176 5.462 12.176 12.2z" fill="#FFB800"/><path d="M38.176 15.973c0 6.738-5.451 12.2-12.176 12.2-.279 0-.555-.01-.83-.028 6.34-.427 11.349-5.713 11.349-12.172 0-6.458-5.01-11.745-11.348-12.172.274-.019.55-.028.829-.028 6.725 0 12.176 5.462 12.176 12.2z" fill="#F90"/><path d="M32.464 13.792a.622.622 0 00-.55-.426l-3.876-.256-1.463-3.683a.621.621 0 00-1.155 0l-1.462 3.683-3.873.256a.622.622 0 00-.361 1.097l2.974 2.532-.977 3.846a.624.624 0 00.935.68l3.342-2.117 3.342 2.118a.62.62 0 00.934-.681l-.977-3.846 2.979-2.532a.624.624 0 00.188-.67z" fill="#FFE18B"/></g><g clip-path="url(#clip1)"><path d="M36.942 15.973c0 4.406-1.789 8.4-4.678 11.293a15.874 15.874 0 01-12.175 4.655 15.88 15.88 0 01-10.353-4.655 15.937 15.937 0 01-4.678-11.293 15.94 15.94 0 014.675-11.29A15.878 15.878 0 0121 0c4.395 0 8.38 1.791 11.267 4.684a15.94 15.94 0 014.675 11.289z" fill="#FFE18B"/><path d="M32.267 4.684l-.942.945-10.32 10.348-.005.003L9.733 4.684A15.878 15.878 0 0121 0c4.395 0 8.38 1.791 11.267 4.684z" fill="#FED237"/><path d="M32.264 27.266a15.874 15.874 0 01-12.175 4.655 15.88 15.88 0 01-10.353-4.655l11.26-11.289.004-.004 11.264 11.293z" fill="#FED237"/><path d="M36.942 15.973c0 4.406-1.79 8.4-4.678 11.293a15.874 15.874 0 01-12.175 4.655c8.38-.474 15.03-7.433 15.03-15.948S28.468.5 20.088.026a15.875 15.875 0 0112.178 4.658 15.94 15.94 0 014.675 11.289z" fill="#FED237"/><path d="M31.321 26.321l.943.945a15.874 15.874 0 01-12.175 4.655 15.9 15.9 0 0011.232-5.6zM20.089.026a15.875 15.875 0 0112.178 4.658l-.943.945A15.899 15.899 0 0020.09.026z" fill="#F90"/><path d="M33.176 15.973c0 6.738-5.451 12.2-12.176 12.2-.279 0-.556-.01-.83-.028-6.338-.427-11.347-5.713-11.347-12.172 0-6.458 5.01-11.745 11.348-12.172.273-.019.55-.028.829-.028 6.725 0 12.176 5.462 12.176 12.2z" fill="#FFB800"/><path d="M33.176 15.973c0 6.738-5.451 12.2-12.176 12.2-.279 0-.555-.01-.83-.028 6.34-.427 11.348-5.713 11.348-12.172 0-6.458-5.008-11.745-11.347-12.172.274-.019.55-.028.829-.028 6.725 0 12.176 5.462 12.176 12.2z" fill="#F90"/><path d="M27.464 13.792a.622.622 0 00-.55-.426l-3.876-.256-1.463-3.683a.621.621 0 00-1.155 0l-1.462 3.683-3.873.256a.622.622 0 00-.361 1.097l2.974 2.532-.977 3.846a.624.624 0 00.935.68l3.342-2.117 3.342 2.118a.62.62 0 00.934-.681l-.977-3.846 2.979-2.532a.624.624 0 00.188-.67z" fill="#FFE18B"/></g><g clip-path="url(#clip2)"><path d="M31.942 15.973c0 4.406-1.789 8.4-4.678 11.293a15.874 15.874 0 01-12.175 4.655 15.88 15.88 0 01-10.353-4.655A15.937 15.937 0 01.058 15.973a15.94 15.94 0 014.675-11.29A15.878 15.878 0 0116 0c4.395 0 8.38 1.791 11.267 4.684a15.94 15.94 0 014.675 11.289z" fill="#FFE18B"/><path d="M27.267 4.684l-.942.945-10.32 10.348-.005.003L4.733 4.684A15.878 15.878 0 0116 0c4.395 0 8.38 1.791 11.267 4.684z" fill="#FED237"/><path d="M27.264 27.266a15.874 15.874 0 01-12.175 4.655 15.88 15.88 0 01-10.353-4.655l11.26-11.289.004-.004 11.264 11.293z" fill="#FED237"/><path d="M31.942 15.973c0 4.406-1.79 8.4-4.678 11.293a15.874 15.874 0 01-12.175 4.655c8.38-.474 15.03-7.433 15.03-15.948S23.468.5 15.088.026a15.875 15.875 0 0112.178 4.658 15.94 15.94 0 014.675 11.289z" fill="#FED237"/><path d="M26.321 26.321l.943.945a15.874 15.874 0 01-12.175 4.655 15.9 15.9 0 0011.232-5.6zM15.089.026a15.875 15.875 0 0112.178 4.658l-.943.945A15.899 15.899 0 0015.09.026z" fill="#F90"/><path d="M28.176 15.973c0 6.738-5.451 12.2-12.176 12.2-.279 0-.556-.01-.83-.028-6.338-.427-11.347-5.713-11.347-12.172 0-6.458 5.01-11.745 11.348-12.172.273-.019.55-.028.829-.028 6.725 0 12.176 5.462 12.176 12.2z" fill="#FFB800"/><path d="M28.177 15.973c0 6.738-5.452 12.2-12.177 12.2-.279 0-.556-.01-.83-.028 6.34-.427 11.348-5.713 11.348-12.172 0-6.458-5.008-11.745-11.347-12.172.274-.019.55-.028.829-.028 6.725 0 12.177 5.462 12.177 12.2z" fill="#F90"/><path d="M22.464 13.792a.622.622 0 00-.55-.426l-3.876-.256-1.463-3.683a.621.621 0 00-1.155 0l-1.462 3.683-3.873.256a.622.622 0 00-.361 1.097l2.974 2.532-.977 3.846a.624.624 0 00.935.68l3.342-2.117 3.342 2.118a.62.62 0 00.934-.681l-.977-3.846 2.979-2.532a.624.624 0 00.188-.67z" fill="#FFE18B"/></g><defs><clipPath id="clip0"><path fill="#fff" transform="translate(10)" d="M0 0h32v32H0z"/></clipPath><clipPath id="clip1"><path fill="#fff" transform="translate(5)" d="M0 0h32v32H0z"/></clipPath><clipPath id="clip2"><path fill="#fff" d="M0 0h32v32H0z"/></clipPath></defs></svg>