<svg width="40" height="40" viewBox="0 0 40 40" fill="none" xmlns="http://www.w3.org/2000/svg">
<path fill-rule="evenodd" clip-rule="evenodd" d="M38.0305 29.3636C38.6134 30.1917 38.6722 31.4966 38.053 32.5083C37.5005 33.4117 34.1917 36.8783 33.1151 37.9923C32.1822 38.9598 30.922 39.9284 29.682 39.9284H3.71978C0.211252 39.9284 0 38.7486 0 36.0802V25.2576C0 22.5327 0.810155 21.7451 3.20652 21.7451H29.682C30.922 21.7451 32.0254 22.3733 33.2929 23.6512C34.3681 24.7361 37.5833 28.7265 38.0305 29.3636Z" fill="#33CCCC"/>
<path fill-rule="evenodd" clip-rule="evenodd" d="M38.0305 29.3636C38.6134 30.1917 38.6722 31.4966 38.053 32.5083C37.5005 33.4117 34.1917 36.8783 33.1151 37.9923C32.1822 38.9598 30.922 39.9284 29.682 39.9284H3.71978C0.211252 39.9284 0 38.7486 0 36.0802V25.2576C0 22.5327 0.810155 21.7451 3.20652 21.7451H29.682C30.922 21.7451 32.0254 22.3733 33.2929 23.6512C34.3681 24.7361 37.5833 28.7265 38.0305 29.3636Z" fill="url(#paint0_linear)"/>
<path fill-rule="evenodd" clip-rule="evenodd" d="M5.88593 25.9303V25.8591C5.88593 25.5109 5.85616 25.1671 5.28193 25.1671H3.11206C2.60752 25.1671 2.57558 25.4438 2.57558 25.8736V28.7339C3.63184 27.2354 4.8028 26.5393 5.88593 25.9303ZM20.4413 36.2656V36.112H20.4427V29.2275C20.4427 26.3406 19.1632 24.8973 16.6039 24.8976C15.895 24.8912 15.1983 25.0802 14.5915 25.4435C13.9825 25.8077 13.3973 26.3163 12.8362 26.9695C12.5603 26.2597 12.1441 25.7369 11.5875 25.4011C11.031 25.0654 10.3104 24.8975 9.42567 24.8975C8.40063 24.8975 7.21006 25.2535 6.36577 25.9426C6.1763 26.1302 2.57558 28.9419 2.57558 31.8296V36.237C2.57558 36.3772 2.50734 36.909 3.10843 36.909H5.36686C6.06886 36.909 5.9999 36.4528 5.9999 36.2652V29.137C6.38103 28.6353 7.16069 27.396 8.42603 27.396C8.91169 27.396 9.26137 27.5591 9.47504 27.8852C9.68871 28.2114 9.79615 28.7581 9.79736 29.5255V35.0929H9.79446V36.2368C9.79446 36.377 9.72622 36.9087 10.3266 36.9087H12.5567C13.2594 36.9087 13.1904 36.4526 13.1904 36.265V36.1115H13.1934V29.137C13.6021 28.6353 14.4159 27.396 15.6188 27.396C16.1139 27.396 16.4708 27.5591 16.6895 27.8852C16.9083 28.2114 17.0175 28.7581 17.0169 29.5255V35.0929H17.0148V36.2368C17.0148 36.377 16.9473 36.9087 17.5476 36.9087H19.8068C20.5102 36.9087 20.4413 36.4529 20.4413 36.2653V36.2656ZM32.8812 33.4665C32.0776 35.6099 30.1538 36.8077 27.7705 36.8077C24.3171 36.8077 22.0362 34.4737 22.0362 30.9732C22.0362 27.5148 24.4035 25.0079 27.6623 25.0079C30.8855 25.0079 33.0482 27.2348 33.1854 30.8219C33.2028 31.2803 33.0678 31.6852 32.4906 31.6852H25.1636C25.2071 33.6087 26.1422 34.6463 27.7923 34.6463C28.7984 34.6463 29.3952 34.2158 29.9142 33.3721C30.1407 33.0052 30.6032 33.0254 30.6032 33.0254H32.4899C32.7984 33.0249 32.9349 33.3234 32.8812 33.4662V33.4665ZM27.6623 27.2334C26.2932 27.2334 25.3378 28.1842 25.1636 29.7411H30.0732C29.9425 28.3791 29.2035 27.2332 27.6623 27.2332V27.2334Z" fill="white"/>
<path fill-rule="evenodd" clip-rule="evenodd" d="M13.1845 2.23069C12.9093 1.79548 12.5522 1.41687 12.1326 1.11558C11.713 0.823087 11.2521 0.593766 10.7649 0.43508C10.224 0.260164 9.66518 0.144981 9.0988 0.0916258C8.45081 0.0284194 7.79999 -0.00212374 7.14887 0.000114634H1.44143C0.928183 0.000114634 0.390253 0.334432 0.390253 0.965008V10.1449C1.1133 11.6748 2.52165 13.2991 4.12238 14.0753V12.2543C4.12238 11.2937 4.85196 11.079 5.15323 11.079H6.84107C9.16558 11.079 10.9395 10.5948 12.163 9.62648C13.3863 8.6595 13.998 7.22302 13.9983 5.31709C14.0018 4.76645 13.9374 4.21745 13.8066 3.68227C13.6768 3.16924 13.4669 2.67947 13.1845 2.23069ZM9.85887 6.94515C9.66199 7.28425 9.3682 7.55806 9.01459 7.73194C8.63128 7.91338 8.2172 8.02223 7.79353 8.05288C7.33254 8.09367 6.85631 8.1141 6.36484 8.11417H4.76121C4.3692 8.11417 4.12238 7.79763 4.12238 7.33V3.57702C4.12238 3.15616 4.39896 2.97954 4.73072 2.97954H6.36484C6.89696 2.97954 7.39618 2.99479 7.8625 3.0253C8.28188 3.04424 8.69372 3.14289 9.07557 3.31587C9.41626 3.47656 9.69814 3.73826 9.8821 4.06472C10.0767 4.40045 10.1739 4.87407 10.1739 5.48558C10.1739 6.10693 10.0689 6.59345 9.85887 6.94515ZM4.12238 14.6681C2.36194 13.9703 1.18154 13.1375 0.390253 12.3119V16.7436C0.390253 16.7436 0.324917 17.4663 1.03417 17.4663H3.52418C4.20658 17.4663 4.12238 16.7436 4.12238 16.7436V14.6681ZM39.4073 4.82896H37.1728C36.7184 4.82896 36.4193 5.01832 36.2393 5.51371C36.0578 6.00918 33.6904 12.5527 33.6904 12.5527C33.6904 12.5527 31.4247 6.14429 31.2469 5.6481C31.069 5.15191 30.7757 4.82896 30.248 4.82896H28.195C27.4712 4.82896 27.4712 5.39335 27.5605 5.61717C27.6338 5.79803 30.4454 13.443 31.5162 16.355C31.7689 17.0427 31.8683 17.2495 31.8763 17.5043C31.8843 17.7591 31.6229 18.2939 31.4429 18.6007C31.3598 18.7407 31.2646 18.8732 31.1583 18.9969C33.2578 18.3734 35.6774 16.1109 36.9289 13.6597C38.1659 10.2437 39.7979 5.73119 39.8683 5.50033C39.9823 5.12666 39.9808 4.82896 39.4073 4.82896ZM29.5409 19.6472C29.3469 19.6439 29.1533 19.63 28.9609 19.6057C28.7249 19.5747 28.2843 19.6183 28.2843 20.0014V21.7129C28.2843 22.366 28.5993 22.4096 28.7721 22.4483C29.2936 22.5561 29.8255 22.6071 30.3583 22.6004C31.0639 22.6004 31.6781 22.473 32.2008 22.2182C32.7286 21.959 33.1987 21.598 33.5837 21.1563C34.0083 20.6642 34.367 20.1199 34.6509 19.5369C34.963 18.9106 35.2626 18.2204 35.5496 17.4665C35.5496 17.4665 35.6723 17.1259 35.8748 16.5678C35.2585 17.1847 32.354 19.9175 29.5409 19.6472ZM26.1848 6.86069C26.0637 6.57464 25.8981 6.30917 25.6941 6.07393C25.491 5.84809 25.2583 5.65022 25.0022 5.48558C24.7262 5.30732 24.4332 5.15625 24.1275 5.0345C23.8153 4.91351 23.4942 4.81655 23.167 4.7445C22.7954 4.66373 22.4184 4.6101 22.0389 4.58407C21.6287 4.55381 21.1678 4.53855 20.656 4.53832C17.2708 4.53832 15.3434 5.59959 14.8737 7.72216C14.7206 8.38086 15.3776 8.41957 15.3776 8.41957H17.4596C18.0033 8.41957 17.9801 8.24576 18.2436 7.7577C18.339 7.49252 18.51 7.2605 18.7358 7.08983C19.1358 6.78441 19.7349 6.6317 20.5333 6.6317C21.3013 6.6317 21.8594 6.77925 22.2073 7.07436C22.5553 7.3695 22.76 7.81777 22.8215 8.41928C22.8215 9.11669 22.6022 9.58187 21.7529 9.58187C19.6803 9.50727 17.4538 9.74015 16.1993 10.4531C14.9449 11.166 14.2364 12.561 14.2364 14.0584C14.2364 14.6692 14.3465 15.204 14.5667 15.6627C14.78 16.1124 15.0952 16.5071 15.4879 16.8162C15.9047 17.1387 16.3826 17.3751 16.8934 17.5115C17.4736 17.6693 18.0732 17.7465 18.6748 17.7409C19.5757 17.7409 20.3719 17.6288 21.0632 17.4045C21.7543 17.1807 22.8237 16.4425 22.9601 16.3348V16.7288C22.9601 17.1186 23.0792 17.4663 23.5482 17.4663H25.9699C26.46 17.4663 26.5688 17.1186 26.5688 16.6907V9.29079C26.5729 8.83079 26.5424 8.37115 26.4774 7.91568C26.4252 7.55317 26.3269 7.19871 26.1848 6.86069ZM22.8832 14.1164C22.8832 14.1164 22.2581 15.405 20.0266 15.405C19.4124 15.405 18.9132 15.2675 18.5289 14.9926C18.1446 14.7176 17.9525 14.2898 17.9525 13.7089C17.9525 12.9544 18.2649 12.4219 18.8897 12.1114C19.514 11.8011 20.7641 11.6237 21.7006 11.6455C22.6371 11.6673 22.8832 12.2543 22.8832 12.6599V14.1167V14.1164Z" fill="#333333"/>
<defs>
<linearGradient id="paint0_linear" x1="51.2118" y1="26.9953" x2="46.2496" y2="57.2076" gradientUnits="userSpaceOnUse">
<stop offset="0.47231" stop-color="#00CCCC"/>
<stop offset="1" stop-color="#3399FF"/>
</linearGradient>
</defs>
</svg>
