<svg width="42" height="32" fill="none" xmlns="http://www.w3.org/2000/svg"><g clip-path="url(#clip0)"><path d="M41.942 15.931c0 4.395-1.789 8.38-4.678 11.264a15.895 15.895 0 01-12.175 4.643 15.898 15.898 0 01-10.353-4.643 15.875 15.875 0 01-4.678-11.264c0-4.392 1.788-8.374 4.675-11.26A15.896 15.896 0 0126 .002a15.9 15.9 0 0111.267 4.67 15.877 15.877 0 014.675 11.26z" fill="#E6E6E6"/><path d="M37.267 4.672l-.942.942-10.32 10.322-.005.003L14.733 4.672A15.896 15.896 0 0126 0c4.395 0 8.38 1.787 11.267 4.672z" fill="#C9C9C9"/><path d="M37.264 27.195a15.895 15.895 0 01-12.175 4.643 15.898 15.898 0 01-10.353-4.643l11.26-11.26.004-.004 11.264 11.264z" fill="#C9C9C9"/><path d="M41.942 15.931c0 4.395-1.79 8.38-4.678 11.264a15.895 15.895 0 01-12.175 4.643c8.38-.473 15.03-7.413 15.03-15.907 0-8.492-6.65-15.433-15.03-15.905a15.896 15.896 0 0112.178 4.646 15.877 15.877 0 014.675 11.26z" fill="#C9C9C9"/><path d="M36.321 26.253l.943.942a15.895 15.895 0 01-12.175 4.643 15.915 15.915 0 0011.232-5.585zM25.089.026a15.896 15.896 0 0112.178 4.646l-.943.942A15.913 15.913 0 0025.09.026z" fill="#9F9F9F"/><path d="M38.176 15.932c0 6.72-5.451 12.168-12.176 12.168-.279 0-.556-.01-.83-.028-6.338-.425-11.347-5.698-11.347-12.14s5.01-11.715 11.348-12.14c.273-.02.55-.029.829-.029 6.725 0 12.176 5.449 12.176 12.169z" fill="#B5B3B3"/><path d="M38.176 15.932c0 6.72-5.451 12.168-12.176 12.168-.279 0-.555-.01-.83-.028 6.34-.425 11.349-5.698 11.349-12.14S31.509 4.217 25.17 3.792c.274-.02.55-.029.829-.029 6.725 0 12.176 5.449 12.176 12.169z" fill="#9F9F9F"/><path d="M32.464 13.756a.622.622 0 00-.55-.425l-3.876-.255-1.463-3.674a.621.621 0 00-1.155 0l-1.462 3.674-3.873.255a.622.622 0 00-.361 1.094l2.974 2.526-.977 3.836a.621.621 0 00.935.679l3.342-2.113 3.342 2.113a.622.622 0 00.934-.679l-.977-3.836 2.979-2.526a.622.622 0 00.188-.669z" fill="#E6E6E6"/></g><g clip-path="url(#clip1)"><path d="M36.942 15.931c0 4.395-1.789 8.38-4.678 11.264a15.895 15.895 0 01-12.175 4.643 15.898 15.898 0 01-10.353-4.643 15.875 15.875 0 01-4.678-11.264c0-4.392 1.788-8.374 4.675-11.26A15.896 15.896 0 0121 .002a15.9 15.9 0 0111.267 4.67 15.877 15.877 0 014.675 11.26z" fill="#E6E6E6"/><path d="M32.267 4.672l-.942.942-10.32 10.322-.005.003L9.733 4.672A15.896 15.896 0 0121 0c4.395 0 8.38 1.787 11.267 4.672z" fill="#C9C9C9"/><path d="M32.264 27.195a15.895 15.895 0 01-12.175 4.643 15.898 15.898 0 01-10.353-4.643l11.26-11.26.004-.004 11.264 11.264z" fill="#C9C9C9"/><path d="M36.942 15.931c0 4.395-1.79 8.38-4.678 11.264a15.895 15.895 0 01-12.175 4.643c8.38-.473 15.03-7.413 15.03-15.907 0-8.492-6.65-15.433-15.03-15.905a15.896 15.896 0 0112.178 4.646 15.877 15.877 0 014.675 11.26z" fill="#C9C9C9"/><path d="M31.321 26.253l.943.942a15.895 15.895 0 01-12.175 4.643 15.915 15.915 0 0011.232-5.585zM20.089.026a15.896 15.896 0 0112.178 4.646l-.943.942A15.913 15.913 0 0020.09.026z" fill="#9F9F9F"/><path d="M33.176 15.932c0 6.72-5.451 12.168-12.176 12.168-.279 0-.556-.01-.83-.028-6.338-.425-11.347-5.698-11.347-12.14s5.01-11.715 11.348-12.14c.273-.02.55-.029.829-.029 6.725 0 12.176 5.449 12.176 12.169z" fill="#B5B3B3"/><path d="M33.176 15.932c0 6.72-5.451 12.168-12.176 12.168-.279 0-.555-.01-.83-.028 6.34-.425 11.348-5.698 11.348-12.14S26.51 4.217 20.172 3.792c.274-.02.55-.029.829-.029 6.725 0 12.176 5.449 12.176 12.169z" fill="#9F9F9F"/><path d="M27.464 13.756a.622.622 0 00-.55-.425l-3.876-.255-1.463-3.674a.621.621 0 00-1.155 0l-1.462 3.674-3.873.255a.622.622 0 00-.361 1.094l2.974 2.526-.977 3.836a.621.621 0 00.935.679l3.342-2.113 3.342 2.113a.622.622 0 00.934-.679l-.977-3.836 2.979-2.526a.622.622 0 00.188-.669z" fill="#E6E6E6"/></g><g clip-path="url(#clip2)"><path d="M31.942 15.931c0 4.395-1.789 8.38-4.678 11.264a15.895 15.895 0 01-12.175 4.643 15.898 15.898 0 01-10.353-4.643A15.875 15.875 0 01.058 15.931c0-4.392 1.788-8.374 4.675-11.26A15.896 15.896 0 0116 .002a15.9 15.9 0 0111.267 4.67 15.877 15.877 0 014.675 11.26z" fill="#E6E6E6"/><path d="M27.267 4.672l-.942.942-10.32 10.322-.005.003L4.733 4.672A15.896 15.896 0 0116 0c4.395 0 8.38 1.787 11.267 4.672z" fill="#C9C9C9"/><path d="M27.264 27.195a15.895 15.895 0 01-12.175 4.643 15.898 15.898 0 01-10.353-4.643l11.26-11.26.004-.004 11.264 11.264z" fill="#C9C9C9"/><path d="M31.942 15.931c0 4.395-1.79 8.38-4.678 11.264a15.895 15.895 0 01-12.175 4.643c8.38-.473 15.03-7.413 15.03-15.907 0-8.492-6.65-15.433-15.03-15.905a15.896 15.896 0 0112.178 4.646 15.877 15.877 0 014.675 11.26z" fill="#C9C9C9"/><path d="M26.321 26.253l.943.942a15.895 15.895 0 01-12.175 4.643 15.915 15.915 0 0011.232-5.585zM15.089.026a15.896 15.896 0 0112.178 4.646l-.943.942A15.913 15.913 0 0015.09.026z" fill="#9F9F9F"/><path d="M28.176 15.932c0 6.72-5.451 12.168-12.176 12.168-.279 0-.556-.01-.83-.028-6.338-.425-11.347-5.698-11.347-12.14s5.01-11.715 11.348-12.14c.273-.02.55-.029.829-.029 6.725 0 12.176 5.449 12.176 12.169z" fill="#B5B3B3"/><path d="M28.177 15.932c0 6.72-5.452 12.168-12.177 12.168-.279 0-.556-.01-.83-.028 6.34-.425 11.348-5.698 11.348-12.14S21.51 4.217 15.171 3.792c.274-.02.55-.029.829-.029 6.725 0 12.177 5.449 12.177 12.169z" fill="#9F9F9F"/><path d="M22.464 13.756a.622.622 0 00-.55-.425l-3.876-.255-1.463-3.674a.621.621 0 00-1.155 0l-1.462 3.674-3.873.255a.622.622 0 00-.361 1.094l2.974 2.526-.977 3.836a.621.621 0 00.935.679l3.342-2.113 3.342 2.113a.622.622 0 00.934-.679l-.977-3.836 2.979-2.526a.622.622 0 00.188-.669z" fill="#E6E6E6"/></g><defs><clipPath id="clip0"><path fill="#fff" transform="translate(10)" d="M0 0h32v31.917H0z"/></clipPath><clipPath id="clip1"><path fill="#fff" transform="translate(5)" d="M0 0h32v31.917H0z"/></clipPath><clipPath id="clip2"><path fill="#fff" d="M0 0h32v31.917H0z"/></clipPath></defs></svg>